<svg width="227" height="257" viewBox="0 0 227 257" fill="none" xmlns="http://www.w3.org/2000/svg">
<mask id="path-1-outside-1_154_376" maskUnits="userSpaceOnUse" x="-4" y="-4" width="235" height="265" fill="black">
<rect fill="white" x="-4" y="-4" width="235" height="265"/>
<path d="M97.2 256.32C75.36 256.32 57.24 253.68 42.84 248.4C28.68 243.12 18.12 235.92 11.16 226.8C4.2 217.44 0.72 207.12 0.72 195.84C0.72 193.2 0.84 190.32 1.08 187.2C1.56 184.08 2.28 180.84 3.24 177.48H66.24C66 178.68 65.76 180 65.52 181.44C65.52 182.64 65.52 183.84 65.52 185.04C65.52 192.24 68.4 197.76 74.16 201.6C80.16 205.2 88.32 207 98.64 207C107.76 207 115.56 205.44 122.04 202.32C128.76 198.96 133.8 194.4 137.16 188.64C140.76 182.64 142.56 175.8 142.56 168.12C142.56 163.56 141.6 159.84 139.68 156.96C138 153.84 135.48 151.56 132.12 150.12C129 148.68 125.4 147.96 121.32 147.96H95.04L102.96 103.68H123.48C127.8 103.68 131.76 102.96 135.36 101.52C139.2 99.84 142.44 97.68 145.08 95.04C147.96 92.16 150.12 88.8 151.56 84.96C153 81.12 153.72 77.04 153.72 72.72C153.72 68.4 152.64 64.56 150.48 61.2C148.56 57.6 145.56 54.72 141.48 52.56C137.4 50.4 132.12 49.32 125.64 49.32C118.92 49.32 113.04 50.4 108 52.56C102.96 54.72 98.88 57.6 95.76 61.2C92.64 64.8 90.6 68.76 89.64 73.08L88.92 76.68H28.44L29.88 67.68C31.8 55.2 37.08 43.92 45.72 33.84C54.6 23.52 66.6 15.36 81.72 9.35999C96.84 3.11999 115.08 -1.71661e-05 136.44 -1.71661e-05C155.4 -1.71661e-05 171.48 2.63998 184.68 7.91999C198.12 12.96 208.32 19.92 215.28 28.8C222.48 37.68 226.08 47.88 226.08 59.4C226.08 69.24 223.92 78.48 219.6 87.12C215.52 95.76 209.88 103.08 202.68 109.08C195.72 115.08 188.04 119.4 179.64 122.04L179.28 123.48C189.84 127.56 198 133.92 203.76 142.56C209.76 150.96 212.76 161.04 212.76 172.8C212.76 191.04 207.6 206.4 197.28 218.88C186.96 231.12 173.04 240.48 155.52 246.96C138 253.2 118.56 256.32 97.2 256.32Z"/>
</mask>
<path d="M97.2 256.32C75.36 256.32 57.24 253.68 42.84 248.4C28.68 243.12 18.12 235.92 11.16 226.8C4.2 217.44 0.72 207.12 0.72 195.84C0.72 193.2 0.84 190.32 1.08 187.2C1.56 184.08 2.28 180.84 3.24 177.48H66.24C66 178.68 65.76 180 65.52 181.44C65.52 182.64 65.52 183.84 65.52 185.04C65.52 192.24 68.4 197.76 74.16 201.6C80.16 205.2 88.32 207 98.64 207C107.76 207 115.56 205.44 122.04 202.32C128.76 198.96 133.8 194.4 137.16 188.64C140.76 182.64 142.56 175.8 142.56 168.12C142.56 163.56 141.6 159.84 139.68 156.96C138 153.84 135.48 151.56 132.12 150.12C129 148.68 125.4 147.96 121.32 147.96H95.04L102.96 103.68H123.48C127.8 103.68 131.76 102.96 135.36 101.52C139.2 99.84 142.44 97.68 145.08 95.04C147.96 92.16 150.12 88.8 151.56 84.96C153 81.12 153.72 77.04 153.72 72.72C153.72 68.4 152.64 64.56 150.48 61.2C148.56 57.6 145.56 54.72 141.48 52.56C137.4 50.4 132.12 49.32 125.64 49.32C118.92 49.32 113.04 50.4 108 52.56C102.96 54.72 98.88 57.6 95.76 61.2C92.64 64.8 90.6 68.76 89.64 73.08L88.92 76.68H28.44L29.88 67.68C31.8 55.2 37.08 43.92 45.72 33.84C54.6 23.52 66.6 15.36 81.72 9.35999C96.84 3.11999 115.08 -1.71661e-05 136.44 -1.71661e-05C155.4 -1.71661e-05 171.48 2.63998 184.68 7.91999C198.12 12.96 208.32 19.92 215.28 28.8C222.48 37.68 226.08 47.88 226.08 59.4C226.08 69.24 223.92 78.48 219.6 87.12C215.52 95.76 209.88 103.08 202.68 109.08C195.72 115.08 188.04 119.4 179.64 122.04L179.28 123.48C189.84 127.56 198 133.92 203.76 142.56C209.76 150.96 212.76 161.04 212.76 172.8C212.76 191.04 207.6 206.4 197.28 218.88C186.96 231.12 173.04 240.48 155.52 246.96C138 253.2 118.56 256.32 97.2 256.32Z" fill="url(#paint0_linear_154_376)"/>
<path d="M42.84 248.4L41.4425 252.148L41.4527 252.152L41.463 252.156L42.84 248.4ZM11.16 226.8L7.95015 229.187L7.96505 229.207L7.9802 229.227L11.16 226.8ZM1.08 187.2L-2.87349 186.592L-2.89657 186.742L-2.90822 186.893L1.08 187.2ZM3.24 177.48V173.48H0.222794L-0.606095 176.381L3.24 177.48ZM66.24 177.48L70.1623 178.264L71.1192 173.48H66.24V177.48ZM65.52 181.44L61.5744 180.782L61.52 181.109V181.44H65.52ZM74.16 201.6L71.9412 204.928L72.0204 204.981L72.102 205.03L74.16 201.6ZM122.04 202.32L123.775 205.924L123.802 205.911L123.829 205.898L122.04 202.32ZM137.16 188.64L133.73 186.582L133.717 186.603L133.705 186.625L137.16 188.64ZM139.68 156.96L136.158 158.856L136.247 159.022L136.352 159.179L139.68 156.96ZM132.12 150.12L130.444 153.752L130.494 153.775L130.544 153.797L132.12 150.12ZM95.04 147.96L91.1025 147.256L90.2611 151.96H95.04V147.96ZM102.96 103.68V99.68H99.612L99.0225 102.976L102.96 103.68ZM135.36 101.52L136.846 105.234L136.905 105.21L136.963 105.185L135.36 101.52ZM151.56 84.96L147.815 83.5555L147.815 83.5555L151.56 84.96ZM150.48 61.2L146.951 63.0823L147.027 63.226L147.115 63.363L150.48 61.2ZM141.48 52.56L139.608 56.0951L139.608 56.0951L141.48 52.56ZM95.76 61.2L92.7372 58.5803L92.7372 58.5803L95.76 61.2ZM89.64 73.08L85.7353 72.2123L85.726 72.2538L85.7177 72.2955L89.64 73.08ZM88.92 76.68V80.68H92.1992L92.8423 77.4645L88.92 76.68ZM28.44 76.68L24.4902 76.048L23.7491 80.68H28.44V76.68ZM29.88 67.68L33.8298 68.312L33.8317 68.3001L33.8335 68.2882L29.88 67.68ZM45.72 33.84L42.688 31.231L42.683 31.2368L45.72 33.84ZM81.72 9.35999L83.1954 13.078L83.2207 13.0679L83.246 13.0575L81.72 9.35999ZM184.68 7.91999L183.194 11.6339L183.235 11.65L183.276 11.6653L184.68 7.91999ZM215.28 28.8L212.132 31.2675L212.152 31.2935L212.173 31.3192L215.28 28.8ZM219.6 87.12L216.022 85.3311L216.002 85.3713L215.983 85.412L219.6 87.12ZM202.68 109.08L200.119 106.007L200.094 106.029L200.068 106.05L202.68 109.08ZM179.64 122.04L178.441 118.224L176.303 118.896L175.759 121.07L179.64 122.04ZM179.28 123.48L175.399 122.51L174.542 125.938L177.838 127.211L179.28 123.48ZM203.76 142.56L200.432 144.779L200.468 144.832L200.505 144.885L203.76 142.56ZM197.28 218.88L200.338 221.458L200.35 221.444L200.363 221.429L197.28 218.88ZM155.52 246.96L156.862 250.728L156.885 250.72L156.908 250.712L155.52 246.96ZM97.2 252.32C75.647 252.32 58.0319 249.71 44.217 244.644L41.463 252.156C56.4481 257.65 75.073 260.32 97.2 260.32V252.32ZM44.2375 244.652C30.5649 239.554 20.7183 232.731 14.3398 224.373L7.9802 229.227C15.5217 239.109 26.7951 246.686 41.4425 252.148L44.2375 244.652ZM14.3699 224.413C7.90419 215.718 4.72 206.229 4.72 195.84H-3.28C-3.28 208.011 0.495809 219.162 7.95015 229.187L14.3699 224.413ZM4.72 195.84C4.72 193.319 4.83468 190.543 5.06822 187.507L-2.90822 186.893C-3.15468 190.097 -3.28 193.081 -3.28 195.84H4.72ZM5.03349 187.808C5.48547 184.87 6.16733 181.795 7.0861 178.579L-0.606095 176.381C-1.60733 179.885 -2.36547 183.29 -2.87349 186.592L5.03349 187.808ZM3.24 181.48H66.24V173.48H3.24V181.48ZM62.3177 176.696C62.0678 177.945 61.8202 179.308 61.5744 180.782L69.4656 182.098C69.6998 180.692 69.9322 179.415 70.1623 178.264L62.3177 176.696ZM61.52 181.44C61.52 181.442 61.52 181.445 61.52 181.447C61.52 181.449 61.52 181.452 61.52 181.454C61.52 181.456 61.52 181.459 61.52 181.461C61.52 181.463 61.52 181.466 61.52 181.468C61.52 181.47 61.52 181.473 61.52 181.475C61.52 181.477 61.52 181.48 61.52 181.482C61.52 181.485 61.52 181.487 61.52 181.489C61.52 181.492 61.52 181.494 61.52 181.496C61.52 181.499 61.52 181.501 61.52 181.503C61.52 181.506 61.52 181.508 61.52 181.51C61.52 181.513 61.52 181.515 61.52 181.517C61.52 181.52 61.52 181.522 61.52 181.524C61.52 181.527 61.52 181.529 61.52 181.531C61.52 181.534 61.52 181.536 61.52 181.538C61.52 181.541 61.52 181.543 61.52 181.545C61.52 181.548 61.52 181.55 61.52 181.552C61.52 181.555 61.52 181.557 61.52 181.56C61.52 181.562 61.52 181.564 61.52 181.567C61.52 181.569 61.52 181.571 61.52 181.574C61.52 181.576 61.52 181.578 61.52 181.581C61.52 181.583 61.52 181.585 61.52 181.588C61.52 181.59 61.52 181.592 61.52 181.595C61.52 181.597 61.52 181.599 61.52 181.602C61.52 181.604 61.52 181.606 61.52 181.609C61.52 181.611 61.52 181.613 61.52 181.616C61.52 181.618 61.52 181.62 61.52 181.623C61.52 181.625 61.52 181.627 61.52 181.63C61.52 181.632 61.52 181.635 61.52 181.637C61.52 181.639 61.52 181.642 61.52 181.644C61.52 181.646 61.52 181.649 61.52 181.651C61.52 181.653 61.52 181.656 61.52 181.658C61.52 181.66 61.52 181.663 61.52 181.665C61.52 181.667 61.52 181.67 61.52 181.672C61.52 181.674 61.52 181.677 61.52 181.679C61.52 181.681 61.52 181.684 61.52 181.686C61.52 181.688 61.52 181.691 61.52 181.693C61.52 181.695 61.52 181.698 61.52 181.7C61.52 181.702 61.52 181.705 61.52 181.707C61.52 181.71 61.52 181.712 61.52 181.714C61.52 181.717 61.52 181.719 61.52 181.721C61.52 181.724 61.52 181.726 61.52 181.728C61.52 181.731 61.52 181.733 61.52 181.735C61.52 181.738 61.52 181.74 61.52 181.742C61.52 181.745 61.52 181.747 61.52 181.749C61.52 181.752 61.52 181.754 61.52 181.756C61.52 181.759 61.52 181.761 61.52 181.763C61.52 181.766 61.52 181.768 61.52 181.77C61.52 181.773 61.52 181.775 61.52 181.777C61.52 181.78 61.52 181.782 61.52 181.785C61.52 181.787 61.52 181.789 61.52 181.792C61.52 181.794 61.52 181.796 61.52 181.799C61.52 181.801 61.52 181.803 61.52 181.806C61.52 181.808 61.52 181.81 61.52 181.813C61.52 181.815 61.52 181.817 61.52 181.82C61.52 181.822 61.52 181.824 61.52 181.827C61.52 181.829 61.52 181.831 61.52 181.834C61.52 181.836 61.52 181.838 61.52 181.841C61.52 181.843 61.52 181.845 61.52 181.848C61.52 181.85 61.52 181.852 61.52 181.855C61.52 181.857 61.52 181.86 61.52 181.862C61.52 181.864 61.52 181.867 61.52 181.869C61.52 181.871 61.52 181.874 61.52 181.876C61.52 181.878 61.52 181.881 61.52 181.883C61.52 181.885 61.52 181.888 61.52 181.89C61.52 181.892 61.52 181.895 61.52 181.897C61.52 181.899 61.52 181.902 61.52 181.904C61.52 181.906 61.52 181.909 61.52 181.911C61.52 181.913 61.52 181.916 61.52 181.918C61.52 181.92 61.52 181.923 61.52 181.925C61.52 181.927 61.52 181.93 61.52 181.932C61.52 181.935 61.52 181.937 61.52 181.939C61.52 181.942 61.52 181.944 61.52 181.946C61.52 181.949 61.52 181.951 61.52 181.953C61.52 181.956 61.52 181.958 61.52 181.96C61.52 181.963 61.52 181.965 61.52 181.967C61.52 181.97 61.52 181.972 61.52 181.974C61.52 181.977 61.52 181.979 61.52 181.981C61.52 181.984 61.52 181.986 61.52 181.988C61.52 181.991 61.52 181.993 61.52 181.995C61.52 181.998 61.52 182 61.52 182.002C61.52 182.005 61.52 182.007 61.52 182.01C61.52 182.012 61.52 182.014 61.52 182.017C61.52 182.019 61.52 182.021 61.52 182.024C61.52 182.026 61.52 182.028 61.52 182.031C61.52 182.033 61.52 182.035 61.52 182.038C61.52 182.04 61.52 182.042 61.52 182.045C61.52 182.047 61.52 182.049 61.52 182.052C61.52 182.054 61.52 182.056 61.52 182.059C61.52 182.061 61.52 182.063 61.52 182.066C61.52 182.068 61.52 182.07 61.52 182.073C61.52 182.075 61.52 182.077 61.52 182.08C61.52 182.082 61.52 182.085 61.52 182.087C61.52 182.089 61.52 182.092 61.52 182.094C61.52 182.096 61.52 182.099 61.52 182.101C61.52 182.103 61.52 182.106 61.52 182.108C61.52 182.11 61.52 182.113 61.52 182.115C61.52 182.117 61.52 182.12 61.52 182.122C61.52 182.124 61.52 182.127 61.52 182.129C61.52 182.131 61.52 182.134 61.52 182.136C61.52 182.138 61.52 182.141 61.52 182.143C61.52 182.145 61.52 182.148 61.52 182.15C61.52 182.152 61.52 182.155 61.52 182.157C61.52 182.16 61.52 182.162 61.52 182.164C61.52 182.167 61.52 182.169 61.52 182.171C61.52 182.174 61.52 182.176 61.52 182.178C61.52 182.181 61.52 182.183 61.52 182.185C61.52 182.188 61.52 182.19 61.52 182.192C61.52 182.195 61.52 182.197 61.52 182.199C61.52 182.202 61.52 182.204 61.52 182.206C61.52 182.209 61.52 182.211 61.52 182.213C61.52 182.216 61.52 182.218 61.52 182.22C61.52 182.223 61.52 182.225 61.52 182.227C61.52 182.23 61.52 182.232 61.52 182.235C61.52 182.237 61.52 182.239 61.52 182.242C61.52 182.244 61.52 182.246 61.52 182.249C61.52 182.251 61.52 182.253 61.52 182.256C61.52 182.258 61.52 182.26 61.52 182.263C61.52 182.265 61.52 182.267 61.52 182.27C61.52 182.272 61.52 182.274 61.52 182.277C61.52 182.279 61.52 182.281 61.52 182.284C61.52 182.286 61.52 182.288 61.52 182.291C61.52 182.293 61.52 182.295 61.52 182.298C61.52 182.3 61.52 182.302 61.52 182.305C61.52 182.307 61.52 182.31 61.52 182.312C61.52 182.314 61.52 182.317 61.52 182.319C61.52 182.321 61.52 182.324 61.52 182.326C61.52 182.328 61.52 182.331 61.52 182.333C61.52 182.335 61.52 182.338 61.52 182.34C61.52 182.342 61.52 182.345 61.52 182.347C61.52 182.349 61.52 182.352 61.52 182.354C61.52 182.356 61.52 182.359 61.52 182.361C61.52 182.363 61.52 182.366 61.52 182.368C61.52 182.37 61.52 182.373 61.52 182.375C61.52 182.377 61.52 182.38 61.52 182.382C61.52 182.385 61.52 182.387 61.52 182.389C61.52 182.392 61.52 182.394 61.52 182.396C61.52 182.399 61.52 182.401 61.52 182.403C61.52 182.406 61.52 182.408 61.52 182.41C61.52 182.413 61.52 182.415 61.52 182.417C61.52 182.42 61.52 182.422 61.52 182.424C61.52 182.427 61.52 182.429 61.52 182.431C61.52 182.434 61.52 182.436 61.52 182.438C61.52 182.441 61.52 182.443 61.52 182.445C61.52 182.448 61.52 182.45 61.52 182.452C61.52 182.455 61.52 182.457 61.52 182.46C61.52 182.462 61.52 182.464 61.52 182.467C61.52 182.469 61.52 182.471 61.52 182.474C61.52 182.476 61.52 182.478 61.52 182.481C61.52 182.483 61.52 182.485 61.52 182.488C61.52 182.49 61.52 182.492 61.52 182.495C61.52 182.497 61.52 182.499 61.52 182.502C61.52 182.504 61.52 182.506 61.52 182.509C61.52 182.511 61.52 182.513 61.52 182.516C61.52 182.518 61.52 182.52 61.52 182.523C61.52 182.525 61.52 182.527 61.52 182.53C61.52 182.532 61.52 182.535 61.52 182.537C61.52 182.539 61.52 182.542 61.52 182.544C61.52 182.546 61.52 182.549 61.52 182.551C61.52 182.553 61.52 182.556 61.52 182.558C61.52 182.56 61.52 182.563 61.52 182.565C61.52 182.567 61.52 182.57 61.52 182.572C61.52 182.574 61.52 182.577 61.52 182.579C61.52 182.581 61.52 182.584 61.52 182.586C61.52 182.588 61.52 182.591 61.52 182.593C61.52 182.595 61.52 182.598 61.52 182.6C61.52 182.602 61.52 182.605 61.52 182.607C61.52 182.61 61.52 182.612 61.52 182.614C61.52 182.617 61.52 182.619 61.52 182.621C61.52 182.624 61.52 182.626 61.52 182.628C61.52 182.631 61.52 182.633 61.52 182.635C61.52 182.638 61.52 182.64 61.52 182.642C61.52 182.645 61.52 182.647 61.52 182.649C61.52 182.652 61.52 182.654 61.52 182.656C61.52 182.659 61.52 182.661 61.52 182.663C61.52 182.666 61.52 182.668 61.52 182.67C61.52 182.673 61.52 182.675 61.52 182.677C61.52 182.68 61.52 182.682 61.52 182.685C61.52 182.687 61.52 182.689 61.52 182.692C61.52 182.694 61.52 182.696 61.52 182.699C61.52 182.701 61.52 182.703 61.52 182.706C61.52 182.708 61.52 182.71 61.52 182.713C61.52 182.715 61.52 182.717 61.52 182.72C61.52 182.722 61.52 182.724 61.52 182.727C61.52 182.729 61.52 182.731 61.52 182.734C61.52 182.736 61.52 182.738 61.52 182.741C61.52 182.743 61.52 182.745 61.52 182.748C61.52 182.75 61.52 182.752 61.52 182.755C61.52 182.757 61.52 182.76 61.52 182.762C61.52 182.764 61.52 182.767 61.52 182.769C61.52 182.771 61.52 182.774 61.52 182.776C61.52 182.778 61.52 182.781 61.52 182.783C61.52 182.785 61.52 182.788 61.52 182.79C61.52 182.792 61.52 182.795 61.52 182.797C61.52 182.799 61.52 182.802 61.52 182.804C61.52 182.806 61.52 182.809 61.52 182.811C61.52 182.813 61.52 182.816 61.52 182.818C61.52 182.82 61.52 182.823 61.52 182.825C61.52 182.827 61.52 182.83 61.52 182.832C61.52 182.835 61.52 182.837 61.52 182.839C61.52 182.842 61.52 182.844 61.52 182.846C61.52 182.849 61.52 182.851 61.52 182.853C61.52 182.856 61.52 182.858 61.52 182.86C61.52 182.863 61.52 182.865 61.52 182.867C61.52 182.87 61.52 182.872 61.52 182.874C61.52 182.877 61.52 182.879 61.52 182.881C61.52 182.884 61.52 182.886 61.52 182.888C61.52 182.891 61.52 182.893 61.52 182.895C61.52 182.898 61.52 182.9 61.52 182.902C61.52 182.905 61.52 182.907 61.52 182.91C61.52 182.912 61.52 182.914 61.52 182.917C61.52 182.919 61.52 182.921 61.52 182.924C61.52 182.926 61.52 182.928 61.52 182.931C61.52 182.933 61.52 182.935 61.52 182.938C61.52 182.94 61.52 182.942 61.52 182.945C61.52 182.947 61.52 182.949 61.52 182.952C61.52 182.954 61.52 182.956 61.52 182.959C61.52 182.961 61.52 182.963 61.52 182.966C61.52 182.968 61.52 182.97 61.52 182.973C61.52 182.975 61.52 182.977 61.52 182.98C61.52 182.982 61.52 182.985 61.52 182.987C61.52 182.989 61.52 182.992 61.52 182.994C61.52 182.996 61.52 182.999 61.52 183.001C61.52 183.003 61.52 183.006 61.52 183.008C61.52 183.01 61.52 183.013 61.52 183.015C61.52 183.017 61.52 183.02 61.52 183.022C61.52 183.024 61.52 183.027 61.52 183.029C61.52 183.031 61.52 183.034 61.52 183.036C61.52 183.038 61.52 183.041 61.52 183.043C61.52 183.045 61.52 183.048 61.52 183.05C61.52 183.052 61.52 183.055 61.52 183.057C61.52 183.06 61.52 183.062 61.52 183.064C61.52 183.067 61.52 183.069 61.52 183.071C61.52 183.074 61.52 183.076 61.52 183.078C61.52 183.081 61.52 183.083 61.52 183.085C61.52 183.088 61.52 183.09 61.52 183.092C61.52 183.095 61.52 183.097 61.52 183.099C61.52 183.102 61.52 183.104 61.52 183.106C61.52 183.109 61.52 183.111 61.52 183.113C61.52 183.116 61.52 183.118 61.52 183.12C61.52 183.123 61.52 183.125 61.52 183.127C61.52 183.13 61.52 183.132 61.52 183.135C61.52 183.137 61.52 183.139 61.52 183.142C61.52 183.144 61.52 183.146 61.52 183.149C61.52 183.151 61.52 183.153 61.52 183.156C61.52 183.158 61.52 183.16 61.52 183.163C61.52 183.165 61.52 183.167 61.52 183.17C61.52 183.172 61.52 183.174 61.52 183.177C61.52 183.179 61.52 183.181 61.52 183.184C61.52 183.186 61.52 183.188 61.52 183.191C61.52 183.193 61.52 183.195 61.52 183.198C61.52 183.2 61.52 183.202 61.52 183.205C61.52 183.207 61.52 183.21 61.52 183.212C61.52 183.214 61.52 183.217 61.52 183.219C61.52 183.221 61.52 183.224 61.52 183.226C61.52 183.228 61.52 183.231 61.52 183.233C61.52 183.235 61.52 183.238 61.52 183.24C61.52 183.242 61.52 183.245 61.52 183.247C61.52 183.249 61.52 183.252 61.52 183.254C61.52 183.256 61.52 183.259 61.52 183.261C61.52 183.263 61.52 183.266 61.52 183.268C61.52 183.27 61.52 183.273 61.52 183.275C61.52 183.277 61.52 183.28 61.52 183.282C61.52 183.285 61.52 183.287 61.52 183.289C61.52 183.292 61.52 183.294 61.52 183.296C61.52 183.299 61.52 183.301 61.52 183.303C61.52 183.306 61.52 183.308 61.52 183.31C61.52 183.313 61.52 183.315 61.52 183.317C61.52 183.32 61.52 183.322 61.52 183.324C61.52 183.327 61.52 183.329 61.52 183.331C61.52 183.334 61.52 183.336 61.52 183.338C61.52 183.341 61.52 183.343 61.52 183.345C61.52 183.348 61.52 183.35 61.52 183.352C61.52 183.355 61.52 183.357 61.52 183.36C61.52 183.362 61.52 183.364 61.52 183.367C61.52 183.369 61.52 183.371 61.52 183.374C61.52 183.376 61.52 183.378 61.52 183.381C61.52 183.383 61.52 183.385 61.52 183.388C61.52 183.39 61.52 183.392 61.52 183.395C61.52 183.397 61.52 183.399 61.52 183.402C61.52 183.404 61.52 183.406 61.52 183.409C61.52 183.411 61.52 183.413 61.52 183.416C61.52 183.418 61.52 183.42 61.52 183.423C61.52 183.425 61.52 183.427 61.52 183.43C61.52 183.432 61.52 183.435 61.52 183.437C61.52 183.439 61.52 183.442 61.52 183.444C61.52 183.446 61.52 183.449 61.52 183.451C61.52 183.453 61.52 183.456 61.52 183.458C61.52 183.46 61.52 183.463 61.52 183.465C61.52 183.467 61.52 183.47 61.52 183.472C61.52 183.474 61.52 183.477 61.52 183.479C61.52 183.481 61.52 183.484 61.52 183.486C61.52 183.488 61.52 183.491 61.52 183.493C61.52 183.495 61.52 183.498 61.52 183.5C61.52 183.502 61.52 183.505 61.52 183.507C61.52 183.51 61.52 183.512 61.52 183.514C61.52 183.517 61.52 183.519 61.52 183.521C61.52 183.524 61.52 183.526 61.52 183.528C61.52 183.531 61.52 183.533 61.52 183.535C61.52 183.538 61.52 183.54 61.52 183.542C61.52 183.545 61.52 183.547 61.52 183.549C61.52 183.552 61.52 183.554 61.52 183.556C61.52 183.559 61.52 183.561 61.52 183.563C61.52 183.566 61.52 183.568 61.52 183.57C61.52 183.573 61.52 183.575 61.52 183.577C61.52 183.58 61.52 183.582 61.52 183.585C61.52 183.587 61.52 183.589 61.52 183.592C61.52 183.594 61.52 183.596 61.52 183.599C61.52 183.601 61.52 183.603 61.52 183.606C61.52 183.608 61.52 183.61 61.52 183.613C61.52 183.615 61.52 183.617 61.52 183.62C61.52 183.622 61.52 183.624 61.52 183.627C61.52 183.629 61.52 183.631 61.52 183.634C61.52 183.636 61.52 183.638 61.52 183.641C61.52 183.643 61.52 183.645 61.52 183.648C61.52 183.65 61.52 183.652 61.52 183.655C61.52 183.657 61.52 183.66 61.52 183.662C61.52 183.664 61.52 183.667 61.52 183.669C61.52 183.671 61.52 183.674 61.52 183.676C61.52 183.678 61.52 183.681 61.52 183.683C61.52 183.685 61.52 183.688 61.52 183.69C61.52 183.692 61.52 183.695 61.52 183.697C61.52 183.699 61.52 183.702 61.52 183.704C61.52 183.706 61.52 183.709 61.52 183.711C61.52 183.713 61.52 183.716 61.52 183.718C61.52 183.72 61.52 183.723 61.52 183.725C61.52 183.727 61.52 183.73 61.52 183.732C61.52 183.735 61.52 183.737 61.52 183.739C61.52 183.742 61.52 183.744 61.52 183.746C61.52 183.749 61.52 183.751 61.52 183.753C61.52 183.756 61.52 183.758 61.52 183.76C61.52 183.763 61.52 183.765 61.52 183.767C61.52 183.77 61.52 183.772 61.52 183.774C61.52 183.777 61.52 183.779 61.52 183.781C61.52 183.784 61.52 183.786 61.52 183.788C61.52 183.791 61.52 183.793 61.52 183.795C61.52 183.798 61.52 183.8 61.52 183.802C61.52 183.805 61.52 183.807 61.52 183.81C61.52 183.812 61.52 183.814 61.52 183.817C61.52 183.819 61.52 183.821 61.52 183.824C61.52 183.826 61.52 183.828 61.52 183.831C61.52 183.833 61.52 183.835 61.52 183.838C61.52 183.84 61.52 183.842 61.52 183.845C61.52 183.847 61.52 183.849 61.52 183.852C61.52 183.854 61.52 183.856 61.52 183.859C61.52 183.861 61.52 183.863 61.52 183.866C61.52 183.868 61.52 183.87 61.52 183.873C61.52 183.875 61.52 183.877 61.52 183.88C61.52 183.882 61.52 183.885 61.52 183.887C61.52 183.889 61.52 183.892 61.52 183.894C61.52 183.896 61.52 183.899 61.52 183.901C61.52 183.903 61.52 183.906 61.52 183.908C61.52 183.91 61.52 183.913 61.52 183.915C61.52 183.917 61.52 183.92 61.52 183.922C61.52 183.924 61.52 183.927 61.52 183.929C61.52 183.931 61.52 183.934 61.52 183.936C61.52 183.938 61.52 183.941 61.52 183.943C61.52 183.945 61.52 183.948 61.52 183.95C61.52 183.952 61.52 183.955 61.52 183.957C61.52 183.96 61.52 183.962 61.52 183.964C61.52 183.967 61.52 183.969 61.52 183.971C61.52 183.974 61.52 183.976 61.52 183.978C61.52 183.981 61.52 183.983 61.52 183.985C61.52 183.988 61.52 183.99 61.52 183.992C61.52 183.995 61.52 183.997 61.52 183.999C61.52 184.002 61.52 184.004 61.52 184.006C61.52 184.009 61.52 184.011 61.52 184.013C61.52 184.016 61.52 184.018 61.52 184.02C61.52 184.023 61.52 184.025 61.52 184.027C61.52 184.03 61.52 184.032 61.52 184.035C61.52 184.037 61.52 184.039 61.52 184.042C61.52 184.044 61.52 184.046 61.52 184.049C61.52 184.051 61.52 184.053 61.52 184.056C61.52 184.058 61.52 184.06 61.52 184.063C61.52 184.065 61.52 184.067 61.52 184.07C61.52 184.072 61.52 184.074 61.52 184.077C61.52 184.079 61.52 184.081 61.52 184.084C61.52 184.086 61.52 184.088 61.52 184.091C61.52 184.093 61.52 184.095 61.52 184.098C61.52 184.1 61.52 184.102 61.52 184.105C61.52 184.107 61.52 184.11 61.52 184.112C61.52 184.114 61.52 184.117 61.52 184.119C61.52 184.121 61.52 184.124 61.52 184.126C61.52 184.128 61.52 184.131 61.52 184.133C61.52 184.135 61.52 184.138 61.52 184.14C61.52 184.142 61.52 184.145 61.52 184.147C61.52 184.149 61.52 184.152 61.52 184.154C61.52 184.156 61.52 184.159 61.52 184.161C61.52 184.163 61.52 184.166 61.52 184.168C61.52 184.17 61.52 184.173 61.52 184.175C61.52 184.177 61.52 184.18 61.52 184.182C61.52 184.185 61.52 184.187 61.52 184.189C61.52 184.192 61.52 184.194 61.52 184.196C61.52 184.199 61.52 184.201 61.52 184.203C61.52 184.206 61.52 184.208 61.52 184.21C61.52 184.213 61.52 184.215 61.52 184.217C61.52 184.22 61.52 184.222 61.52 184.224C61.52 184.227 61.52 184.229 61.52 184.231C61.52 184.234 61.52 184.236 61.52 184.238C61.52 184.241 61.52 184.243 61.52 184.245C61.52 184.248 61.52 184.25 61.52 184.252C61.52 184.255 61.52 184.257 61.52 184.26C61.52 184.262 61.52 184.264 61.52 184.267C61.52 184.269 61.52 184.271 61.52 184.274C61.52 184.276 61.52 184.278 61.52 184.281C61.52 184.283 61.52 184.285 61.52 184.288C61.52 184.29 61.52 184.292 61.52 184.295C61.52 184.297 61.52 184.299 61.52 184.302C61.52 184.304 61.52 184.306 61.52 184.309C61.52 184.311 61.52 184.313 61.52 184.316C61.52 184.318 61.52 184.32 61.52 184.323C61.52 184.325 61.52 184.327 61.52 184.33C61.52 184.332 61.52 184.335 61.52 184.337C61.52 184.339 61.52 184.342 61.52 184.344C61.52 184.346 61.52 184.349 61.52 184.351C61.52 184.353 61.52 184.356 61.52 184.358C61.52 184.36 61.52 184.363 61.52 184.365C61.52 184.367 61.52 184.37 61.52 184.372C61.52 184.374 61.52 184.377 61.52 184.379C61.52 184.381 61.52 184.384 61.52 184.386C61.52 184.388 61.52 184.391 61.52 184.393C61.52 184.395 61.52 184.398 61.52 184.4C61.52 184.402 61.52 184.405 61.52 184.407C61.52 184.41 61.52 184.412 61.52 184.414C61.52 184.417 61.52 184.419 61.52 184.421C61.52 184.424 61.52 184.426 61.52 184.428C61.52 184.431 61.52 184.433 61.52 184.435C61.52 184.438 61.52 184.44 61.52 184.442C61.52 184.445 61.52 184.447 61.52 184.449C61.52 184.452 61.52 184.454 61.52 184.456C61.52 184.459 61.52 184.461 61.52 184.463C61.52 184.466 61.52 184.468 61.52 184.47C61.52 184.473 61.52 184.475 61.52 184.477C61.52 184.48 61.52 184.482 61.52 184.485C61.52 184.487 61.52 184.489 61.52 184.492C61.52 184.494 61.52 184.496 61.52 184.499C61.52 184.501 61.52 184.503 61.52 184.506C61.52 184.508 61.52 184.51 61.52 184.513C61.52 184.515 61.52 184.517 61.52 184.52C61.52 184.522 61.52 184.524 61.52 184.527C61.52 184.529 61.52 184.531 61.52 184.534C61.52 184.536 61.52 184.538 61.52 184.541C61.52 184.543 61.52 184.545 61.52 184.548C61.52 184.55 61.52 184.552 61.52 184.555C61.52 184.557 61.52 184.56 61.52 184.562C61.52 184.564 61.52 184.567 61.52 184.569C61.52 184.571 61.52 184.574 61.52 184.576C61.52 184.578 61.52 184.581 61.52 184.583C61.52 184.585 61.52 184.588 61.52 184.59C61.52 184.592 61.52 184.595 61.52 184.597C61.52 184.599 61.52 184.602 61.52 184.604C61.52 184.606 61.52 184.609 61.52 184.611C61.52 184.613 61.52 184.616 61.52 184.618C61.52 184.62 61.52 184.623 61.52 184.625C61.52 184.627 61.52 184.63 61.52 184.632C61.52 184.635 61.52 184.637 61.52 184.639C61.52 184.642 61.52 184.644 61.52 184.646C61.52 184.649 61.52 184.651 61.52 184.653C61.52 184.656 61.52 184.658 61.52 184.66C61.52 184.663 61.52 184.665 61.52 184.667C61.52 184.67 61.52 184.672 61.52 184.674C61.52 184.677 61.52 184.679 61.52 184.681C61.52 184.684 61.52 184.686 61.52 184.688C61.52 184.691 61.52 184.693 61.52 184.695C61.52 184.698 61.52 184.7 61.52 184.702C61.52 184.705 61.52 184.707 61.52 184.71C61.52 184.712 61.52 184.714 61.52 184.717C61.52 184.719 61.52 184.721 61.52 184.724C61.52 184.726 61.52 184.728 61.52 184.731C61.52 184.733 61.52 184.735 61.52 184.738C61.52 184.74 61.52 184.742 61.52 184.745C61.52 184.747 61.52 184.749 61.52 184.752C61.52 184.754 61.52 184.756 61.52 184.759C61.52 184.761 61.52 184.763 61.52 184.766C61.52 184.768 61.52 184.77 61.52 184.773C61.52 184.775 61.52 184.777 61.52 184.78C61.52 184.782 61.52 184.785 61.52 184.787C61.52 184.789 61.52 184.792 61.52 184.794C61.52 184.796 61.52 184.799 61.52 184.801C61.52 184.803 61.52 184.806 61.52 184.808C61.52 184.81 61.52 184.813 61.52 184.815C61.52 184.817 61.52 184.82 61.52 184.822C61.52 184.824 61.52 184.827 61.52 184.829C61.52 184.831 61.52 184.834 61.52 184.836C61.52 184.838 61.52 184.841 61.52 184.843C61.52 184.845 61.52 184.848 61.52 184.85C61.52 184.852 61.52 184.855 61.52 184.857C61.52 184.86 61.52 184.862 61.52 184.864C61.52 184.867 61.52 184.869 61.52 184.871C61.52 184.874 61.52 184.876 61.52 184.878C61.52 184.881 61.52 184.883 61.52 184.885C61.52 184.888 61.52 184.89 61.52 184.892C61.52 184.895 61.52 184.897 61.52 184.899C61.52 184.902 61.52 184.904 61.52 184.906C61.52 184.909 61.52 184.911 61.52 184.913C61.52 184.916 61.52 184.918 61.52 184.92C61.52 184.923 61.52 184.925 61.52 184.927C61.52 184.93 61.52 184.932 61.52 184.935C61.52 184.937 61.52 184.939 61.52 184.942C61.52 184.944 61.52 184.946 61.52 184.949C61.52 184.951 61.52 184.953 61.52 184.956C61.52 184.958 61.52 184.96 61.52 184.963C61.52 184.965 61.52 184.967 61.52 184.97C61.52 184.972 61.52 184.974 61.52 184.977C61.52 184.979 61.52 184.981 61.52 184.984C61.52 184.986 61.52 184.988 61.52 184.991C61.52 184.993 61.52 184.995 61.52 184.998C61.52 185 61.52 185.002 61.52 185.005C61.52 185.007 61.52 185.01 61.52 185.012C61.52 185.014 61.52 185.017 61.52 185.019C61.52 185.021 61.52 185.024 61.52 185.026C61.52 185.028 61.52 185.031 61.52 185.033C61.52 185.035 61.52 185.038 61.52 185.04H69.52C69.52 185.038 69.52 185.035 69.52 185.033C69.52 185.031 69.52 185.028 69.52 185.026C69.52 185.024 69.52 185.021 69.52 185.019C69.52 185.017 69.52 185.014 69.52 185.012C69.52 185.01 69.52 185.007 69.52 185.005C69.52 185.002 69.52 185 69.52 184.998C69.52 184.995 69.52 184.993 69.52 184.991C69.52 184.988 69.52 184.986 69.52 184.984C69.52 184.981 69.52 184.979 69.52 184.977C69.52 184.974 69.52 184.972 69.52 184.97C69.52 184.967 69.52 184.965 69.52 184.963C69.52 184.96 69.52 184.958 69.52 184.956C69.52 184.953 69.52 184.951 69.52 184.949C69.52 184.946 69.52 184.944 69.52 184.942C69.52 184.939 69.52 184.937 69.52 184.935C69.52 184.932 69.52 184.93 69.52 184.927C69.52 184.925 69.52 184.923 69.52 184.92C69.52 184.918 69.52 184.916 69.52 184.913C69.52 184.911 69.52 184.909 69.52 184.906C69.52 184.904 69.52 184.902 69.52 184.899C69.52 184.897 69.52 184.895 69.52 184.892C69.52 184.89 69.52 184.888 69.52 184.885C69.52 184.883 69.52 184.881 69.52 184.878C69.52 184.876 69.52 184.874 69.52 184.871C69.52 184.869 69.52 184.867 69.52 184.864C69.52 184.862 69.52 184.86 69.52 184.857C69.52 184.855 69.52 184.852 69.52 184.85C69.52 184.848 69.52 184.845 69.52 184.843C69.52 184.841 69.52 184.838 69.52 184.836C69.52 184.834 69.52 184.831 69.52 184.829C69.52 184.827 69.52 184.824 69.52 184.822C69.52 184.82 69.52 184.817 69.52 184.815C69.52 184.813 69.52 184.81 69.52 184.808C69.52 184.806 69.52 184.803 69.52 184.801C69.52 184.799 69.52 184.796 69.52 184.794C69.52 184.792 69.52 184.789 69.52 184.787C69.52 184.785 69.52 184.782 69.52 184.78C69.52 184.777 69.52 184.775 69.52 184.773C69.52 184.77 69.52 184.768 69.52 184.766C69.52 184.763 69.52 184.761 69.52 184.759C69.52 184.756 69.52 184.754 69.52 184.752C69.52 184.749 69.52 184.747 69.52 184.745C69.52 184.742 69.52 184.74 69.52 184.738C69.52 184.735 69.52 184.733 69.52 184.731C69.52 184.728 69.52 184.726 69.52 184.724C69.52 184.721 69.52 184.719 69.52 184.717C69.52 184.714 69.52 184.712 69.52 184.71C69.52 184.707 69.52 184.705 69.52 184.702C69.52 184.7 69.52 184.698 69.52 184.695C69.52 184.693 69.52 184.691 69.52 184.688C69.52 184.686 69.52 184.684 69.52 184.681C69.52 184.679 69.52 184.677 69.52 184.674C69.52 184.672 69.52 184.67 69.52 184.667C69.52 184.665 69.52 184.663 69.52 184.66C69.52 184.658 69.52 184.656 69.52 184.653C69.52 184.651 69.52 184.649 69.52 184.646C69.52 184.644 69.52 184.642 69.52 184.639C69.52 184.637 69.52 184.635 69.52 184.632C69.52 184.63 69.52 184.627 69.52 184.625C69.52 184.623 69.52 184.62 69.52 184.618C69.52 184.616 69.52 184.613 69.52 184.611C69.52 184.609 69.52 184.606 69.52 184.604C69.52 184.602 69.52 184.599 69.52 184.597C69.52 184.595 69.52 184.592 69.52 184.59C69.52 184.588 69.52 184.585 69.52 184.583C69.52 184.581 69.52 184.578 69.52 184.576C69.52 184.574 69.52 184.571 69.52 184.569C69.52 184.567 69.52 184.564 69.52 184.562C69.52 184.56 69.52 184.557 69.52 184.555C69.52 184.552 69.52 184.55 69.52 184.548C69.52 184.545 69.52 184.543 69.52 184.541C69.52 184.538 69.52 184.536 69.52 184.534C69.52 184.531 69.52 184.529 69.52 184.527C69.52 184.524 69.52 184.522 69.52 184.52C69.52 184.517 69.52 184.515 69.52 184.513C69.52 184.51 69.52 184.508 69.52 184.506C69.52 184.503 69.52 184.501 69.52 184.499C69.52 184.496 69.52 184.494 69.52 184.492C69.52 184.489 69.52 184.487 69.52 184.485C69.52 184.482 69.52 184.48 69.52 184.477C69.52 184.475 69.52 184.473 69.52 184.47C69.52 184.468 69.52 184.466 69.52 184.463C69.52 184.461 69.52 184.459 69.52 184.456C69.52 184.454 69.52 184.452 69.52 184.449C69.52 184.447 69.52 184.445 69.52 184.442C69.52 184.44 69.52 184.438 69.52 184.435C69.52 184.433 69.52 184.431 69.52 184.428C69.52 184.426 69.52 184.424 69.52 184.421C69.52 184.419 69.52 184.417 69.52 184.414C69.52 184.412 69.52 184.41 69.52 184.407C69.52 184.405 69.52 184.402 69.52 184.4C69.52 184.398 69.52 184.395 69.52 184.393C69.52 184.391 69.52 184.388 69.52 184.386C69.52 184.384 69.52 184.381 69.52 184.379C69.52 184.377 69.52 184.374 69.52 184.372C69.52 184.37 69.52 184.367 69.52 184.365C69.52 184.363 69.52 184.36 69.52 184.358C69.52 184.356 69.52 184.353 69.52 184.351C69.52 184.349 69.52 184.346 69.52 184.344C69.52 184.342 69.52 184.339 69.52 184.337C69.52 184.335 69.52 184.332 69.52 184.33C69.52 184.327 69.52 184.325 69.52 184.323C69.52 184.32 69.52 184.318 69.52 184.316C69.52 184.313 69.52 184.311 69.52 184.309C69.52 184.306 69.52 184.304 69.52 184.302C69.52 184.299 69.52 184.297 69.52 184.295C69.52 184.292 69.52 184.29 69.52 184.288C69.52 184.285 69.52 184.283 69.52 184.281C69.52 184.278 69.52 184.276 69.52 184.274C69.52 184.271 69.52 184.269 69.52 184.267C69.52 184.264 69.52 184.262 69.52 184.26C69.52 184.257 69.52 184.255 69.52 184.252C69.52 184.25 69.52 184.248 69.52 184.245C69.52 184.243 69.52 184.241 69.52 184.238C69.52 184.236 69.52 184.234 69.52 184.231C69.52 184.229 69.52 184.227 69.52 184.224C69.52 184.222 69.52 184.22 69.52 184.217C69.52 184.215 69.52 184.213 69.52 184.21C69.52 184.208 69.52 184.206 69.52 184.203C69.52 184.201 69.52 184.199 69.52 184.196C69.52 184.194 69.52 184.192 69.52 184.189C69.52 184.187 69.52 184.185 69.52 184.182C69.52 184.18 69.52 184.177 69.52 184.175C69.52 184.173 69.52 184.17 69.52 184.168C69.52 184.166 69.52 184.163 69.52 184.161C69.52 184.159 69.52 184.156 69.52 184.154C69.52 184.152 69.52 184.149 69.52 184.147C69.52 184.145 69.52 184.142 69.52 184.14C69.52 184.138 69.52 184.135 69.52 184.133C69.52 184.131 69.52 184.128 69.52 184.126C69.52 184.124 69.52 184.121 69.52 184.119C69.52 184.117 69.52 184.114 69.52 184.112C69.52 184.11 69.52 184.107 69.52 184.105C69.52 184.102 69.52 184.1 69.52 184.098C69.52 184.095 69.52 184.093 69.52 184.091C69.52 184.088 69.52 184.086 69.52 184.084C69.52 184.081 69.52 184.079 69.52 184.077C69.52 184.074 69.52 184.072 69.52 184.07C69.52 184.067 69.52 184.065 69.52 184.063C69.52 184.06 69.52 184.058 69.52 184.056C69.52 184.053 69.52 184.051 69.52 184.049C69.52 184.046 69.52 184.044 69.52 184.042C69.52 184.039 69.52 184.037 69.52 184.035C69.52 184.032 69.52 184.03 69.52 184.027C69.52 184.025 69.52 184.023 69.52 184.02C69.52 184.018 69.52 184.016 69.52 184.013C69.52 184.011 69.52 184.009 69.52 184.006C69.52 184.004 69.52 184.002 69.52 183.999C69.52 183.997 69.52 183.995 69.52 183.992C69.52 183.99 69.52 183.988 69.52 183.985C69.52 183.983 69.52 183.981 69.52 183.978C69.52 183.976 69.52 183.974 69.52 183.971C69.52 183.969 69.52 183.967 69.52 183.964C69.52 183.962 69.52 183.96 69.52 183.957C69.52 183.955 69.52 183.952 69.52 183.95C69.52 183.948 69.52 183.945 69.52 183.943C69.52 183.941 69.52 183.938 69.52 183.936C69.52 183.934 69.52 183.931 69.52 183.929C69.52 183.927 69.52 183.924 69.52 183.922C69.52 183.92 69.52 183.917 69.52 183.915C69.52 183.913 69.52 183.91 69.52 183.908C69.52 183.906 69.52 183.903 69.52 183.901C69.52 183.899 69.52 183.896 69.52 183.894C69.52 183.892 69.52 183.889 69.52 183.887C69.52 183.885 69.52 183.882 69.52 183.88C69.52 183.877 69.52 183.875 69.52 183.873C69.52 183.87 69.52 183.868 69.52 183.866C69.52 183.863 69.52 183.861 69.52 183.859C69.52 183.856 69.52 183.854 69.52 183.852C69.52 183.849 69.52 183.847 69.52 183.845C69.52 183.842 69.52 183.84 69.52 183.838C69.52 183.835 69.52 183.833 69.52 183.831C69.52 183.828 69.52 183.826 69.52 183.824C69.52 183.821 69.52 183.819 69.52 183.817C69.52 183.814 69.52 183.812 69.52 183.81C69.52 183.807 69.52 183.805 69.52 183.802C69.52 183.8 69.52 183.798 69.52 183.795C69.52 183.793 69.52 183.791 69.52 183.788C69.52 183.786 69.52 183.784 69.52 183.781C69.52 183.779 69.52 183.777 69.52 183.774C69.52 183.772 69.52 183.77 69.52 183.767C69.52 183.765 69.52 183.763 69.52 183.76C69.52 183.758 69.52 183.756 69.52 183.753C69.52 183.751 69.52 183.749 69.52 183.746C69.52 183.744 69.52 183.742 69.52 183.739C69.52 183.737 69.52 183.735 69.52 183.732C69.52 183.73 69.52 183.727 69.52 183.725C69.52 183.723 69.52 183.72 69.52 183.718C69.52 183.716 69.52 183.713 69.52 183.711C69.52 183.709 69.52 183.706 69.52 183.704C69.52 183.702 69.52 183.699 69.52 183.697C69.52 183.695 69.52 183.692 69.52 183.69C69.52 183.688 69.52 183.685 69.52 183.683C69.52 183.681 69.52 183.678 69.52 183.676C69.52 183.674 69.52 183.671 69.52 183.669C69.52 183.667 69.52 183.664 69.52 183.662C69.52 183.66 69.52 183.657 69.52 183.655C69.52 183.652 69.52 183.65 69.52 183.648C69.52 183.645 69.52 183.643 69.52 183.641C69.52 183.638 69.52 183.636 69.52 183.634C69.52 183.631 69.52 183.629 69.52 183.627C69.52 183.624 69.52 183.622 69.52 183.62C69.52 183.617 69.52 183.615 69.52 183.613C69.52 183.61 69.52 183.608 69.52 183.606C69.52 183.603 69.52 183.601 69.52 183.599C69.52 183.596 69.52 183.594 69.52 183.592C69.52 183.589 69.52 183.587 69.52 183.585C69.52 183.582 69.52 183.58 69.52 183.577C69.52 183.575 69.52 183.573 69.52 183.57C69.52 183.568 69.52 183.566 69.52 183.563C69.52 183.561 69.52 183.559 69.52 183.556C69.52 183.554 69.52 183.552 69.52 183.549C69.52 183.547 69.52 183.545 69.52 183.542C69.52 183.54 69.52 183.538 69.52 183.535C69.52 183.533 69.52 183.531 69.52 183.528C69.52 183.526 69.52 183.524 69.52 183.521C69.52 183.519 69.52 183.517 69.52 183.514C69.52 183.512 69.52 183.51 69.52 183.507C69.52 183.505 69.52 183.502 69.52 183.5C69.52 183.498 69.52 183.495 69.52 183.493C69.52 183.491 69.52 183.488 69.52 183.486C69.52 183.484 69.52 183.481 69.52 183.479C69.52 183.477 69.52 183.474 69.52 183.472C69.52 183.47 69.52 183.467 69.52 183.465C69.52 183.463 69.52 183.46 69.52 183.458C69.52 183.456 69.52 183.453 69.52 183.451C69.52 183.449 69.52 183.446 69.52 183.444C69.52 183.442 69.52 183.439 69.52 183.437C69.52 183.435 69.52 183.432 69.52 183.43C69.52 183.427 69.52 183.425 69.52 183.423C69.52 183.42 69.52 183.418 69.52 183.416C69.52 183.413 69.52 183.411 69.52 183.409C69.52 183.406 69.52 183.404 69.52 183.402C69.52 183.399 69.52 183.397 69.52 183.395C69.52 183.392 69.52 183.39 69.52 183.388C69.52 183.385 69.52 183.383 69.52 183.381C69.52 183.378 69.52 183.376 69.52 183.374C69.52 183.371 69.52 183.369 69.52 183.367C69.52 183.364 69.52 183.362 69.52 183.36C69.52 183.357 69.52 183.355 69.52 183.352C69.52 183.35 69.52 183.348 69.52 183.345C69.52 183.343 69.52 183.341 69.52 183.338C69.52 183.336 69.52 183.334 69.52 183.331C69.52 183.329 69.52 183.327 69.52 183.324C69.52 183.322 69.52 183.32 69.52 183.317C69.52 183.315 69.52 183.313 69.52 183.31C69.52 183.308 69.52 183.306 69.52 183.303C69.52 183.301 69.52 183.299 69.52 183.296C69.52 183.294 69.52 183.292 69.52 183.289C69.52 183.287 69.52 183.285 69.52 183.282C69.52 183.28 69.52 183.277 69.52 183.275C69.52 183.273 69.52 183.27 69.52 183.268C69.52 183.266 69.52 183.263 69.52 183.261C69.52 183.259 69.52 183.256 69.52 183.254C69.52 183.252 69.52 183.249 69.52 183.247C69.52 183.245 69.52 183.242 69.52 183.24C69.52 183.238 69.52 183.235 69.52 183.233C69.52 183.231 69.52 183.228 69.52 183.226C69.52 183.224 69.52 183.221 69.52 183.219C69.52 183.217 69.52 183.214 69.52 183.212C69.52 183.21 69.52 183.207 69.52 183.205C69.52 183.202 69.52 183.2 69.52 183.198C69.52 183.195 69.52 183.193 69.52 183.191C69.52 183.188 69.52 183.186 69.52 183.184C69.52 183.181 69.52 183.179 69.52 183.177C69.52 183.174 69.52 183.172 69.52 183.17C69.52 183.167 69.52 183.165 69.52 183.163C69.52 183.16 69.52 183.158 69.52 183.156C69.52 183.153 69.52 183.151 69.52 183.149C69.52 183.146 69.52 183.144 69.52 183.142C69.52 183.139 69.52 183.137 69.52 183.135C69.52 183.132 69.52 183.13 69.52 183.127C69.52 183.125 69.52 183.123 69.52 183.12C69.52 183.118 69.52 183.116 69.52 183.113C69.52 183.111 69.52 183.109 69.52 183.106C69.52 183.104 69.52 183.102 69.52 183.099C69.52 183.097 69.52 183.095 69.52 183.092C69.52 183.09 69.52 183.088 69.52 183.085C69.52 183.083 69.52 183.081 69.52 183.078C69.52 183.076 69.52 183.074 69.52 183.071C69.52 183.069 69.52 183.067 69.52 183.064C69.52 183.062 69.52 183.06 69.52 183.057C69.52 183.055 69.52 183.052 69.52 183.05C69.52 183.048 69.52 183.045 69.52 183.043C69.52 183.041 69.52 183.038 69.52 183.036C69.52 183.034 69.52 183.031 69.52 183.029C69.52 183.027 69.52 183.024 69.52 183.022C69.52 183.02 69.52 183.017 69.52 183.015C69.52 183.013 69.52 183.01 69.52 183.008C69.52 183.006 69.52 183.003 69.52 183.001C69.52 182.999 69.52 182.996 69.52 182.994C69.52 182.992 69.52 182.989 69.52 182.987C69.52 182.985 69.52 182.982 69.52 182.98C69.52 182.977 69.52 182.975 69.52 182.973C69.52 182.97 69.52 182.968 69.52 182.966C69.52 182.963 69.52 182.961 69.52 182.959C69.52 182.956 69.52 182.954 69.52 182.952C69.52 182.949 69.52 182.947 69.52 182.945C69.52 182.942 69.52 182.94 69.52 182.938C69.52 182.935 69.52 182.933 69.52 182.931C69.52 182.928 69.52 182.926 69.52 182.924C69.52 182.921 69.52 182.919 69.52 182.917C69.52 182.914 69.52 182.912 69.52 182.91C69.52 182.907 69.52 182.905 69.52 182.902C69.52 182.9 69.52 182.898 69.52 182.895C69.52 182.893 69.52 182.891 69.52 182.888C69.52 182.886 69.52 182.884 69.52 182.881C69.52 182.879 69.52 182.877 69.52 182.874C69.52 182.872 69.52 182.87 69.52 182.867C69.52 182.865 69.52 182.863 69.52 182.86C69.52 182.858 69.52 182.856 69.52 182.853C69.52 182.851 69.52 182.849 69.52 182.846C69.52 182.844 69.52 182.842 69.52 182.839C69.52 182.837 69.52 182.835 69.52 182.832C69.52 182.83 69.52 182.827 69.52 182.825C69.52 182.823 69.52 182.82 69.52 182.818C69.52 182.816 69.52 182.813 69.52 182.811C69.52 182.809 69.52 182.806 69.52 182.804C69.52 182.802 69.52 182.799 69.52 182.797C69.52 182.795 69.52 182.792 69.52 182.79C69.52 182.788 69.52 182.785 69.52 182.783C69.52 182.781 69.52 182.778 69.52 182.776C69.52 182.774 69.52 182.771 69.52 182.769C69.52 182.767 69.52 182.764 69.52 182.762C69.52 182.76 69.52 182.757 69.52 182.755C69.52 182.752 69.52 182.75 69.52 182.748C69.52 182.745 69.52 182.743 69.52 182.741C69.52 182.738 69.52 182.736 69.52 182.734C69.52 182.731 69.52 182.729 69.52 182.727C69.52 182.724 69.52 182.722 69.52 182.72C69.52 182.717 69.52 182.715 69.52 182.713C69.52 182.71 69.52 182.708 69.52 182.706C69.52 182.703 69.52 182.701 69.52 182.699C69.52 182.696 69.52 182.694 69.52 182.692C69.52 182.689 69.52 182.687 69.52 182.685C69.52 182.682 69.52 182.68 69.52 182.677C69.52 182.675 69.52 182.673 69.52 182.67C69.52 182.668 69.52 182.666 69.52 182.663C69.52 182.661 69.52 182.659 69.52 182.656C69.52 182.654 69.52 182.652 69.52 182.649C69.52 182.647 69.52 182.645 69.52 182.642C69.52 182.64 69.52 182.638 69.52 182.635C69.52 182.633 69.52 182.631 69.52 182.628C69.52 182.626 69.52 182.624 69.52 182.621C69.52 182.619 69.52 182.617 69.52 182.614C69.52 182.612 69.52 182.61 69.52 182.607C69.52 182.605 69.52 182.602 69.52 182.6C69.52 182.598 69.52 182.595 69.52 182.593C69.52 182.591 69.52 182.588 69.52 182.586C69.52 182.584 69.52 182.581 69.52 182.579C69.52 182.577 69.52 182.574 69.52 182.572C69.52 182.57 69.52 182.567 69.52 182.565C69.52 182.563 69.52 182.56 69.52 182.558C69.52 182.556 69.52 182.553 69.52 182.551C69.52 182.549 69.52 182.546 69.52 182.544C69.52 182.542 69.52 182.539 69.52 182.537C69.52 182.535 69.52 182.532 69.52 182.53C69.52 182.527 69.52 182.525 69.52 182.523C69.52 182.52 69.52 182.518 69.52 182.516C69.52 182.513 69.52 182.511 69.52 182.509C69.52 182.506 69.52 182.504 69.52 182.502C69.52 182.499 69.52 182.497 69.52 182.495C69.52 182.492 69.52 182.49 69.52 182.488C69.52 182.485 69.52 182.483 69.52 182.481C69.52 182.478 69.52 182.476 69.52 182.474C69.52 182.471 69.52 182.469 69.52 182.467C69.52 182.464 69.52 182.462 69.52 182.46C69.52 182.457 69.52 182.455 69.52 182.452C69.52 182.45 69.52 182.448 69.52 182.445C69.52 182.443 69.52 182.441 69.52 182.438C69.52 182.436 69.52 182.434 69.52 182.431C69.52 182.429 69.52 182.427 69.52 182.424C69.52 182.422 69.52 182.42 69.52 182.417C69.52 182.415 69.52 182.413 69.52 182.41C69.52 182.408 69.52 182.406 69.52 182.403C69.52 182.401 69.52 182.399 69.52 182.396C69.52 182.394 69.52 182.392 69.52 182.389C69.52 182.387 69.52 182.385 69.52 182.382C69.52 182.38 69.52 182.377 69.52 182.375C69.52 182.373 69.52 182.37 69.52 182.368C69.52 182.366 69.52 182.363 69.52 182.361C69.52 182.359 69.52 182.356 69.52 182.354C69.52 182.352 69.52 182.349 69.52 182.347C69.52 182.345 69.52 182.342 69.52 182.34C69.52 182.338 69.52 182.335 69.52 182.333C69.52 182.331 69.52 182.328 69.52 182.326C69.52 182.324 69.52 182.321 69.52 182.319C69.52 182.317 69.52 182.314 69.52 182.312C69.52 182.31 69.52 182.307 69.52 182.305C69.52 182.302 69.52 182.3 69.52 182.298C69.52 182.295 69.52 182.293 69.52 182.291C69.52 182.288 69.52 182.286 69.52 182.284C69.52 182.281 69.52 182.279 69.52 182.277C69.52 182.274 69.52 182.272 69.52 182.27C69.52 182.267 69.52 182.265 69.52 182.263C69.52 182.26 69.52 182.258 69.52 182.256C69.52 182.253 69.52 182.251 69.52 182.249C69.52 182.246 69.52 182.244 69.52 182.242C69.52 182.239 69.52 182.237 69.52 182.235C69.52 182.232 69.52 182.23 69.52 182.227C69.52 182.225 69.52 182.223 69.52 182.22C69.52 182.218 69.52 182.216 69.52 182.213C69.52 182.211 69.52 182.209 69.52 182.206C69.52 182.204 69.52 182.202 69.52 182.199C69.52 182.197 69.52 182.195 69.52 182.192C69.52 182.19 69.52 182.188 69.52 182.185C69.52 182.183 69.52 182.181 69.52 182.178C69.52 182.176 69.52 182.174 69.52 182.171C69.52 182.169 69.52 182.167 69.52 182.164C69.52 182.162 69.52 182.16 69.52 182.157C69.52 182.155 69.52 182.152 69.52 182.15C69.52 182.148 69.52 182.145 69.52 182.143C69.52 182.141 69.52 182.138 69.52 182.136C69.52 182.134 69.52 182.131 69.52 182.129C69.52 182.127 69.52 182.124 69.52 182.122C69.52 182.12 69.52 182.117 69.52 182.115C69.52 182.113 69.52 182.11 69.52 182.108C69.52 182.106 69.52 182.103 69.52 182.101C69.52 182.099 69.52 182.096 69.52 182.094C69.52 182.092 69.52 182.089 69.52 182.087C69.52 182.085 69.52 182.082 69.52 182.08C69.52 182.077 69.52 182.075 69.52 182.073C69.52 182.07 69.52 182.068 69.52 182.066C69.52 182.063 69.52 182.061 69.52 182.059C69.52 182.056 69.52 182.054 69.52 182.052C69.52 182.049 69.52 182.047 69.52 182.045C69.52 182.042 69.52 182.04 69.52 182.038C69.52 182.035 69.52 182.033 69.52 182.031C69.52 182.028 69.52 182.026 69.52 182.024C69.52 182.021 69.52 182.019 69.52 182.017C69.52 182.014 69.52 182.012 69.52 182.01C69.52 182.007 69.52 182.005 69.52 182.002C69.52 182 69.52 181.998 69.52 181.995C69.52 181.993 69.52 181.991 69.52 181.988C69.52 181.986 69.52 181.984 69.52 181.981C69.52 181.979 69.52 181.977 69.52 181.974C69.52 181.972 69.52 181.97 69.52 181.967C69.52 181.965 69.52 181.963 69.52 181.96C69.52 181.958 69.52 181.956 69.52 181.953C69.52 181.951 69.52 181.949 69.52 181.946C69.52 181.944 69.52 181.942 69.52 181.939C69.52 181.937 69.52 181.935 69.52 181.932C69.52 181.93 69.52 181.927 69.52 181.925C69.52 181.923 69.52 181.92 69.52 181.918C69.52 181.916 69.52 181.913 69.52 181.911C69.52 181.909 69.52 181.906 69.52 181.904C69.52 181.902 69.52 181.899 69.52 181.897C69.52 181.895 69.52 181.892 69.52 181.89C69.52 181.888 69.52 181.885 69.52 181.883C69.52 181.881 69.52 181.878 69.52 181.876C69.52 181.874 69.52 181.871 69.52 181.869C69.52 181.867 69.52 181.864 69.52 181.862C69.52 181.86 69.52 181.857 69.52 181.855C69.52 181.852 69.52 181.85 69.52 181.848C69.52 181.845 69.52 181.843 69.52 181.841C69.52 181.838 69.52 181.836 69.52 181.834C69.52 181.831 69.52 181.829 69.52 181.827C69.52 181.824 69.52 181.822 69.52 181.82C69.52 181.817 69.52 181.815 69.52 181.813C69.52 181.81 69.52 181.808 69.52 181.806C69.52 181.803 69.52 181.801 69.52 181.799C69.52 181.796 69.52 181.794 69.52 181.792C69.52 181.789 69.52 181.787 69.52 181.785C69.52 181.782 69.52 181.78 69.52 181.777C69.52 181.775 69.52 181.773 69.52 181.77C69.52 181.768 69.52 181.766 69.52 181.763C69.52 181.761 69.52 181.759 69.52 181.756C69.52 181.754 69.52 181.752 69.52 181.749C69.52 181.747 69.52 181.745 69.52 181.742C69.52 181.74 69.52 181.738 69.52 181.735C69.52 181.733 69.52 181.731 69.52 181.728C69.52 181.726 69.52 181.724 69.52 181.721C69.52 181.719 69.52 181.717 69.52 181.714C69.52 181.712 69.52 181.71 69.52 181.707C69.52 181.705 69.52 181.702 69.52 181.7C69.52 181.698 69.52 181.695 69.52 181.693C69.52 181.691 69.52 181.688 69.52 181.686C69.52 181.684 69.52 181.681 69.52 181.679C69.52 181.677 69.52 181.674 69.52 181.672C69.52 181.67 69.52 181.667 69.52 181.665C69.52 181.663 69.52 181.66 69.52 181.658C69.52 181.656 69.52 181.653 69.52 181.651C69.52 181.649 69.52 181.646 69.52 181.644C69.52 181.642 69.52 181.639 69.52 181.637C69.52 181.635 69.52 181.632 69.52 181.63C69.52 181.627 69.52 181.625 69.52 181.623C69.52 181.62 69.52 181.618 69.52 181.616C69.52 181.613 69.52 181.611 69.52 181.609C69.52 181.606 69.52 181.604 69.52 181.602C69.52 181.599 69.52 181.597 69.52 181.595C69.52 181.592 69.52 181.59 69.52 181.588C69.52 181.585 69.52 181.583 69.52 181.581C69.52 181.578 69.52 181.576 69.52 181.574C69.52 181.571 69.52 181.569 69.52 181.567C69.52 181.564 69.52 181.562 69.52 181.56C69.52 181.557 69.52 181.555 69.52 181.552C69.52 181.55 69.52 181.548 69.52 181.545C69.52 181.543 69.52 181.541 69.52 181.538C69.52 181.536 69.52 181.534 69.52 181.531C69.52 181.529 69.52 181.527 69.52 181.524C69.52 181.522 69.52 181.52 69.52 181.517C69.52 181.515 69.52 181.513 69.52 181.51C69.52 181.508 69.52 181.506 69.52 181.503C69.52 181.501 69.52 181.499 69.52 181.496C69.52 181.494 69.52 181.492 69.52 181.489C69.52 181.487 69.52 181.485 69.52 181.482C69.52 181.48 69.52 181.477 69.52 181.475C69.52 181.473 69.52 181.47 69.52 181.468C69.52 181.466 69.52 181.463 69.52 181.461C69.52 181.459 69.52 181.456 69.52 181.454C69.52 181.452 69.52 181.449 69.52 181.447C69.52 181.445 69.52 181.442 69.52 181.44H61.52ZM61.52 185.04C61.52 193.513 65.016 200.311 71.9412 204.928L76.3788 198.272C71.784 195.209 69.52 190.967 69.52 185.04H61.52ZM72.102 205.03C78.9514 209.14 87.9169 211 98.64 211V203C88.7231 203 81.3686 201.26 76.218 198.17L72.102 205.03ZM98.64 211C108.205 211 116.629 209.365 123.775 205.924L120.305 198.716C114.491 201.515 107.315 203 98.64 203V211ZM123.829 205.898C131.153 202.235 136.815 197.17 140.615 190.655L133.705 186.625C130.785 191.63 126.367 195.685 120.251 198.742L123.829 205.898ZM140.59 190.698C144.599 184.017 146.56 176.452 146.56 168.12H138.56C138.56 175.148 136.921 181.263 133.73 186.582L140.59 190.698ZM146.56 168.12C146.56 163.017 145.486 158.457 143.008 154.741L136.352 159.179C137.714 161.223 138.56 164.103 138.56 168.12H146.56ZM143.202 155.064C141.079 151.12 137.859 148.228 133.696 146.443L130.544 153.797C133.101 154.892 134.921 156.56 136.158 158.856L143.202 155.064ZM133.796 146.488C130.061 144.764 125.872 143.96 121.32 143.96V151.96C124.928 151.96 127.939 152.596 130.444 153.752L133.796 146.488ZM121.32 143.96H95.04V151.96H121.32V143.96ZM98.9775 148.664L106.898 104.384L99.0225 102.976L91.1025 147.256L98.9775 148.664ZM102.96 107.68H123.48V99.68H102.96V107.68ZM123.48 107.68C128.251 107.68 132.722 106.883 136.846 105.234L133.874 97.8061C130.798 99.0367 127.349 99.68 123.48 99.68V107.68ZM136.963 105.185C141.204 103.329 144.875 100.902 147.908 97.8684L142.252 92.2116C140.005 94.4583 137.196 96.3509 133.757 97.8554L136.963 105.185ZM147.908 97.8684C151.195 94.5818 153.666 90.7353 155.305 86.3645L147.815 83.5555C146.574 86.8647 144.725 89.7382 142.252 92.2116L147.908 97.8684ZM155.305 86.3645C156.923 82.0518 157.72 77.4938 157.72 72.72H149.72C149.72 76.5862 149.077 80.1882 147.815 83.5555L155.305 86.3645ZM157.72 72.72C157.72 67.6982 156.453 63.0949 153.845 59.037L147.115 63.363C148.827 66.0251 149.72 69.1018 149.72 72.72H157.72ZM154.009 59.3176C151.666 54.9237 148.041 51.5073 143.352 49.0248L139.608 56.0951C143.079 57.9326 145.454 60.2763 146.951 63.0823L154.009 59.3176ZM143.352 49.0248C138.51 46.4614 132.524 45.32 125.64 45.32V53.32C131.716 53.32 136.29 54.3386 139.608 56.0951L143.352 49.0248ZM125.64 45.32C118.497 45.32 112.061 46.4677 106.424 48.8834L109.576 56.2366C114.019 54.3323 119.343 53.32 125.64 53.32V45.32ZM106.424 48.8834C100.912 51.2457 96.3093 54.4587 92.7372 58.5803L98.7828 63.8197C101.451 60.7413 105.008 58.1943 109.576 56.2366L106.424 48.8834ZM92.7372 58.5803C89.2166 62.6426 86.8502 67.195 85.7353 72.2123L93.5448 73.9477C94.3498 70.325 96.0634 66.9574 98.7828 63.8197L92.7372 58.5803ZM85.7177 72.2955L84.9977 75.8955L92.8423 77.4645L93.5623 73.8645L85.7177 72.2955ZM88.92 72.68H28.44V80.68H88.92V72.68ZM32.3898 77.312L33.8298 68.312L25.9302 67.048L24.4902 76.048L32.3898 77.312ZM33.8335 68.2882C35.6341 56.5844 40.5764 45.9872 48.757 36.4432L42.683 31.2368C33.5836 41.8528 27.9659 53.8156 25.9265 67.0718L33.8335 68.2882ZM48.752 36.449C57.1357 26.7058 68.5599 18.8857 83.1954 13.078L80.2446 5.64203C64.6402 11.8343 52.0644 20.3341 42.688 31.231L48.752 36.449ZM83.246 13.0575C97.7587 7.06812 115.451 3.99998 136.44 3.99998V-4.00002C114.709 -4.00002 95.9214 -0.828144 80.1941 5.6625L83.246 13.0575ZM136.44 3.99998C155.051 3.99998 170.596 6.59443 183.194 11.6339L186.166 4.20608C172.364 -1.31446 155.749 -4.00002 136.44 -4.00002V3.99998ZM183.276 11.6653C196.213 16.5168 205.733 23.1032 212.132 31.2675L218.428 26.3325C210.907 16.7368 200.027 9.40321 186.085 4.17467L183.276 11.6653ZM212.173 31.3192C218.79 39.4808 222.08 48.7896 222.08 59.4H230.08C230.08 46.9704 226.17 35.8792 218.387 26.2808L212.173 31.3192ZM222.08 59.4C222.08 68.631 220.059 77.2572 216.022 85.3311L223.178 88.9088C227.781 79.7028 230.08 69.849 230.08 59.4H222.08ZM215.983 85.412C212.147 93.5361 206.863 100.387 200.119 106.007L205.241 112.153C212.897 105.773 218.893 97.9838 223.217 88.828L215.983 85.412ZM200.068 106.05C193.502 111.711 186.299 115.754 178.441 118.224L180.839 125.856C189.781 123.046 197.938 118.449 205.292 112.11L200.068 106.05ZM175.759 121.07L175.399 122.51L183.161 124.45L183.521 123.01L175.759 121.07ZM177.838 127.211C187.702 131.022 195.171 136.888 200.432 144.779L207.088 140.341C200.829 130.952 191.978 124.098 180.722 119.749L177.838 127.211ZM200.505 144.885C205.955 152.515 208.76 161.753 208.76 172.8H216.76C216.76 160.327 213.565 149.405 207.015 140.235L200.505 144.885ZM208.76 172.8C208.76 190.234 203.85 204.659 194.197 216.331L200.363 221.429C211.351 208.141 216.76 191.846 216.76 172.8H208.76ZM194.222 216.302C184.417 227.93 171.113 236.928 154.132 243.208L156.908 250.712C174.967 244.032 189.503 234.31 200.338 221.458L194.222 216.302ZM154.178 243.192C137.148 249.257 118.17 252.32 97.2 252.32V260.32C118.95 260.32 138.852 257.143 156.862 250.728L154.178 243.192Z" fill="url(#paint1_linear_154_376)" mask="url(#path-1-outside-1_154_376)"/>
<defs>
<linearGradient id="paint0_linear_154_376" x1="-9" y1="98.5" x2="232" y2="98.5" gradientUnits="userSpaceOnUse">
<stop stop-color="#6A11CB"/>
<stop offset="1" stop-color="#2575FC"/>
<stop offset="1" stop-color="#2575FC"/>
</linearGradient>
<linearGradient id="paint1_linear_154_376" x1="-9" y1="98.5" x2="232" y2="98.5" gradientUnits="userSpaceOnUse">
<stop stop-color="#6A11CB"/>
<stop offset="1" stop-color="#2575FC"/>
</linearGradient>
</defs>
</svg>
