<svg width="221" height="257" viewBox="0 0 221 257" fill="none" xmlns="http://www.w3.org/2000/svg">
<mask id="path-1-outside-1_154_379" maskUnits="userSpaceOnUse" x="-4" y="-4" width="229" height="265" fill="black">
<rect fill="white" x="-4" y="-4" width="229" height="265"/>
<path d="M93.56 256.32C73.4 256.32 56.36 253.08 42.44 246.6C28.76 240.12 18.32 230.4 11.12 217.44C4.16 204.24 0.680001 187.8 0.680001 168.12C0.680001 162.6 0.920001 156.72 1.4 150.48C2.12 144.24 3.08 137.76 4.28 131.04C10.04 98.88 18.2 73.32 28.76 54.36C39.56 35.16 53.36 21.36 70.16 12.96C87.2 4.31998 107.72 -1.71661e-05 131.72 -1.71661e-05C149.24 -1.71661e-05 164.72 2.51999 178.16 7.55999C191.6 12.6 202.04 20.16 209.48 30.24C217.16 40.08 221 52.44 221 67.32C221 69.72 220.88 72.36 220.64 75.24C220.4 77.88 220.04 80.64 219.56 83.52H155.48C155.72 81.84 155.84 80.28 155.84 78.84C156.08 77.4 156.2 76.08 156.2 74.88C156.2 66 153.68 59.4 148.64 55.08C143.6 50.76 136.64 48.6 127.76 48.6C118.16 48.6 110.36 50.76 104.36 55.08C98.36 59.4 93.56 66.36 89.96 75.96C86.36 85.32 83.24 97.56 80.6 112.68C85.16 108.84 90.32 105.6 96.08 102.96C101.84 100.08 107.96 97.92 114.44 96.48C120.92 94.8 127.4 93.96 133.88 93.96C148.76 93.96 161.96 96.48 173.48 101.52C185.24 106.56 194.48 113.88 201.2 123.48C208.16 132.84 211.64 144.48 211.64 158.4C211.64 173.52 208.76 187.2 203 199.44C197.24 211.44 189.08 221.76 178.52 230.4C168.2 238.8 155.72 245.28 141.08 249.84C126.68 254.16 110.84 256.32 93.56 256.32ZM98.6 207.72C104.12 207.72 109.16 207 113.72 205.56C118.28 203.88 122.24 201.84 125.6 199.44C130.64 195.6 134.48 190.68 137.12 184.68C139.76 178.44 141.08 171.6 141.08 164.16C141.08 158.4 140 153.48 137.84 149.4C135.68 145.32 132.32 142.32 127.76 140.4C123.44 138.24 118.04 137.16 111.56 137.16C105.56 137.16 100.04 138.12 95 140.04C90.2 141.72 86 144.24 82.4 147.6C78.08 151.44 74.72 156.24 72.32 162C70.16 167.76 69.08 174.24 69.08 181.44C69.08 186.96 70.16 191.76 72.32 195.84C74.48 199.68 77.72 202.68 82.04 204.84C86.6 206.76 92.12 207.72 98.6 207.72Z"/>
</mask>
<path d="M93.56 256.32C73.4 256.32 56.36 253.08 42.44 246.6C28.76 240.12 18.32 230.4 11.12 217.44C4.16 204.24 0.680001 187.8 0.680001 168.12C0.680001 162.6 0.920001 156.72 1.4 150.48C2.12 144.24 3.08 137.76 4.28 131.04C10.04 98.88 18.2 73.32 28.76 54.36C39.56 35.16 53.36 21.36 70.16 12.96C87.2 4.31998 107.72 -1.71661e-05 131.72 -1.71661e-05C149.24 -1.71661e-05 164.72 2.51999 178.16 7.55999C191.6 12.6 202.04 20.16 209.48 30.24C217.16 40.08 221 52.44 221 67.32C221 69.72 220.88 72.36 220.64 75.24C220.4 77.88 220.04 80.64 219.56 83.52H155.48C155.72 81.84 155.84 80.28 155.84 78.84C156.08 77.4 156.2 76.08 156.2 74.88C156.2 66 153.68 59.4 148.64 55.08C143.6 50.76 136.64 48.6 127.76 48.6C118.16 48.6 110.36 50.76 104.36 55.08C98.36 59.4 93.56 66.36 89.96 75.96C86.36 85.32 83.24 97.56 80.6 112.68C85.16 108.84 90.32 105.6 96.08 102.96C101.84 100.08 107.96 97.92 114.44 96.48C120.92 94.8 127.4 93.96 133.88 93.96C148.76 93.96 161.96 96.48 173.48 101.52C185.24 106.56 194.48 113.88 201.2 123.48C208.16 132.84 211.64 144.48 211.64 158.4C211.64 173.52 208.76 187.2 203 199.44C197.24 211.44 189.08 221.76 178.52 230.4C168.2 238.8 155.72 245.28 141.08 249.84C126.68 254.16 110.84 256.32 93.56 256.32ZM98.6 207.72C104.12 207.72 109.16 207 113.72 205.56C118.28 203.88 122.24 201.84 125.6 199.44C130.64 195.6 134.48 190.68 137.12 184.68C139.76 178.44 141.08 171.6 141.08 164.16C141.08 158.4 140 153.48 137.84 149.4C135.68 145.32 132.32 142.32 127.76 140.4C123.44 138.24 118.04 137.16 111.56 137.16C105.56 137.16 100.04 138.12 95 140.04C90.2 141.72 86 144.24 82.4 147.6C78.08 151.44 74.72 156.24 72.32 162C70.16 167.76 69.08 174.24 69.08 181.44C69.08 186.96 70.16 191.76 72.32 195.84C74.48 199.68 77.72 202.68 82.04 204.84C86.6 206.76 92.12 207.72 98.6 207.72Z" fill="url(#paint0_linear_154_379)"/>
<path d="M42.44 246.6L40.7277 250.215L40.7398 250.221L40.7519 250.226L42.44 246.6ZM11.12 217.44L7.58172 219.306L7.60213 219.344L7.62337 219.383L11.12 217.44ZM1.4 150.48L-2.57363 150.022L-2.58237 150.097L-2.58822 150.173L1.4 150.48ZM4.28 131.04L0.342653 130.335L0.34229 130.337L4.28 131.04ZM28.76 54.36L25.2737 52.3989L25.2696 52.4063L25.2655 52.4137L28.76 54.36ZM70.16 12.96L71.9489 16.5377L71.9589 16.5327L71.9689 16.5276L70.16 12.96ZM178.16 7.55999L176.756 11.3053L176.756 11.3053L178.16 7.55999ZM209.48 30.24L206.262 32.6154L206.294 32.6587L206.327 32.7011L209.48 30.24ZM220.64 75.24L224.624 75.6021L224.625 75.5872L224.626 75.5722L220.64 75.24ZM219.56 83.52V87.52H222.949L223.506 84.1776L219.56 83.52ZM155.48 83.52L151.52 82.9543L150.868 87.52H155.48V83.52ZM155.84 78.84L151.894 78.1824L151.84 78.5089V78.84H155.84ZM148.64 55.08L151.243 52.043L151.243 52.043L148.64 55.08ZM104.36 55.08L102.023 51.8338L102.023 51.8338L104.36 55.08ZM89.96 75.96L93.6934 77.3959L93.6994 77.3802L93.7053 77.3645L89.96 75.96ZM80.6 112.68L76.6596 111.992L74.7691 122.82L83.1766 115.74L80.6 112.68ZM96.08 102.96L97.7466 106.596L97.8082 106.568L97.8689 106.538L96.08 102.96ZM114.44 96.48L115.308 100.385L115.376 100.37L115.444 100.352L114.44 96.48ZM173.48 101.52L171.877 105.185L171.891 105.191L171.904 105.197L173.48 101.52ZM201.2 123.48L197.923 125.774L197.956 125.821L197.99 125.867L201.2 123.48ZM203 199.44L206.606 201.171L206.613 201.157L206.619 201.143L203 199.44ZM178.52 230.4L181.045 233.502L181.053 233.496L178.52 230.4ZM141.08 249.84L142.229 253.671L142.25 253.665L142.27 253.659L141.08 249.84ZM113.72 205.56L114.925 209.374L115.014 209.346L115.103 209.313L113.72 205.56ZM125.6 199.44L127.925 202.695L127.975 202.659L128.024 202.622L125.6 199.44ZM137.12 184.68L140.781 186.291L140.793 186.265L140.804 186.239L137.12 184.68ZM137.84 149.4L141.375 147.528L141.375 147.528L137.84 149.4ZM127.76 140.4L125.971 143.978L126.088 144.036L126.208 144.087L127.76 140.4ZM95 140.04L96.3214 143.815L96.373 143.797L96.424 143.778L95 140.04ZM82.4 147.6L85.0575 150.59L85.0938 150.557L85.1293 150.524L82.4 147.6ZM72.32 162L68.6277 160.462L68.6 160.528L68.5747 160.596L72.32 162ZM72.32 195.84L68.7849 197.712L68.8087 197.757L68.8337 197.801L72.32 195.84ZM82.04 204.84L80.2511 208.418L80.3677 208.476L80.4878 208.527L82.04 204.84ZM93.56 252.32C73.8086 252.32 57.3812 249.143 44.1281 242.974L40.7519 250.226C55.3389 257.017 72.9914 260.32 93.56 260.32V252.32ZM44.1524 242.985C31.2101 236.855 21.402 227.711 14.6166 215.497L7.62337 219.383C15.238 233.089 26.3099 243.385 40.7277 250.215L44.1524 242.985ZM14.6583 215.574C8.08268 203.103 4.68 187.35 4.68 168.12H-3.32C-3.32 188.25 0.237326 205.377 7.58172 219.306L14.6583 215.574ZM4.68 168.12C4.68 162.715 4.91505 156.938 5.38822 150.787L-2.58822 150.173C-3.07505 156.502 -3.32 162.485 -3.32 168.12H4.68ZM5.37364 150.938C6.08342 144.787 7.03097 138.389 8.21771 131.743L0.34229 130.337C-0.870973 137.131 -1.84341 143.693 -2.57363 150.022L5.37364 150.938ZM8.21735 131.745C13.9347 99.8232 21.9894 74.7369 32.2545 56.3063L25.2655 52.4137C14.4106 71.9031 6.14529 97.9367 0.342654 130.335L8.21735 131.745ZM32.2463 56.321C42.7239 37.6942 55.9802 24.522 71.9489 16.5377L68.3711 9.38228C50.7398 18.1979 36.3961 32.6258 25.2737 52.3989L32.2463 56.321ZM71.9689 16.5276C88.3231 8.23531 108.191 3.99998 131.72 3.99998V-4.00002C107.249 -4.00002 86.0769 0.404654 68.3511 9.39239L71.9689 16.5276ZM131.72 3.99998C148.863 3.99998 163.851 6.46629 176.756 11.3053L179.565 3.81468C165.589 -1.42632 149.617 -4.00002 131.72 -4.00002V3.99998ZM176.756 11.3053C189.58 16.1143 199.345 23.2448 206.262 32.6154L212.698 27.8646C204.735 17.0752 193.62 9.08567 179.564 3.81468L176.756 11.3053ZM206.327 32.7011C213.358 41.7099 217 53.1544 217 67.32H225C225 51.7256 220.962 38.45 212.633 27.7789L206.327 32.7011ZM217 67.32C217 69.5895 216.886 72.1169 216.654 74.9078L224.626 75.5722C224.874 72.6031 225 69.8505 225 67.32H217ZM216.656 74.8778C216.426 77.4096 216.08 80.0707 215.614 82.8624L223.506 84.1776C224 81.2093 224.374 78.3504 224.624 75.6021L216.656 74.8778ZM219.56 79.52H155.48V87.52H219.56V79.52ZM159.44 84.0857C159.702 82.2504 159.84 80.4991 159.84 78.84H151.84C151.84 80.0609 151.738 81.4296 151.52 82.9543L159.44 84.0857ZM159.786 79.4976C160.054 77.885 160.2 76.3415 160.2 74.88H152.2C152.2 75.8185 152.106 76.9149 151.894 78.1824L159.786 79.4976ZM160.2 74.88C160.2 65.2496 157.444 57.3579 151.243 52.043L146.037 58.117C149.916 61.4421 152.2 66.7504 152.2 74.88H160.2ZM151.243 52.043C145.264 46.9183 137.269 44.6 127.76 44.6V52.6C136.011 52.6 141.936 54.6017 146.037 58.117L151.243 52.043ZM127.76 44.6C117.571 44.6 108.881 46.8956 102.023 51.8338L106.697 58.3261C111.839 54.6244 118.749 52.6 127.76 52.6V44.6ZM102.023 51.8338C95.1783 56.7619 89.9883 64.4925 86.2147 74.5555L93.7053 77.3645C97.1317 68.2275 101.542 62.0381 106.697 58.3261L102.023 51.8338ZM86.2266 74.5241C82.4984 84.2175 79.3234 96.7357 76.6596 111.992L84.5404 113.368C87.1566 98.3843 90.2216 86.4224 93.6934 77.3959L86.2266 74.5241ZM83.1766 115.74C87.4438 112.146 92.294 109.095 97.7466 106.596L94.4134 99.3237C88.346 102.105 82.8762 105.534 78.0235 109.62L83.1766 115.74ZM97.8689 106.538C103.327 103.808 109.137 101.756 115.308 100.385L113.572 92.5752C106.783 94.084 100.353 96.3516 94.2911 99.3823L97.8689 106.538ZM115.444 100.352C121.607 98.7542 127.75 97.96 133.88 97.96V89.96C127.05 89.96 120.233 90.8458 113.436 92.608L115.444 100.352ZM133.88 97.96C148.308 97.96 160.946 100.403 171.877 105.185L175.083 97.8554C162.974 92.5574 149.212 89.96 133.88 89.96V97.96ZM171.904 105.197C183.045 109.971 191.669 116.84 197.923 125.774L204.477 121.186C197.291 110.92 187.435 103.149 175.056 97.8434L171.904 105.197ZM197.99 125.867C204.344 134.411 207.64 145.169 207.64 158.4H215.64C215.64 143.791 211.976 131.269 204.41 121.093L197.99 125.867ZM207.64 158.4C207.64 173.001 204.862 186.089 199.381 197.737L206.619 201.143C212.658 188.311 215.64 174.039 215.64 158.4H207.64ZM199.394 197.709C193.894 209.168 186.105 219.026 175.987 227.304L181.053 233.496C192.055 224.494 200.586 213.712 206.606 201.171L199.394 197.709ZM175.995 227.298C166.126 235.331 154.117 241.59 139.89 246.021L142.27 253.659C157.323 248.97 170.274 242.269 181.045 233.502L175.995 227.298ZM139.931 246.009C125.954 250.202 110.508 252.32 93.56 252.32V260.32C111.172 260.32 127.406 258.118 142.229 253.671L139.931 246.009ZM98.6 211.72C104.467 211.72 109.92 210.955 114.925 209.374L112.515 201.746C108.4 203.045 103.773 203.72 98.6 203.72V211.72ZM115.103 209.313C119.94 207.531 124.229 205.335 127.925 202.695L123.275 196.185C120.251 198.345 116.62 200.229 112.337 201.807L115.103 209.313ZM128.024 202.622C133.622 198.357 137.878 192.889 140.781 186.291L133.459 183.069C131.082 188.471 127.658 192.843 123.176 196.258L128.024 202.622ZM140.804 186.239C143.672 179.459 145.08 172.083 145.08 164.16H137.08C137.08 171.117 135.848 177.421 133.436 183.121L140.804 186.239ZM145.08 164.16C145.08 157.906 143.907 152.311 141.375 147.528L134.305 151.272C136.093 154.649 137.08 158.894 137.08 164.16H145.08ZM141.375 147.528C138.751 142.572 134.657 138.964 129.312 136.713L126.208 144.087C129.983 145.676 132.609 148.068 134.305 151.272L141.375 147.528ZM129.549 136.822C124.517 134.306 118.459 133.16 111.56 133.16V141.16C117.621 141.16 122.363 142.174 125.971 143.978L129.549 136.822ZM111.56 133.16C105.128 133.16 99.1191 134.19 93.576 136.302L96.424 143.778C100.961 142.05 105.992 141.16 111.56 141.16V133.16ZM93.6786 136.265C88.3729 138.122 83.6893 140.925 79.6707 144.676L85.1293 150.524C88.3107 147.555 92.0271 145.318 96.3214 143.815L93.6786 136.265ZM79.7426 144.61C74.9378 148.881 71.2404 154.191 68.6277 160.462L76.0123 163.538C78.1997 158.289 81.2222 153.999 85.0575 150.59L79.7426 144.61ZM68.5747 160.596C66.2202 166.874 65.08 173.841 65.08 181.44H73.08C73.08 174.639 74.0998 168.646 76.0653 163.404L68.5747 160.596ZM65.08 181.44C65.08 187.485 66.2652 192.952 68.7849 197.712L75.8552 193.968C74.0548 190.568 73.08 186.435 73.08 181.44H65.08ZM68.8337 197.801C71.423 202.404 75.2884 205.936 80.2511 208.418L83.8289 201.262C80.1516 199.424 77.537 196.956 75.8063 193.879L68.8337 197.801ZM80.4878 208.527C85.6658 210.707 91.744 211.72 98.6 211.72V203.72C92.496 203.72 87.5343 202.813 83.5922 201.153L80.4878 208.527Z" fill="url(#paint1_linear_154_379)" mask="url(#path-1-outside-1_154_379)"/>
<defs>
<linearGradient id="paint0_linear_154_379" x1="-13" y1="132" x2="228" y2="132" gradientUnits="userSpaceOnUse">
<stop stop-color="#6A11CB"/>
<stop offset="1" stop-color="#2575FC"/>
<stop offset="1" stop-color="#2575FC"/>
</linearGradient>
<linearGradient id="paint1_linear_154_379" x1="-13" y1="132" x2="228" y2="132" gradientUnits="userSpaceOnUse">
<stop stop-color="#6A11CB"/>
<stop offset="1" stop-color="#2575FC"/>
</linearGradient>
</defs>
</svg>
