<svg width="465" height="277" viewBox="0 0 465 257" fill="none" xmlns="http://www.w3.org/2000/svg">
<mask id="path-1-outside-1_121_409" maskUnits="userSpaceOnUse" x="-4" y="-4" width="473" height="265" fill="black">
<rect fill="white" x="-4" y="-4" width="473" height="300"/>
<path d="M0.88 252L10.6 196.56H69.28L89.08 84.6H30.4L37.96 42.84C46.36 42.36 55.48 40.92 65.32 38.52C75.16 36.12 85.12 33.12 95.2 29.52C105.52 25.92 115.36 21.96 124.72 17.64C134.32 13.08 143.08 8.51999 151 3.96H175.12L140.92 196.56H197.44L187.72 252H0.88ZM335.317 256.32C313.477 256.32 295.837 252.72 282.397 245.52C269.197 238.32 259.597 228.12 253.597 214.92C247.837 201.72 244.957 186.24 244.957 168.48C244.957 164.16 245.077 159.72 245.317 155.16C245.797 150.36 246.277 145.56 246.757 140.76C247.477 135.96 248.317 131.04 249.277 126C252.877 106.8 257.557 89.52 263.317 74.16C269.317 58.56 276.997 45.24 286.357 34.2C295.957 23.16 307.837 14.76 321.997 9C336.397 2.99999 353.797 -1.71661e-05 374.197 -1.71661e-05C396.277 -1.71661e-05 413.797 3.59999 426.757 10.8C439.957 17.76 449.437 27.72 455.197 40.68C461.197 53.64 464.197 68.88 464.197 86.4C464.197 90.72 463.957 95.28 463.477 100.08C463.237 104.64 462.757 109.44 462.037 114.48C461.557 119.28 460.837 124.2 459.877 129.24C456.277 148.44 451.477 165.84 445.477 181.44C439.717 197.04 432.157 210.48 422.797 221.76C413.437 232.8 401.677 241.32 387.517 247.32C373.357 253.32 355.957 256.32 335.317 256.32ZM340.717 207.72C348.397 207.72 354.757 206.28 359.797 203.4C364.837 200.28 369.037 195.12 372.397 187.92C375.997 180.72 379.237 170.76 382.117 158.04C384.997 145.32 388.237 129.36 391.837 110.16C392.317 107.28 392.797 104.52 393.277 101.88C393.757 99 394.117 96.36 394.357 93.96C394.597 91.32 394.717 88.92 394.717 86.76C394.957 84.36 395.077 82.2 395.077 80.28C395.077 69 392.917 60.96 388.597 56.16C384.517 51.12 377.917 48.6 368.797 48.6C360.877 48.6 354.397 50.16 349.357 53.28C344.317 56.16 339.997 61.32 336.397 68.76C333.037 75.96 329.797 85.8 326.677 98.28C323.797 110.76 320.557 126.6 316.957 145.8C316.477 148.68 315.997 151.44 315.517 154.08C315.277 156.72 315.037 159.24 314.797 161.64C314.557 164.04 314.317 166.44 314.077 168.84C314.077 171 314.077 173.04 314.077 174.96C314.077 186.24 316.117 194.52 320.197 199.8C324.517 205.08 331.357 207.72 340.717 207.72Z"/>
</mask>
<path d="M0.88 252L-3.0599 251.309L-3.88231 256H0.88V252ZM10.6 196.56V192.56H7.24029L6.6601 195.869L10.6 196.56ZM69.28 196.56V200.56H72.6347L73.2189 197.257L69.28 196.56ZM89.08 84.6L93.0189 85.2966L93.8495 80.6H89.08V84.6ZM30.4 84.6L26.464 83.8874L25.6108 88.6H30.4V84.6ZM37.96 42.84L37.7318 38.8465L34.5854 39.0263L34.024 42.1274L37.96 42.84ZM65.32 38.52L64.3722 34.6339V34.6339L65.32 38.52ZM95.2 29.52L93.8825 25.7432L93.8686 25.7481L93.8547 25.753L95.2 29.52ZM124.72 17.64L126.396 21.2718L126.416 21.2626L126.436 21.2531L124.72 17.64ZM151 3.96V-0.0400047H149.931L149.004 0.493507L151 3.96ZM175.12 3.96L179.058 4.65934L179.893 -0.0400047H175.12V3.96ZM140.92 196.56L136.982 195.861L136.147 200.56H140.92V196.56ZM197.44 196.56L201.38 197.251L202.202 192.56H197.44V196.56ZM187.72 252V256H191.08L191.66 252.691L187.72 252ZM4.8199 252.691L14.5399 197.251L6.6601 195.869L-3.0599 251.309L4.8199 252.691ZM10.6 200.56H69.28V192.56H10.6V200.56ZM73.2189 197.257L93.0189 85.2966L85.1411 83.9034L65.3411 195.863L73.2189 197.257ZM89.08 80.6H30.4V88.6H89.08V80.6ZM34.336 85.3125L41.896 43.5525L34.024 42.1274L26.464 83.8874L34.336 85.3125ZM38.1882 46.8335C46.8739 46.3372 56.2377 44.8524 66.2678 42.4061L64.3722 34.6339C54.7223 36.9875 45.8461 38.3828 37.7318 38.8465L38.1882 46.8335ZM66.2678 42.4061C76.2496 39.9715 86.3423 36.9309 96.5453 33.287L93.8547 25.753C83.8977 29.3091 74.0704 32.2685 64.3722 34.6339L66.2678 42.4061ZM96.5175 33.2968C106.952 29.6568 116.912 25.649 126.396 21.2718L123.044 14.0082C113.808 18.271 104.088 22.1832 93.8825 25.7432L96.5175 33.2968ZM126.436 21.2531C136.116 16.655 144.971 12.0466 152.996 7.42648L149.004 0.493507C141.189 4.99335 132.524 9.50499 123.004 14.0269L126.436 21.2531ZM151 7.96H175.12V-0.0400047H151V7.96ZM171.182 3.26066L136.982 195.861L144.858 197.259L179.058 4.65934L171.182 3.26066ZM140.92 200.56H197.44V192.56H140.92V200.56ZM193.5 195.869L183.78 251.309L191.66 252.691L201.38 197.251L193.5 195.869ZM187.72 248H0.88V256H187.72V248ZM282.397 245.52L280.482 249.032L280.495 249.039L280.508 249.046L282.397 245.52ZM253.597 214.92L249.931 216.52L249.943 216.548L249.956 216.575L253.597 214.92ZM245.317 155.16L241.337 154.762L241.328 154.856L241.323 154.95L245.317 155.16ZM246.757 140.76L242.801 140.167L242.787 140.264L242.777 140.362L246.757 140.76ZM249.277 126L253.207 126.748L253.209 126.737L249.277 126ZM263.317 74.16L259.584 72.7241L259.578 72.7398L259.572 72.7555L263.317 74.16ZM286.357 34.2L283.339 31.5753L283.322 31.5942L283.306 31.6133L286.357 34.2ZM321.997 8.99999L323.504 12.7052L323.52 12.6988L323.536 12.6923L321.997 8.99999ZM426.757 10.8L424.815 14.2966L424.853 14.3179L424.892 14.3383L426.757 10.8ZM455.197 40.68L451.542 42.3046L451.554 42.3326L451.567 42.3605L455.197 40.68ZM463.477 100.08L459.497 99.682L459.488 99.7757L459.483 99.8698L463.477 100.08ZM462.037 114.48L458.077 113.914L458.065 113.998L458.057 114.082L462.037 114.48ZM459.877 129.24L455.948 128.492L455.946 128.503L459.877 129.24ZM445.477 181.44L441.744 180.004L441.734 180.029L441.725 180.055L445.477 181.44ZM422.797 221.76L425.848 224.347L425.862 224.331L425.875 224.314L422.797 221.76ZM387.517 247.32L389.078 251.003L387.517 247.32ZM359.797 203.4L361.782 206.873L361.843 206.838L361.903 206.801L359.797 203.4ZM372.397 187.92L368.819 186.131L368.795 186.179L368.772 186.228L372.397 187.92ZM391.837 110.16L395.769 110.897L395.776 110.857L395.783 110.818L391.837 110.16ZM393.277 101.88L397.213 102.596L397.218 102.567L397.223 102.538L393.277 101.88ZM394.357 93.96L398.337 94.358L398.339 94.3401L398.341 94.3221L394.357 93.96ZM394.717 86.76L390.737 86.362L390.717 86.5605V86.76H394.717ZM388.597 56.16L385.488 58.6768L385.554 58.7581L385.624 58.8359L388.597 56.16ZM349.357 53.28L351.342 56.753L351.403 56.7181L351.463 56.681L349.357 53.28ZM336.397 68.76L332.797 67.0178L332.784 67.043L332.772 67.0685L336.397 68.76ZM326.677 98.28L322.797 97.3099L322.788 97.3451L322.78 97.3806L326.677 98.28ZM316.957 145.8L313.026 145.063L313.018 145.103L313.012 145.142L316.957 145.8ZM315.517 154.08L311.582 153.364L311.55 153.54L311.534 153.718L315.517 154.08ZM314.797 161.64L310.817 161.242V161.242L314.797 161.64ZM314.077 168.84L310.097 168.442L310.077 168.64V168.84H314.077ZM320.197 199.8L317.032 202.246L317.066 202.29L317.101 202.333L320.197 199.8ZM335.317 252.32C313.869 252.32 296.948 248.777 284.286 241.994L280.508 249.046C294.726 256.663 313.085 260.32 335.317 260.32V252.32ZM284.313 242.008C271.844 235.207 262.866 225.644 257.239 213.265L249.956 216.575C256.329 230.596 266.551 241.433 280.482 249.032L284.313 242.008ZM257.263 213.32C251.769 200.728 248.957 185.814 248.957 168.48H240.957C240.957 186.666 243.906 202.712 249.931 216.52L257.263 213.32ZM248.957 168.48C248.957 164.234 249.075 159.864 249.312 155.37L241.323 154.95C241.079 159.576 240.957 164.086 240.957 168.48H248.957ZM249.297 155.558C249.777 150.758 250.257 145.958 250.737 141.158L242.777 140.362C242.297 145.162 241.817 149.962 241.337 154.762L249.297 155.558ZM250.713 141.353C251.425 136.608 252.256 131.74 253.207 126.748L245.348 125.252C244.379 130.34 243.53 135.312 242.801 140.167L250.713 141.353ZM253.209 126.737C256.774 107.723 261.397 90.6716 267.062 75.5645L259.572 72.7555C253.717 88.3684 248.981 105.877 245.346 125.263L253.209 126.737ZM267.051 75.5959C272.914 60.3514 280.38 47.4357 289.408 36.7867L283.306 31.6133C273.615 43.0443 265.721 56.7686 259.584 72.7241L267.051 75.5959ZM289.376 36.8247C298.545 26.2799 309.899 18.2396 323.504 12.7052L320.49 5.29482C305.775 11.2804 293.369 20.0401 283.339 31.5753L289.376 36.8247ZM323.536 12.6923C337.323 6.94746 354.171 3.99998 374.197 3.99998V-4.00002C353.424 -4.00002 335.471 -0.947483 320.459 5.30769L323.536 12.6923ZM374.197 3.99998C395.905 3.99998 412.67 7.54948 424.815 14.2966L428.7 7.30337C414.925 -0.34951 396.649 -4.00002 374.197 -4.00002V3.99998ZM424.892 14.3383C437.342 20.9029 446.167 30.2102 451.542 42.3046L458.852 39.0554C452.708 25.2298 442.573 14.6171 428.623 7.26172L424.892 14.3383ZM451.567 42.3605C457.275 54.6883 460.197 69.3317 460.197 86.4H468.197C468.197 68.4283 465.12 52.5916 458.827 38.9995L451.567 42.3605ZM460.197 86.4C460.197 90.5728 459.965 94.9992 459.497 99.682L467.457 100.478C467.949 95.5608 468.197 90.8672 468.197 86.4H460.197ZM459.483 99.8698C459.25 104.298 458.782 108.979 458.077 113.914L465.997 115.046C466.732 109.901 467.225 104.982 467.472 100.29L459.483 99.8698ZM458.057 114.082C457.59 118.757 456.887 123.56 455.948 128.492L463.807 129.988C464.787 124.84 465.525 119.803 466.017 114.878L458.057 114.082ZM455.946 128.503C452.383 147.503 447.644 164.665 441.744 180.004L449.211 182.876C455.311 167.015 460.171 149.377 463.809 129.977L455.946 128.503ZM441.725 180.055C436.101 195.286 428.754 208.318 419.719 219.206L425.875 224.314C435.561 212.642 443.334 198.794 449.23 182.825L441.725 180.055ZM419.746 219.173C410.816 229.707 399.578 237.865 385.957 243.637L389.078 251.003C403.777 244.775 416.059 235.893 425.848 224.347L419.746 219.173ZM385.957 243.637C372.428 249.369 355.594 252.32 335.317 252.32V260.32C356.32 260.32 374.286 257.271 389.078 251.003L385.957 243.637ZM340.717 211.72C348.875 211.72 355.973 210.192 361.782 206.873L357.813 199.927C353.542 202.368 347.919 203.72 340.717 203.72V211.72ZM361.903 206.801C367.795 203.153 372.442 197.283 376.022 189.612L368.772 186.228C365.632 192.957 361.88 197.407 357.692 199.999L361.903 206.801ZM375.975 189.709C379.779 182.1 383.105 171.789 386.018 158.923L378.216 157.157C375.369 169.731 372.215 179.34 368.819 186.131L375.975 189.709ZM386.018 158.923C388.913 146.137 392.164 130.125 395.769 110.897L387.906 109.423C384.311 128.595 381.081 144.503 378.216 157.157L386.018 158.923ZM395.783 110.818C396.26 107.955 396.736 105.215 397.213 102.596L389.342 101.164C388.858 103.825 388.375 106.605 387.892 109.502L395.783 110.818ZM397.223 102.538C397.714 99.5887 398.087 96.8607 398.337 94.358L390.377 93.562C390.147 95.8593 389.8 98.4113 389.332 101.222L397.223 102.538ZM398.341 94.3221C398.589 91.5876 398.717 89.0643 398.717 86.76H390.717C390.717 88.7757 390.605 91.0524 390.374 93.5979L398.341 94.3221ZM398.697 87.158C398.947 84.6576 399.077 82.3615 399.077 80.28H391.077C391.077 82.0385 390.967 84.0624 390.737 86.362L398.697 87.158ZM399.077 80.28C399.077 68.6849 396.894 59.3995 391.57 53.4841L385.624 58.8359C388.94 62.5205 391.077 69.3151 391.077 80.28H399.077ZM391.706 53.6432C386.593 47.3273 378.61 44.6 368.797 44.6V52.6C377.225 52.6 382.441 54.9127 385.488 58.6768L391.706 53.6432ZM368.797 44.6C360.376 44.6 353.103 46.2566 347.252 49.8789L351.463 56.681C355.691 54.0634 361.378 52.6 368.797 52.6V44.6ZM347.373 49.807C341.392 53.2244 336.605 59.1467 332.797 67.0178L339.998 70.5022C343.389 63.4933 347.242 59.0956 351.342 56.753L347.373 49.807ZM332.772 67.0685C329.259 74.5974 325.946 84.7138 322.797 97.3099L330.558 99.2501C333.649 86.8862 336.815 77.3226 340.022 70.4515L332.772 67.0685ZM322.78 97.3806C319.883 109.934 316.631 125.833 313.026 145.063L320.889 146.537C324.483 127.367 327.712 111.585 330.575 99.1794L322.78 97.3806ZM313.012 145.142C312.535 148.005 312.058 150.745 311.582 153.364L319.453 154.796C319.936 152.135 320.42 149.355 320.903 146.458L313.012 145.142ZM311.534 153.718C311.295 156.347 311.056 158.855 310.817 161.242L318.777 162.038C319.019 159.625 319.26 157.093 319.501 154.442L311.534 153.718ZM310.817 161.242C310.577 163.642 310.337 166.042 310.097 168.442L318.057 169.238C318.297 166.838 318.537 164.438 318.777 162.038L310.817 161.242ZM310.077 168.84C310.077 168.844 310.077 168.848 310.077 168.853C310.077 168.857 310.077 168.861 310.077 168.865C310.077 168.87 310.077 168.874 310.077 168.878C310.077 168.882 310.077 168.886 310.077 168.891C310.077 168.895 310.077 168.899 310.077 168.903C310.077 168.907 310.077 168.912 310.077 168.916C310.077 168.92 310.077 168.924 310.077 168.929C310.077 168.933 310.077 168.937 310.077 168.941C310.077 168.945 310.077 168.95 310.077 168.954C310.077 168.958 310.077 168.962 310.077 168.966C310.077 168.971 310.077 168.975 310.077 168.979C310.077 168.983 310.077 168.987 310.077 168.992C310.077 168.996 310.077 169 310.077 169.004C310.077 169.008 310.077 169.013 310.077 169.017C310.077 169.021 310.077 169.025 310.077 169.03C310.077 169.034 310.077 169.038 310.077 169.042C310.077 169.046 310.077 169.051 310.077 169.055C310.077 169.059 310.077 169.063 310.077 169.067C310.077 169.072 310.077 169.076 310.077 169.08C310.077 169.084 310.077 169.088 310.077 169.093C310.077 169.097 310.077 169.101 310.077 169.105C310.077 169.109 310.077 169.114 310.077 169.118C310.077 169.122 310.077 169.126 310.077 169.13C310.077 169.135 310.077 169.139 310.077 169.143C310.077 169.147 310.077 169.151 310.077 169.156C310.077 169.16 310.077 169.164 310.077 169.168C310.077 169.172 310.077 169.177 310.077 169.181C310.077 169.185 310.077 169.189 310.077 169.193C310.077 169.197 310.077 169.202 310.077 169.206C310.077 169.21 310.077 169.214 310.077 169.218C310.077 169.223 310.077 169.227 310.077 169.231C310.077 169.235 310.077 169.239 310.077 169.244C310.077 169.248 310.077 169.252 310.077 169.256C310.077 169.26 310.077 169.265 310.077 169.269C310.077 169.273 310.077 169.277 310.077 169.281C310.077 169.285 310.077 169.29 310.077 169.294C310.077 169.298 310.077 169.302 310.077 169.306C310.077 169.311 310.077 169.315 310.077 169.319C310.077 169.323 310.077 169.327 310.077 169.331C310.077 169.336 310.077 169.34 310.077 169.344C310.077 169.348 310.077 169.352 310.077 169.357C310.077 169.361 310.077 169.365 310.077 169.369C310.077 169.373 310.077 169.378 310.077 169.382C310.077 169.386 310.077 169.39 310.077 169.394C310.077 169.398 310.077 169.403 310.077 169.407C310.077 169.411 310.077 169.415 310.077 169.419C310.077 169.423 310.077 169.428 310.077 169.432C310.077 169.436 310.077 169.44 310.077 169.444C310.077 169.449 310.077 169.453 310.077 169.457C310.077 169.461 310.077 169.465 310.077 169.469C310.077 169.474 310.077 169.478 310.077 169.482C310.077 169.486 310.077 169.49 310.077 169.494C310.077 169.499 310.077 169.503 310.077 169.507C310.077 169.511 310.077 169.515 310.077 169.519C310.077 169.524 310.077 169.528 310.077 169.532C310.077 169.536 310.077 169.54 310.077 169.544C310.077 169.549 310.077 169.553 310.077 169.557C310.077 169.561 310.077 169.565 310.077 169.569C310.077 169.574 310.077 169.578 310.077 169.582C310.077 169.586 310.077 169.59 310.077 169.594C310.077 169.599 310.077 169.603 310.077 169.607C310.077 169.611 310.077 169.615 310.077 169.619C310.077 169.624 310.077 169.628 310.077 169.632C310.077 169.636 310.077 169.64 310.077 169.644C310.077 169.649 310.077 169.653 310.077 169.657C310.077 169.661 310.077 169.665 310.077 169.669C310.077 169.673 310.077 169.678 310.077 169.682C310.077 169.686 310.077 169.69 310.077 169.694C310.077 169.698 310.077 169.703 310.077 169.707C310.077 169.711 310.077 169.715 310.077 169.719C310.077 169.723 310.077 169.728 310.077 169.732C310.077 169.736 310.077 169.74 310.077 169.744C310.077 169.748 310.077 169.752 310.077 169.757C310.077 169.761 310.077 169.765 310.077 169.769C310.077 169.773 310.077 169.777 310.077 169.781C310.077 169.786 310.077 169.79 310.077 169.794C310.077 169.798 310.077 169.802 310.077 169.806C310.077 169.811 310.077 169.815 310.077 169.819C310.077 169.823 310.077 169.827 310.077 169.831C310.077 169.835 310.077 169.84 310.077 169.844C310.077 169.848 310.077 169.852 310.077 169.856C310.077 169.86 310.077 169.864 310.077 169.869C310.077 169.873 310.077 169.877 310.077 169.881C310.077 169.885 310.077 169.889 310.077 169.893C310.077 169.898 310.077 169.902 310.077 169.906C310.077 169.91 310.077 169.914 310.077 169.918C310.077 169.922 310.077 169.927 310.077 169.931C310.077 169.935 310.077 169.939 310.077 169.943C310.077 169.947 310.077 169.951 310.077 169.956C310.077 169.96 310.077 169.964 310.077 169.968C310.077 169.972 310.077 169.976 310.077 169.98C310.077 169.984 310.077 169.989 310.077 169.993C310.077 169.997 310.077 170.001 310.077 170.005C310.077 170.009 310.077 170.013 310.077 170.018C310.077 170.022 310.077 170.026 310.077 170.03C310.077 170.034 310.077 170.038 310.077 170.042C310.077 170.046 310.077 170.051 310.077 170.055C310.077 170.059 310.077 170.063 310.077 170.067C310.077 170.071 310.077 170.075 310.077 170.079C310.077 170.084 310.077 170.088 310.077 170.092C310.077 170.096 310.077 170.1 310.077 170.104C310.077 170.108 310.077 170.113 310.077 170.117C310.077 170.121 310.077 170.125 310.077 170.129C310.077 170.133 310.077 170.137 310.077 170.141C310.077 170.146 310.077 170.15 310.077 170.154C310.077 170.158 310.077 170.162 310.077 170.166C310.077 170.17 310.077 170.174 310.077 170.178C310.077 170.183 310.077 170.187 310.077 170.191C310.077 170.195 310.077 170.199 310.077 170.203C310.077 170.207 310.077 170.211 310.077 170.216C310.077 170.22 310.077 170.224 310.077 170.228C310.077 170.232 310.077 170.236 310.077 170.24C310.077 170.244 310.077 170.249 310.077 170.253C310.077 170.257 310.077 170.261 310.077 170.265C310.077 170.269 310.077 170.273 310.077 170.277C310.077 170.281 310.077 170.286 310.077 170.29C310.077 170.294 310.077 170.298 310.077 170.302C310.077 170.306 310.077 170.31 310.077 170.314C310.077 170.318 310.077 170.323 310.077 170.327C310.077 170.331 310.077 170.335 310.077 170.339C310.077 170.343 310.077 170.347 310.077 170.351C310.077 170.355 310.077 170.36 310.077 170.364C310.077 170.368 310.077 170.372 310.077 170.376C310.077 170.38 310.077 170.384 310.077 170.388C310.077 170.392 310.077 170.396 310.077 170.401C310.077 170.405 310.077 170.409 310.077 170.413C310.077 170.417 310.077 170.421 310.077 170.425C310.077 170.429 310.077 170.433 310.077 170.438C310.077 170.442 310.077 170.446 310.077 170.45C310.077 170.454 310.077 170.458 310.077 170.462C310.077 170.466 310.077 170.47 310.077 170.474C310.077 170.479 310.077 170.483 310.077 170.487C310.077 170.491 310.077 170.495 310.077 170.499C310.077 170.503 310.077 170.507 310.077 170.511C310.077 170.515 310.077 170.519 310.077 170.524C310.077 170.528 310.077 170.532 310.077 170.536C310.077 170.54 310.077 170.544 310.077 170.548C310.077 170.552 310.077 170.556 310.077 170.56C310.077 170.564 310.077 170.569 310.077 170.573C310.077 170.577 310.077 170.581 310.077 170.585C310.077 170.589 310.077 170.593 310.077 170.597C310.077 170.601 310.077 170.605 310.077 170.609C310.077 170.614 310.077 170.618 310.077 170.622C310.077 170.626 310.077 170.63 310.077 170.634C310.077 170.638 310.077 170.642 310.077 170.646C310.077 170.65 310.077 170.654 310.077 170.659C310.077 170.663 310.077 170.667 310.077 170.671C310.077 170.675 310.077 170.679 310.077 170.683C310.077 170.687 310.077 170.691 310.077 170.695C310.077 170.699 310.077 170.703 310.077 170.708C310.077 170.712 310.077 170.716 310.077 170.72C310.077 170.724 310.077 170.728 310.077 170.732C310.077 170.736 310.077 170.74 310.077 170.744C310.077 170.748 310.077 170.752 310.077 170.756C310.077 170.761 310.077 170.765 310.077 170.769C310.077 170.773 310.077 170.777 310.077 170.781C310.077 170.785 310.077 170.789 310.077 170.793C310.077 170.797 310.077 170.801 310.077 170.805C310.077 170.809 310.077 170.814 310.077 170.818C310.077 170.822 310.077 170.826 310.077 170.83C310.077 170.834 310.077 170.838 310.077 170.842C310.077 170.846 310.077 170.85 310.077 170.854C310.077 170.858 310.077 170.862 310.077 170.866C310.077 170.871 310.077 170.875 310.077 170.879C310.077 170.883 310.077 170.887 310.077 170.891C310.077 170.895 310.077 170.899 310.077 170.903C310.077 170.907 310.077 170.911 310.077 170.915C310.077 170.919 310.077 170.923 310.077 170.927C310.077 170.932 310.077 170.936 310.077 170.94C310.077 170.944 310.077 170.948 310.077 170.952C310.077 170.956 310.077 170.96 310.077 170.964C310.077 170.968 310.077 170.972 310.077 170.976C310.077 170.98 310.077 170.984 310.077 170.988C310.077 170.992 310.077 170.997 310.077 171.001C310.077 171.005 310.077 171.009 310.077 171.013C310.077 171.017 310.077 171.021 310.077 171.025C310.077 171.029 310.077 171.033 310.077 171.037C310.077 171.041 310.077 171.045 310.077 171.049C310.077 171.053 310.077 171.057 310.077 171.061C310.077 171.066 310.077 171.07 310.077 171.074C310.077 171.078 310.077 171.082 310.077 171.086C310.077 171.09 310.077 171.094 310.077 171.098C310.077 171.102 310.077 171.106 310.077 171.11C310.077 171.114 310.077 171.118 310.077 171.122C310.077 171.126 310.077 171.13 310.077 171.134C310.077 171.138 310.077 171.143 310.077 171.147C310.077 171.151 310.077 171.155 310.077 171.159C310.077 171.163 310.077 171.167 310.077 171.171C310.077 171.175 310.077 171.179 310.077 171.183C310.077 171.187 310.077 171.191 310.077 171.195C310.077 171.199 310.077 171.203 310.077 171.207C310.077 171.211 310.077 171.215 310.077 171.219C310.077 171.223 310.077 171.227 310.077 171.231C310.077 171.236 310.077 171.24 310.077 171.244C310.077 171.248 310.077 171.252 310.077 171.256C310.077 171.26 310.077 171.264 310.077 171.268C310.077 171.272 310.077 171.276 310.077 171.28C310.077 171.284 310.077 171.288 310.077 171.292C310.077 171.296 310.077 171.3 310.077 171.304C310.077 171.308 310.077 171.312 310.077 171.316C310.077 171.32 310.077 171.324 310.077 171.328C310.077 171.332 310.077 171.336 310.077 171.341C310.077 171.345 310.077 171.349 310.077 171.353C310.077 171.357 310.077 171.361 310.077 171.365C310.077 171.369 310.077 171.373 310.077 171.377C310.077 171.381 310.077 171.385 310.077 171.389C310.077 171.393 310.077 171.397 310.077 171.401C310.077 171.405 310.077 171.409 310.077 171.413C310.077 171.417 310.077 171.421 310.077 171.425C310.077 171.429 310.077 171.433 310.077 171.437C310.077 171.441 310.077 171.445 310.077 171.449C310.077 171.453 310.077 171.457 310.077 171.461C310.077 171.465 310.077 171.469 310.077 171.473C310.077 171.477 310.077 171.482 310.077 171.486C310.077 171.49 310.077 171.494 310.077 171.498C310.077 171.502 310.077 171.506 310.077 171.51C310.077 171.514 310.077 171.518 310.077 171.522C310.077 171.526 310.077 171.53 310.077 171.534C310.077 171.538 310.077 171.542 310.077 171.546C310.077 171.55 310.077 171.554 310.077 171.558C310.077 171.562 310.077 171.566 310.077 171.57C310.077 171.574 310.077 171.578 310.077 171.582C310.077 171.586 310.077 171.59 310.077 171.594C310.077 171.598 310.077 171.602 310.077 171.606C310.077 171.61 310.077 171.614 310.077 171.618C310.077 171.622 310.077 171.626 310.077 171.63C310.077 171.634 310.077 171.638 310.077 171.642C310.077 171.646 310.077 171.65 310.077 171.654C310.077 171.658 310.077 171.662 310.077 171.666C310.077 171.67 310.077 171.674 310.077 171.678C310.077 171.682 310.077 171.686 310.077 171.69C310.077 171.694 310.077 171.698 310.077 171.702C310.077 171.706 310.077 171.71 310.077 171.714C310.077 171.718 310.077 171.722 310.077 171.726C310.077 171.73 310.077 171.734 310.077 171.738C310.077 171.742 310.077 171.746 310.077 171.75C310.077 171.754 310.077 171.758 310.077 171.762C310.077 171.766 310.077 171.77 310.077 171.774C310.077 171.778 310.077 171.782 310.077 171.786C310.077 171.79 310.077 171.794 310.077 171.798C310.077 171.802 310.077 171.806 310.077 171.81C310.077 171.814 310.077 171.818 310.077 171.822C310.077 171.826 310.077 171.83 310.077 171.834C310.077 171.838 310.077 171.842 310.077 171.846C310.077 171.85 310.077 171.854 310.077 171.858C310.077 171.862 310.077 171.866 310.077 171.87C310.077 171.874 310.077 171.878 310.077 171.882C310.077 171.886 310.077 171.89 310.077 171.894C310.077 171.898 310.077 171.902 310.077 171.906C310.077 171.91 310.077 171.914 310.077 171.918C310.077 171.922 310.077 171.926 310.077 171.93C310.077 171.934 310.077 171.938 310.077 171.942C310.077 171.946 310.077 171.95 310.077 171.954C310.077 171.958 310.077 171.962 310.077 171.966C310.077 171.97 310.077 171.974 310.077 171.978C310.077 171.982 310.077 171.986 310.077 171.99C310.077 171.994 310.077 171.998 310.077 172.002C310.077 172.006 310.077 172.01 310.077 172.014C310.077 172.018 310.077 172.022 310.077 172.026C310.077 172.03 310.077 172.034 310.077 172.038C310.077 172.042 310.077 172.046 310.077 172.05C310.077 172.054 310.077 172.058 310.077 172.062C310.077 172.066 310.077 172.07 310.077 172.074C310.077 172.078 310.077 172.082 310.077 172.086C310.077 172.09 310.077 172.093 310.077 172.097C310.077 172.101 310.077 172.105 310.077 172.109C310.077 172.113 310.077 172.117 310.077 172.121C310.077 172.125 310.077 172.129 310.077 172.133C310.077 172.137 310.077 172.141 310.077 172.145C310.077 172.149 310.077 172.153 310.077 172.157C310.077 172.161 310.077 172.165 310.077 172.169C310.077 172.173 310.077 172.177 310.077 172.181C310.077 172.185 310.077 172.189 310.077 172.193C310.077 172.197 310.077 172.201 310.077 172.205C310.077 172.209 310.077 172.213 310.077 172.217C310.077 172.221 310.077 172.225 310.077 172.229C310.077 172.232 310.077 172.236 310.077 172.24C310.077 172.244 310.077 172.248 310.077 172.252C310.077 172.256 310.077 172.26 310.077 172.264C310.077 172.268 310.077 172.272 310.077 172.276C310.077 172.28 310.077 172.284 310.077 172.288C310.077 172.292 310.077 172.296 310.077 172.3C310.077 172.304 310.077 172.308 310.077 172.312C310.077 172.316 310.077 172.32 310.077 172.324C310.077 172.328 310.077 172.332 310.077 172.335C310.077 172.339 310.077 172.343 310.077 172.347C310.077 172.351 310.077 172.355 310.077 172.359C310.077 172.363 310.077 172.367 310.077 172.371C310.077 172.375 310.077 172.379 310.077 172.383C310.077 172.387 310.077 172.391 310.077 172.395C310.077 172.399 310.077 172.403 310.077 172.407C310.077 172.411 310.077 172.415 310.077 172.419C310.077 172.422 310.077 172.426 310.077 172.43C310.077 172.434 310.077 172.438 310.077 172.442C310.077 172.446 310.077 172.45 310.077 172.454C310.077 172.458 310.077 172.462 310.077 172.466C310.077 172.47 310.077 172.474 310.077 172.478C310.077 172.482 310.077 172.486 310.077 172.49C310.077 172.494 310.077 172.497 310.077 172.501C310.077 172.505 310.077 172.509 310.077 172.513C310.077 172.517 310.077 172.521 310.077 172.525C310.077 172.529 310.077 172.533 310.077 172.537C310.077 172.541 310.077 172.545 310.077 172.549C310.077 172.553 310.077 172.557 310.077 172.561C310.077 172.565 310.077 172.568 310.077 172.572C310.077 172.576 310.077 172.58 310.077 172.584C310.077 172.588 310.077 172.592 310.077 172.596C310.077 172.6 310.077 172.604 310.077 172.608C310.077 172.612 310.077 172.616 310.077 172.62C310.077 172.624 310.077 172.628 310.077 172.631C310.077 172.635 310.077 172.639 310.077 172.643C310.077 172.647 310.077 172.651 310.077 172.655C310.077 172.659 310.077 172.663 310.077 172.667C310.077 172.671 310.077 172.675 310.077 172.679C310.077 172.683 310.077 172.687 310.077 172.69C310.077 172.694 310.077 172.698 310.077 172.702C310.077 172.706 310.077 172.71 310.077 172.714C310.077 172.718 310.077 172.722 310.077 172.726C310.077 172.73 310.077 172.734 310.077 172.738C310.077 172.742 310.077 172.745 310.077 172.749C310.077 172.753 310.077 172.757 310.077 172.761C310.077 172.765 310.077 172.769 310.077 172.773C310.077 172.777 310.077 172.781 310.077 172.785C310.077 172.789 310.077 172.793 310.077 172.796C310.077 172.8 310.077 172.804 310.077 172.808C310.077 172.812 310.077 172.816 310.077 172.82C310.077 172.824 310.077 172.828 310.077 172.832C310.077 172.836 310.077 172.84 310.077 172.844C310.077 172.847 310.077 172.851 310.077 172.855C310.077 172.859 310.077 172.863 310.077 172.867C310.077 172.871 310.077 172.875 310.077 172.879C310.077 172.883 310.077 172.887 310.077 172.891C310.077 172.894 310.077 172.898 310.077 172.902C310.077 172.906 310.077 172.91 310.077 172.914C310.077 172.918 310.077 172.922 310.077 172.926C310.077 172.93 310.077 172.934 310.077 172.937C310.077 172.941 310.077 172.945 310.077 172.949C310.077 172.953 310.077 172.957 310.077 172.961C310.077 172.965 310.077 172.969 310.077 172.973C310.077 172.977 310.077 172.98 310.077 172.984C310.077 172.988 310.077 172.992 310.077 172.996C310.077 173 310.077 173.004 310.077 173.008C310.077 173.012 310.077 173.016 310.077 173.02C310.077 173.023 310.077 173.027 310.077 173.031C310.077 173.035 310.077 173.039 310.077 173.043C310.077 173.047 310.077 173.051 310.077 173.055C310.077 173.059 310.077 173.062 310.077 173.066C310.077 173.07 310.077 173.074 310.077 173.078C310.077 173.082 310.077 173.086 310.077 173.09C310.077 173.094 310.077 173.098 310.077 173.101C310.077 173.105 310.077 173.109 310.077 173.113C310.077 173.117 310.077 173.121 310.077 173.125C310.077 173.129 310.077 173.133 310.077 173.137C310.077 173.14 310.077 173.144 310.077 173.148C310.077 173.152 310.077 173.156 310.077 173.16C310.077 173.164 310.077 173.168 310.077 173.172C310.077 173.175 310.077 173.179 310.077 173.183C310.077 173.187 310.077 173.191 310.077 173.195C310.077 173.199 310.077 173.203 310.077 173.207C310.077 173.21 310.077 173.214 310.077 173.218C310.077 173.222 310.077 173.226 310.077 173.23C310.077 173.234 310.077 173.238 310.077 173.242C310.077 173.245 310.077 173.249 310.077 173.253C310.077 173.257 310.077 173.261 310.077 173.265C310.077 173.269 310.077 173.273 310.077 173.277C310.077 173.28 310.077 173.284 310.077 173.288C310.077 173.292 310.077 173.296 310.077 173.3C310.077 173.304 310.077 173.308 310.077 173.312C310.077 173.315 310.077 173.319 310.077 173.323C310.077 173.327 310.077 173.331 310.077 173.335C310.077 173.339 310.077 173.343 310.077 173.346C310.077 173.35 310.077 173.354 310.077 173.358C310.077 173.362 310.077 173.366 310.077 173.37C310.077 173.374 310.077 173.377 310.077 173.381C310.077 173.385 310.077 173.389 310.077 173.393C310.077 173.397 310.077 173.401 310.077 173.405C310.077 173.408 310.077 173.412 310.077 173.416C310.077 173.42 310.077 173.424 310.077 173.428C310.077 173.432 310.077 173.436 310.077 173.439C310.077 173.443 310.077 173.447 310.077 173.451C310.077 173.455 310.077 173.459 310.077 173.463C310.077 173.467 310.077 173.47 310.077 173.474C310.077 173.478 310.077 173.482 310.077 173.486C310.077 173.49 310.077 173.494 310.077 173.497C310.077 173.501 310.077 173.505 310.077 173.509C310.077 173.513 310.077 173.517 310.077 173.521C310.077 173.525 310.077 173.528 310.077 173.532C310.077 173.536 310.077 173.54 310.077 173.544C310.077 173.548 310.077 173.552 310.077 173.555C310.077 173.559 310.077 173.563 310.077 173.567C310.077 173.571 310.077 173.575 310.077 173.579C310.077 173.583 310.077 173.586 310.077 173.59C310.077 173.594 310.077 173.598 310.077 173.602C310.077 173.606 310.077 173.61 310.077 173.613C310.077 173.617 310.077 173.621 310.077 173.625C310.077 173.629 310.077 173.633 310.077 173.637C310.077 173.64 310.077 173.644 310.077 173.648C310.077 173.652 310.077 173.656 310.077 173.66C310.077 173.663 310.077 173.667 310.077 173.671C310.077 173.675 310.077 173.679 310.077 173.683C310.077 173.687 310.077 173.69 310.077 173.694C310.077 173.698 310.077 173.702 310.077 173.706C310.077 173.71 310.077 173.714 310.077 173.717C310.077 173.721 310.077 173.725 310.077 173.729C310.077 173.733 310.077 173.737 310.077 173.741C310.077 173.744 310.077 173.748 310.077 173.752C310.077 173.756 310.077 173.76 310.077 173.764C310.077 173.767 310.077 173.771 310.077 173.775C310.077 173.779 310.077 173.783 310.077 173.787C310.077 173.791 310.077 173.794 310.077 173.798C310.077 173.802 310.077 173.806 310.077 173.81C310.077 173.814 310.077 173.817 310.077 173.821C310.077 173.825 310.077 173.829 310.077 173.833C310.077 173.837 310.077 173.84 310.077 173.844C310.077 173.848 310.077 173.852 310.077 173.856C310.077 173.86 310.077 173.863 310.077 173.867C310.077 173.871 310.077 173.875 310.077 173.879C310.077 173.883 310.077 173.887 310.077 173.89C310.077 173.894 310.077 173.898 310.077 173.902C310.077 173.906 310.077 173.91 310.077 173.913C310.077 173.917 310.077 173.921 310.077 173.925C310.077 173.929 310.077 173.933 310.077 173.936C310.077 173.94 310.077 173.944 310.077 173.948C310.077 173.952 310.077 173.956 310.077 173.959C310.077 173.963 310.077 173.967 310.077 173.971C310.077 173.975 310.077 173.979 310.077 173.982C310.077 173.986 310.077 173.99 310.077 173.994C310.077 173.998 310.077 174.001 310.077 174.005C310.077 174.009 310.077 174.013 310.077 174.017C310.077 174.021 310.077 174.024 310.077 174.028C310.077 174.032 310.077 174.036 310.077 174.04C310.077 174.044 310.077 174.047 310.077 174.051C310.077 174.055 310.077 174.059 310.077 174.063C310.077 174.066 310.077 174.07 310.077 174.074C310.077 174.078 310.077 174.082 310.077 174.086C310.077 174.089 310.077 174.093 310.077 174.097C310.077 174.101 310.077 174.105 310.077 174.109C310.077 174.112 310.077 174.116 310.077 174.12C310.077 174.124 310.077 174.128 310.077 174.131C310.077 174.135 310.077 174.139 310.077 174.143C310.077 174.147 310.077 174.151 310.077 174.154C310.077 174.158 310.077 174.162 310.077 174.166C310.077 174.17 310.077 174.173 310.077 174.177C310.077 174.181 310.077 174.185 310.077 174.189C310.077 174.192 310.077 174.196 310.077 174.2C310.077 174.204 310.077 174.208 310.077 174.212C310.077 174.215 310.077 174.219 310.077 174.223C310.077 174.227 310.077 174.231 310.077 174.234C310.077 174.238 310.077 174.242 310.077 174.246C310.077 174.25 310.077 174.253 310.077 174.257C310.077 174.261 310.077 174.265 310.077 174.269C310.077 174.272 310.077 174.276 310.077 174.28C310.077 174.284 310.077 174.288 310.077 174.291C310.077 174.295 310.077 174.299 310.077 174.303C310.077 174.307 310.077 174.31 310.077 174.314C310.077 174.318 310.077 174.322 310.077 174.326C310.077 174.329 310.077 174.333 310.077 174.337C310.077 174.341 310.077 174.345 310.077 174.348C310.077 174.352 310.077 174.356 310.077 174.36C310.077 174.364 310.077 174.367 310.077 174.371C310.077 174.375 310.077 174.379 310.077 174.383C310.077 174.386 310.077 174.39 310.077 174.394C310.077 174.398 310.077 174.402 310.077 174.405C310.077 174.409 310.077 174.413 310.077 174.417C310.077 174.421 310.077 174.424 310.077 174.428C310.077 174.432 310.077 174.436 310.077 174.44C310.077 174.443 310.077 174.447 310.077 174.451C310.077 174.455 310.077 174.459 310.077 174.462C310.077 174.466 310.077 174.47 310.077 174.474C310.077 174.477 310.077 174.481 310.077 174.485C310.077 174.489 310.077 174.493 310.077 174.496C310.077 174.5 310.077 174.504 310.077 174.508C310.077 174.512 310.077 174.515 310.077 174.519C310.077 174.523 310.077 174.527 310.077 174.531C310.077 174.534 310.077 174.538 310.077 174.542C310.077 174.546 310.077 174.549 310.077 174.553C310.077 174.557 310.077 174.561 310.077 174.565C310.077 174.568 310.077 174.572 310.077 174.576C310.077 174.58 310.077 174.583 310.077 174.587C310.077 174.591 310.077 174.595 310.077 174.599C310.077 174.602 310.077 174.606 310.077 174.61C310.077 174.614 310.077 174.617 310.077 174.621C310.077 174.625 310.077 174.629 310.077 174.633C310.077 174.636 310.077 174.64 310.077 174.644C310.077 174.648 310.077 174.651 310.077 174.655C310.077 174.659 310.077 174.663 310.077 174.667C310.077 174.67 310.077 174.674 310.077 174.678C310.077 174.682 310.077 174.685 310.077 174.689C310.077 174.693 310.077 174.697 310.077 174.701C310.077 174.704 310.077 174.708 310.077 174.712C310.077 174.716 310.077 174.719 310.077 174.723C310.077 174.727 310.077 174.731 310.077 174.734C310.077 174.738 310.077 174.742 310.077 174.746C310.077 174.75 310.077 174.753 310.077 174.757C310.077 174.761 310.077 174.765 310.077 174.768C310.077 174.772 310.077 174.776 310.077 174.78C310.077 174.783 310.077 174.787 310.077 174.791C310.077 174.795 310.077 174.798 310.077 174.802C310.077 174.806 310.077 174.81 310.077 174.814C310.077 174.817 310.077 174.821 310.077 174.825C310.077 174.829 310.077 174.832 310.077 174.836C310.077 174.84 310.077 174.844 310.077 174.847C310.077 174.851 310.077 174.855 310.077 174.859C310.077 174.862 310.077 174.866 310.077 174.87C310.077 174.874 310.077 174.877 310.077 174.881C310.077 174.885 310.077 174.889 310.077 174.892C310.077 174.896 310.077 174.9 310.077 174.904C310.077 174.907 310.077 174.911 310.077 174.915C310.077 174.919 310.077 174.922 310.077 174.926C310.077 174.93 310.077 174.934 310.077 174.937C310.077 174.941 310.077 174.945 310.077 174.949C310.077 174.952 310.077 174.956 310.077 174.96H318.077C318.077 174.956 318.077 174.952 318.077 174.949C318.077 174.945 318.077 174.941 318.077 174.937C318.077 174.934 318.077 174.93 318.077 174.926C318.077 174.922 318.077 174.919 318.077 174.915C318.077 174.911 318.077 174.907 318.077 174.904C318.077 174.9 318.077 174.896 318.077 174.892C318.077 174.889 318.077 174.885 318.077 174.881C318.077 174.877 318.077 174.874 318.077 174.87C318.077 174.866 318.077 174.862 318.077 174.859C318.077 174.855 318.077 174.851 318.077 174.847C318.077 174.844 318.077 174.84 318.077 174.836C318.077 174.832 318.077 174.829 318.077 174.825C318.077 174.821 318.077 174.817 318.077 174.814C318.077 174.81 318.077 174.806 318.077 174.802C318.077 174.798 318.077 174.795 318.077 174.791C318.077 174.787 318.077 174.783 318.077 174.78C318.077 174.776 318.077 174.772 318.077 174.768C318.077 174.765 318.077 174.761 318.077 174.757C318.077 174.753 318.077 174.75 318.077 174.746C318.077 174.742 318.077 174.738 318.077 174.734C318.077 174.731 318.077 174.727 318.077 174.723C318.077 174.719 318.077 174.716 318.077 174.712C318.077 174.708 318.077 174.704 318.077 174.701C318.077 174.697 318.077 174.693 318.077 174.689C318.077 174.685 318.077 174.682 318.077 174.678C318.077 174.674 318.077 174.67 318.077 174.667C318.077 174.663 318.077 174.659 318.077 174.655C318.077 174.651 318.077 174.648 318.077 174.644C318.077 174.64 318.077 174.636 318.077 174.633C318.077 174.629 318.077 174.625 318.077 174.621C318.077 174.617 318.077 174.614 318.077 174.61C318.077 174.606 318.077 174.602 318.077 174.599C318.077 174.595 318.077 174.591 318.077 174.587C318.077 174.583 318.077 174.58 318.077 174.576C318.077 174.572 318.077 174.568 318.077 174.565C318.077 174.561 318.077 174.557 318.077 174.553C318.077 174.549 318.077 174.546 318.077 174.542C318.077 174.538 318.077 174.534 318.077 174.531C318.077 174.527 318.077 174.523 318.077 174.519C318.077 174.515 318.077 174.512 318.077 174.508C318.077 174.504 318.077 174.5 318.077 174.496C318.077 174.493 318.077 174.489 318.077 174.485C318.077 174.481 318.077 174.477 318.077 174.474C318.077 174.47 318.077 174.466 318.077 174.462C318.077 174.459 318.077 174.455 318.077 174.451C318.077 174.447 318.077 174.443 318.077 174.44C318.077 174.436 318.077 174.432 318.077 174.428C318.077 174.424 318.077 174.421 318.077 174.417C318.077 174.413 318.077 174.409 318.077 174.405C318.077 174.402 318.077 174.398 318.077 174.394C318.077 174.39 318.077 174.386 318.077 174.383C318.077 174.379 318.077 174.375 318.077 174.371C318.077 174.367 318.077 174.364 318.077 174.36C318.077 174.356 318.077 174.352 318.077 174.348C318.077 174.345 318.077 174.341 318.077 174.337C318.077 174.333 318.077 174.329 318.077 174.326C318.077 174.322 318.077 174.318 318.077 174.314C318.077 174.31 318.077 174.307 318.077 174.303C318.077 174.299 318.077 174.295 318.077 174.291C318.077 174.288 318.077 174.284 318.077 174.28C318.077 174.276 318.077 174.272 318.077 174.269C318.077 174.265 318.077 174.261 318.077 174.257C318.077 174.253 318.077 174.25 318.077 174.246C318.077 174.242 318.077 174.238 318.077 174.234C318.077 174.231 318.077 174.227 318.077 174.223C318.077 174.219 318.077 174.215 318.077 174.212C318.077 174.208 318.077 174.204 318.077 174.2C318.077 174.196 318.077 174.192 318.077 174.189C318.077 174.185 318.077 174.181 318.077 174.177C318.077 174.173 318.077 174.17 318.077 174.166C318.077 174.162 318.077 174.158 318.077 174.154C318.077 174.151 318.077 174.147 318.077 174.143C318.077 174.139 318.077 174.135 318.077 174.131C318.077 174.128 318.077 174.124 318.077 174.12C318.077 174.116 318.077 174.112 318.077 174.109C318.077 174.105 318.077 174.101 318.077 174.097C318.077 174.093 318.077 174.089 318.077 174.086C318.077 174.082 318.077 174.078 318.077 174.074C318.077 174.07 318.077 174.066 318.077 174.063C318.077 174.059 318.077 174.055 318.077 174.051C318.077 174.047 318.077 174.044 318.077 174.04C318.077 174.036 318.077 174.032 318.077 174.028C318.077 174.024 318.077 174.021 318.077 174.017C318.077 174.013 318.077 174.009 318.077 174.005C318.077 174.001 318.077 173.998 318.077 173.994C318.077 173.99 318.077 173.986 318.077 173.982C318.077 173.979 318.077 173.975 318.077 173.971C318.077 173.967 318.077 173.963 318.077 173.959C318.077 173.956 318.077 173.952 318.077 173.948C318.077 173.944 318.077 173.94 318.077 173.936C318.077 173.933 318.077 173.929 318.077 173.925C318.077 173.921 318.077 173.917 318.077 173.913C318.077 173.91 318.077 173.906 318.077 173.902C318.077 173.898 318.077 173.894 318.077 173.89C318.077 173.887 318.077 173.883 318.077 173.879C318.077 173.875 318.077 173.871 318.077 173.867C318.077 173.863 318.077 173.86 318.077 173.856C318.077 173.852 318.077 173.848 318.077 173.844C318.077 173.84 318.077 173.837 318.077 173.833C318.077 173.829 318.077 173.825 318.077 173.821C318.077 173.817 318.077 173.814 318.077 173.81C318.077 173.806 318.077 173.802 318.077 173.798C318.077 173.794 318.077 173.791 318.077 173.787C318.077 173.783 318.077 173.779 318.077 173.775C318.077 173.771 318.077 173.767 318.077 173.764C318.077 173.76 318.077 173.756 318.077 173.752C318.077 173.748 318.077 173.744 318.077 173.741C318.077 173.737 318.077 173.733 318.077 173.729C318.077 173.725 318.077 173.721 318.077 173.717C318.077 173.714 318.077 173.71 318.077 173.706C318.077 173.702 318.077 173.698 318.077 173.694C318.077 173.69 318.077 173.687 318.077 173.683C318.077 173.679 318.077 173.675 318.077 173.671C318.077 173.667 318.077 173.663 318.077 173.66C318.077 173.656 318.077 173.652 318.077 173.648C318.077 173.644 318.077 173.64 318.077 173.637C318.077 173.633 318.077 173.629 318.077 173.625C318.077 173.621 318.077 173.617 318.077 173.613C318.077 173.61 318.077 173.606 318.077 173.602C318.077 173.598 318.077 173.594 318.077 173.59C318.077 173.586 318.077 173.583 318.077 173.579C318.077 173.575 318.077 173.571 318.077 173.567C318.077 173.563 318.077 173.559 318.077 173.555C318.077 173.552 318.077 173.548 318.077 173.544C318.077 173.54 318.077 173.536 318.077 173.532C318.077 173.528 318.077 173.525 318.077 173.521C318.077 173.517 318.077 173.513 318.077 173.509C318.077 173.505 318.077 173.501 318.077 173.497C318.077 173.494 318.077 173.49 318.077 173.486C318.077 173.482 318.077 173.478 318.077 173.474C318.077 173.47 318.077 173.467 318.077 173.463C318.077 173.459 318.077 173.455 318.077 173.451C318.077 173.447 318.077 173.443 318.077 173.439C318.077 173.436 318.077 173.432 318.077 173.428C318.077 173.424 318.077 173.42 318.077 173.416C318.077 173.412 318.077 173.408 318.077 173.405C318.077 173.401 318.077 173.397 318.077 173.393C318.077 173.389 318.077 173.385 318.077 173.381C318.077 173.377 318.077 173.374 318.077 173.37C318.077 173.366 318.077 173.362 318.077 173.358C318.077 173.354 318.077 173.35 318.077 173.346C318.077 173.343 318.077 173.339 318.077 173.335C318.077 173.331 318.077 173.327 318.077 173.323C318.077 173.319 318.077 173.315 318.077 173.312C318.077 173.308 318.077 173.304 318.077 173.3C318.077 173.296 318.077 173.292 318.077 173.288C318.077 173.284 318.077 173.28 318.077 173.277C318.077 173.273 318.077 173.269 318.077 173.265C318.077 173.261 318.077 173.257 318.077 173.253C318.077 173.249 318.077 173.245 318.077 173.242C318.077 173.238 318.077 173.234 318.077 173.23C318.077 173.226 318.077 173.222 318.077 173.218C318.077 173.214 318.077 173.21 318.077 173.207C318.077 173.203 318.077 173.199 318.077 173.195C318.077 173.191 318.077 173.187 318.077 173.183C318.077 173.179 318.077 173.175 318.077 173.172C318.077 173.168 318.077 173.164 318.077 173.16C318.077 173.156 318.077 173.152 318.077 173.148C318.077 173.144 318.077 173.14 318.077 173.137C318.077 173.133 318.077 173.129 318.077 173.125C318.077 173.121 318.077 173.117 318.077 173.113C318.077 173.109 318.077 173.105 318.077 173.101C318.077 173.098 318.077 173.094 318.077 173.09C318.077 173.086 318.077 173.082 318.077 173.078C318.077 173.074 318.077 173.07 318.077 173.066C318.077 173.062 318.077 173.059 318.077 173.055C318.077 173.051 318.077 173.047 318.077 173.043C318.077 173.039 318.077 173.035 318.077 173.031C318.077 173.027 318.077 173.023 318.077 173.02C318.077 173.016 318.077 173.012 318.077 173.008C318.077 173.004 318.077 173 318.077 172.996C318.077 172.992 318.077 172.988 318.077 172.984C318.077 172.98 318.077 172.977 318.077 172.973C318.077 172.969 318.077 172.965 318.077 172.961C318.077 172.957 318.077 172.953 318.077 172.949C318.077 172.945 318.077 172.941 318.077 172.937C318.077 172.934 318.077 172.93 318.077 172.926C318.077 172.922 318.077 172.918 318.077 172.914C318.077 172.91 318.077 172.906 318.077 172.902C318.077 172.898 318.077 172.894 318.077 172.891C318.077 172.887 318.077 172.883 318.077 172.879C318.077 172.875 318.077 172.871 318.077 172.867C318.077 172.863 318.077 172.859 318.077 172.855C318.077 172.851 318.077 172.847 318.077 172.844C318.077 172.84 318.077 172.836 318.077 172.832C318.077 172.828 318.077 172.824 318.077 172.82C318.077 172.816 318.077 172.812 318.077 172.808C318.077 172.804 318.077 172.8 318.077 172.796C318.077 172.793 318.077 172.789 318.077 172.785C318.077 172.781 318.077 172.777 318.077 172.773C318.077 172.769 318.077 172.765 318.077 172.761C318.077 172.757 318.077 172.753 318.077 172.749C318.077 172.745 318.077 172.742 318.077 172.738C318.077 172.734 318.077 172.73 318.077 172.726C318.077 172.722 318.077 172.718 318.077 172.714C318.077 172.71 318.077 172.706 318.077 172.702C318.077 172.698 318.077 172.694 318.077 172.69C318.077 172.687 318.077 172.683 318.077 172.679C318.077 172.675 318.077 172.671 318.077 172.667C318.077 172.663 318.077 172.659 318.077 172.655C318.077 172.651 318.077 172.647 318.077 172.643C318.077 172.639 318.077 172.635 318.077 172.631C318.077 172.628 318.077 172.624 318.077 172.62C318.077 172.616 318.077 172.612 318.077 172.608C318.077 172.604 318.077 172.6 318.077 172.596C318.077 172.592 318.077 172.588 318.077 172.584C318.077 172.58 318.077 172.576 318.077 172.572C318.077 172.568 318.077 172.565 318.077 172.561C318.077 172.557 318.077 172.553 318.077 172.549C318.077 172.545 318.077 172.541 318.077 172.537C318.077 172.533 318.077 172.529 318.077 172.525C318.077 172.521 318.077 172.517 318.077 172.513C318.077 172.509 318.077 172.505 318.077 172.501C318.077 172.497 318.077 172.494 318.077 172.49C318.077 172.486 318.077 172.482 318.077 172.478C318.077 172.474 318.077 172.47 318.077 172.466C318.077 172.462 318.077 172.458 318.077 172.454C318.077 172.45 318.077 172.446 318.077 172.442C318.077 172.438 318.077 172.434 318.077 172.43C318.077 172.426 318.077 172.422 318.077 172.419C318.077 172.415 318.077 172.411 318.077 172.407C318.077 172.403 318.077 172.399 318.077 172.395C318.077 172.391 318.077 172.387 318.077 172.383C318.077 172.379 318.077 172.375 318.077 172.371C318.077 172.367 318.077 172.363 318.077 172.359C318.077 172.355 318.077 172.351 318.077 172.347C318.077 172.343 318.077 172.339 318.077 172.335C318.077 172.332 318.077 172.328 318.077 172.324C318.077 172.32 318.077 172.316 318.077 172.312C318.077 172.308 318.077 172.304 318.077 172.3C318.077 172.296 318.077 172.292 318.077 172.288C318.077 172.284 318.077 172.28 318.077 172.276C318.077 172.272 318.077 172.268 318.077 172.264C318.077 172.26 318.077 172.256 318.077 172.252C318.077 172.248 318.077 172.244 318.077 172.24C318.077 172.236 318.077 172.232 318.077 172.229C318.077 172.225 318.077 172.221 318.077 172.217C318.077 172.213 318.077 172.209 318.077 172.205C318.077 172.201 318.077 172.197 318.077 172.193C318.077 172.189 318.077 172.185 318.077 172.181C318.077 172.177 318.077 172.173 318.077 172.169C318.077 172.165 318.077 172.161 318.077 172.157C318.077 172.153 318.077 172.149 318.077 172.145C318.077 172.141 318.077 172.137 318.077 172.133C318.077 172.129 318.077 172.125 318.077 172.121C318.077 172.117 318.077 172.113 318.077 172.109C318.077 172.105 318.077 172.101 318.077 172.097C318.077 172.093 318.077 172.09 318.077 172.086C318.077 172.082 318.077 172.078 318.077 172.074C318.077 172.07 318.077 172.066 318.077 172.062C318.077 172.058 318.077 172.054 318.077 172.05C318.077 172.046 318.077 172.042 318.077 172.038C318.077 172.034 318.077 172.03 318.077 172.026C318.077 172.022 318.077 172.018 318.077 172.014C318.077 172.01 318.077 172.006 318.077 172.002C318.077 171.998 318.077 171.994 318.077 171.99C318.077 171.986 318.077 171.982 318.077 171.978C318.077 171.974 318.077 171.97 318.077 171.966C318.077 171.962 318.077 171.958 318.077 171.954C318.077 171.95 318.077 171.946 318.077 171.942C318.077 171.938 318.077 171.934 318.077 171.93C318.077 171.926 318.077 171.922 318.077 171.918C318.077 171.914 318.077 171.91 318.077 171.906C318.077 171.902 318.077 171.898 318.077 171.894C318.077 171.89 318.077 171.886 318.077 171.882C318.077 171.878 318.077 171.874 318.077 171.87C318.077 171.866 318.077 171.862 318.077 171.858C318.077 171.854 318.077 171.85 318.077 171.846C318.077 171.842 318.077 171.838 318.077 171.834C318.077 171.83 318.077 171.826 318.077 171.822C318.077 171.818 318.077 171.814 318.077 171.81C318.077 171.806 318.077 171.802 318.077 171.798C318.077 171.794 318.077 171.79 318.077 171.786C318.077 171.782 318.077 171.778 318.077 171.774C318.077 171.77 318.077 171.766 318.077 171.762C318.077 171.758 318.077 171.754 318.077 171.75C318.077 171.746 318.077 171.742 318.077 171.738C318.077 171.734 318.077 171.73 318.077 171.726C318.077 171.722 318.077 171.718 318.077 171.714C318.077 171.71 318.077 171.706 318.077 171.702C318.077 171.698 318.077 171.694 318.077 171.69C318.077 171.686 318.077 171.682 318.077 171.678C318.077 171.674 318.077 171.67 318.077 171.666C318.077 171.662 318.077 171.658 318.077 171.654C318.077 171.65 318.077 171.646 318.077 171.642C318.077 171.638 318.077 171.634 318.077 171.63C318.077 171.626 318.077 171.622 318.077 171.618C318.077 171.614 318.077 171.61 318.077 171.606C318.077 171.602 318.077 171.598 318.077 171.594C318.077 171.59 318.077 171.586 318.077 171.582C318.077 171.578 318.077 171.574 318.077 171.57C318.077 171.566 318.077 171.562 318.077 171.558C318.077 171.554 318.077 171.55 318.077 171.546C318.077 171.542 318.077 171.538 318.077 171.534C318.077 171.53 318.077 171.526 318.077 171.522C318.077 171.518 318.077 171.514 318.077 171.51C318.077 171.506 318.077 171.502 318.077 171.498C318.077 171.494 318.077 171.49 318.077 171.486C318.077 171.482 318.077 171.477 318.077 171.473C318.077 171.469 318.077 171.465 318.077 171.461C318.077 171.457 318.077 171.453 318.077 171.449C318.077 171.445 318.077 171.441 318.077 171.437C318.077 171.433 318.077 171.429 318.077 171.425C318.077 171.421 318.077 171.417 318.077 171.413C318.077 171.409 318.077 171.405 318.077 171.401C318.077 171.397 318.077 171.393 318.077 171.389C318.077 171.385 318.077 171.381 318.077 171.377C318.077 171.373 318.077 171.369 318.077 171.365C318.077 171.361 318.077 171.357 318.077 171.353C318.077 171.349 318.077 171.345 318.077 171.341C318.077 171.336 318.077 171.332 318.077 171.328C318.077 171.324 318.077 171.32 318.077 171.316C318.077 171.312 318.077 171.308 318.077 171.304C318.077 171.3 318.077 171.296 318.077 171.292C318.077 171.288 318.077 171.284 318.077 171.28C318.077 171.276 318.077 171.272 318.077 171.268C318.077 171.264 318.077 171.26 318.077 171.256C318.077 171.252 318.077 171.248 318.077 171.244C318.077 171.24 318.077 171.236 318.077 171.231C318.077 171.227 318.077 171.223 318.077 171.219C318.077 171.215 318.077 171.211 318.077 171.207C318.077 171.203 318.077 171.199 318.077 171.195C318.077 171.191 318.077 171.187 318.077 171.183C318.077 171.179 318.077 171.175 318.077 171.171C318.077 171.167 318.077 171.163 318.077 171.159C318.077 171.155 318.077 171.151 318.077 171.147C318.077 171.143 318.077 171.138 318.077 171.134C318.077 171.13 318.077 171.126 318.077 171.122C318.077 171.118 318.077 171.114 318.077 171.11C318.077 171.106 318.077 171.102 318.077 171.098C318.077 171.094 318.077 171.09 318.077 171.086C318.077 171.082 318.077 171.078 318.077 171.074C318.077 171.07 318.077 171.066 318.077 171.061C318.077 171.057 318.077 171.053 318.077 171.049C318.077 171.045 318.077 171.041 318.077 171.037C318.077 171.033 318.077 171.029 318.077 171.025C318.077 171.021 318.077 171.017 318.077 171.013C318.077 171.009 318.077 171.005 318.077 171.001C318.077 170.997 318.077 170.992 318.077 170.988C318.077 170.984 318.077 170.98 318.077 170.976C318.077 170.972 318.077 170.968 318.077 170.964C318.077 170.96 318.077 170.956 318.077 170.952C318.077 170.948 318.077 170.944 318.077 170.94C318.077 170.936 318.077 170.932 318.077 170.927C318.077 170.923 318.077 170.919 318.077 170.915C318.077 170.911 318.077 170.907 318.077 170.903C318.077 170.899 318.077 170.895 318.077 170.891C318.077 170.887 318.077 170.883 318.077 170.879C318.077 170.875 318.077 170.871 318.077 170.866C318.077 170.862 318.077 170.858 318.077 170.854C318.077 170.85 318.077 170.846 318.077 170.842C318.077 170.838 318.077 170.834 318.077 170.83C318.077 170.826 318.077 170.822 318.077 170.818C318.077 170.814 318.077 170.809 318.077 170.805C318.077 170.801 318.077 170.797 318.077 170.793C318.077 170.789 318.077 170.785 318.077 170.781C318.077 170.777 318.077 170.773 318.077 170.769C318.077 170.765 318.077 170.761 318.077 170.756C318.077 170.752 318.077 170.748 318.077 170.744C318.077 170.74 318.077 170.736 318.077 170.732C318.077 170.728 318.077 170.724 318.077 170.72C318.077 170.716 318.077 170.712 318.077 170.708C318.077 170.703 318.077 170.699 318.077 170.695C318.077 170.691 318.077 170.687 318.077 170.683C318.077 170.679 318.077 170.675 318.077 170.671C318.077 170.667 318.077 170.663 318.077 170.659C318.077 170.654 318.077 170.65 318.077 170.646C318.077 170.642 318.077 170.638 318.077 170.634C318.077 170.63 318.077 170.626 318.077 170.622C318.077 170.618 318.077 170.614 318.077 170.609C318.077 170.605 318.077 170.601 318.077 170.597C318.077 170.593 318.077 170.589 318.077 170.585C318.077 170.581 318.077 170.577 318.077 170.573C318.077 170.569 318.077 170.564 318.077 170.56C318.077 170.556 318.077 170.552 318.077 170.548C318.077 170.544 318.077 170.54 318.077 170.536C318.077 170.532 318.077 170.528 318.077 170.524C318.077 170.519 318.077 170.515 318.077 170.511C318.077 170.507 318.077 170.503 318.077 170.499C318.077 170.495 318.077 170.491 318.077 170.487C318.077 170.483 318.077 170.479 318.077 170.474C318.077 170.47 318.077 170.466 318.077 170.462C318.077 170.458 318.077 170.454 318.077 170.45C318.077 170.446 318.077 170.442 318.077 170.438C318.077 170.433 318.077 170.429 318.077 170.425C318.077 170.421 318.077 170.417 318.077 170.413C318.077 170.409 318.077 170.405 318.077 170.401C318.077 170.396 318.077 170.392 318.077 170.388C318.077 170.384 318.077 170.38 318.077 170.376C318.077 170.372 318.077 170.368 318.077 170.364C318.077 170.36 318.077 170.355 318.077 170.351C318.077 170.347 318.077 170.343 318.077 170.339C318.077 170.335 318.077 170.331 318.077 170.327C318.077 170.323 318.077 170.318 318.077 170.314C318.077 170.31 318.077 170.306 318.077 170.302C318.077 170.298 318.077 170.294 318.077 170.29C318.077 170.286 318.077 170.281 318.077 170.277C318.077 170.273 318.077 170.269 318.077 170.265C318.077 170.261 318.077 170.257 318.077 170.253C318.077 170.249 318.077 170.244 318.077 170.24C318.077 170.236 318.077 170.232 318.077 170.228C318.077 170.224 318.077 170.22 318.077 170.216C318.077 170.211 318.077 170.207 318.077 170.203C318.077 170.199 318.077 170.195 318.077 170.191C318.077 170.187 318.077 170.183 318.077 170.178C318.077 170.174 318.077 170.17 318.077 170.166C318.077 170.162 318.077 170.158 318.077 170.154C318.077 170.15 318.077 170.146 318.077 170.141C318.077 170.137 318.077 170.133 318.077 170.129C318.077 170.125 318.077 170.121 318.077 170.117C318.077 170.113 318.077 170.108 318.077 170.104C318.077 170.1 318.077 170.096 318.077 170.092C318.077 170.088 318.077 170.084 318.077 170.079C318.077 170.075 318.077 170.071 318.077 170.067C318.077 170.063 318.077 170.059 318.077 170.055C318.077 170.051 318.077 170.046 318.077 170.042C318.077 170.038 318.077 170.034 318.077 170.03C318.077 170.026 318.077 170.022 318.077 170.018C318.077 170.013 318.077 170.009 318.077 170.005C318.077 170.001 318.077 169.997 318.077 169.993C318.077 169.989 318.077 169.984 318.077 169.98C318.077 169.976 318.077 169.972 318.077 169.968C318.077 169.964 318.077 169.96 318.077 169.956C318.077 169.951 318.077 169.947 318.077 169.943C318.077 169.939 318.077 169.935 318.077 169.931C318.077 169.927 318.077 169.922 318.077 169.918C318.077 169.914 318.077 169.91 318.077 169.906C318.077 169.902 318.077 169.898 318.077 169.893C318.077 169.889 318.077 169.885 318.077 169.881C318.077 169.877 318.077 169.873 318.077 169.869C318.077 169.864 318.077 169.86 318.077 169.856C318.077 169.852 318.077 169.848 318.077 169.844C318.077 169.84 318.077 169.835 318.077 169.831C318.077 169.827 318.077 169.823 318.077 169.819C318.077 169.815 318.077 169.811 318.077 169.806C318.077 169.802 318.077 169.798 318.077 169.794C318.077 169.79 318.077 169.786 318.077 169.781C318.077 169.777 318.077 169.773 318.077 169.769C318.077 169.765 318.077 169.761 318.077 169.757C318.077 169.752 318.077 169.748 318.077 169.744C318.077 169.74 318.077 169.736 318.077 169.732C318.077 169.728 318.077 169.723 318.077 169.719C318.077 169.715 318.077 169.711 318.077 169.707C318.077 169.703 318.077 169.698 318.077 169.694C318.077 169.69 318.077 169.686 318.077 169.682C318.077 169.678 318.077 169.673 318.077 169.669C318.077 169.665 318.077 169.661 318.077 169.657C318.077 169.653 318.077 169.649 318.077 169.644C318.077 169.64 318.077 169.636 318.077 169.632C318.077 169.628 318.077 169.624 318.077 169.619C318.077 169.615 318.077 169.611 318.077 169.607C318.077 169.603 318.077 169.599 318.077 169.594C318.077 169.59 318.077 169.586 318.077 169.582C318.077 169.578 318.077 169.574 318.077 169.569C318.077 169.565 318.077 169.561 318.077 169.557C318.077 169.553 318.077 169.549 318.077 169.544C318.077 169.54 318.077 169.536 318.077 169.532C318.077 169.528 318.077 169.524 318.077 169.519C318.077 169.515 318.077 169.511 318.077 169.507C318.077 169.503 318.077 169.499 318.077 169.494C318.077 169.49 318.077 169.486 318.077 169.482C318.077 169.478 318.077 169.474 318.077 169.469C318.077 169.465 318.077 169.461 318.077 169.457C318.077 169.453 318.077 169.449 318.077 169.444C318.077 169.44 318.077 169.436 318.077 169.432C318.077 169.428 318.077 169.423 318.077 169.419C318.077 169.415 318.077 169.411 318.077 169.407C318.077 169.403 318.077 169.398 318.077 169.394C318.077 169.39 318.077 169.386 318.077 169.382C318.077 169.378 318.077 169.373 318.077 169.369C318.077 169.365 318.077 169.361 318.077 169.357C318.077 169.352 318.077 169.348 318.077 169.344C318.077 169.34 318.077 169.336 318.077 169.331C318.077 169.327 318.077 169.323 318.077 169.319C318.077 169.315 318.077 169.311 318.077 169.306C318.077 169.302 318.077 169.298 318.077 169.294C318.077 169.29 318.077 169.285 318.077 169.281C318.077 169.277 318.077 169.273 318.077 169.269C318.077 169.265 318.077 169.26 318.077 169.256C318.077 169.252 318.077 169.248 318.077 169.244C318.077 169.239 318.077 169.235 318.077 169.231C318.077 169.227 318.077 169.223 318.077 169.218C318.077 169.214 318.077 169.21 318.077 169.206C318.077 169.202 318.077 169.197 318.077 169.193C318.077 169.189 318.077 169.185 318.077 169.181C318.077 169.177 318.077 169.172 318.077 169.168C318.077 169.164 318.077 169.16 318.077 169.156C318.077 169.151 318.077 169.147 318.077 169.143C318.077 169.139 318.077 169.135 318.077 169.13C318.077 169.126 318.077 169.122 318.077 169.118C318.077 169.114 318.077 169.109 318.077 169.105C318.077 169.101 318.077 169.097 318.077 169.093C318.077 169.088 318.077 169.084 318.077 169.08C318.077 169.076 318.077 169.072 318.077 169.067C318.077 169.063 318.077 169.059 318.077 169.055C318.077 169.051 318.077 169.046 318.077 169.042C318.077 169.038 318.077 169.034 318.077 169.03C318.077 169.025 318.077 169.021 318.077 169.017C318.077 169.013 318.077 169.008 318.077 169.004C318.077 169 318.077 168.996 318.077 168.992C318.077 168.987 318.077 168.983 318.077 168.979C318.077 168.975 318.077 168.971 318.077 168.966C318.077 168.962 318.077 168.958 318.077 168.954C318.077 168.95 318.077 168.945 318.077 168.941C318.077 168.937 318.077 168.933 318.077 168.929C318.077 168.924 318.077 168.92 318.077 168.916C318.077 168.912 318.077 168.907 318.077 168.903C318.077 168.899 318.077 168.895 318.077 168.891C318.077 168.886 318.077 168.882 318.077 168.878C318.077 168.874 318.077 168.87 318.077 168.865C318.077 168.861 318.077 168.857 318.077 168.853C318.077 168.848 318.077 168.844 318.077 168.84H310.077ZM310.077 174.96C310.077 186.57 312.149 195.926 317.032 202.246L323.362 197.354C320.086 193.114 318.077 185.91 318.077 174.96H310.077ZM317.101 202.333C322.436 208.854 330.629 211.72 340.717 211.72V203.72C332.085 203.72 326.598 201.306 323.293 197.267L317.101 202.333Z" fill="url(#paint0_linear_121_409)" mask="url(#path-1-outside-1_121_409)"/>
<defs>
<linearGradient id="paint0_linear_121_409" x1="-11" y1="132" x2="470" y2="132" gradientUnits="userSpaceOnUse">
<stop stop-color="#6A11CB"/>
<stop offset="1" stop-color="#2575FC"/>
</linearGradient>
</defs>
</svg>
