<svg width="235" height="252" viewBox="0 0 235 252" fill="none" xmlns="http://www.w3.org/2000/svg">
<mask id="path-1-outside-1_121_401" maskUnits="userSpaceOnUse" x="-5" y="-4" width="244" height="260" fill="black">
<rect fill="white" x="-5" y="-4" width="244" height="260"/>
<path d="M0.28 252L3.52 234.72C5.68 223.68 10.12 213.36 16.84 203.76C23.56 194.16 31.72 185.16 41.32 176.76C50.92 168.12 61.12 159.96 71.92 152.28C82.96 144.6 93.76 137.4 104.32 130.68C115.12 123.72 124.84 117 133.48 110.52C142.36 103.8 149.44 97.32 154.72 91.08C160 84.6 162.64 78.12 162.64 71.64C162.64 66.12 160.6 61.32 156.52 57.24C152.44 52.92 145.6 50.76 136 50.76C128.56 50.76 121.96 52.2 116.2 55.08C110.44 57.96 105.76 62.04 102.16 67.32C98.56 72.36 96.16 78.12 94.96 84.6L93.88 91.8H28.72C30.16 76.68 33.88 63.36 39.88 51.84C46.12 40.32 54.28 30.72 64.36 23.04C74.68 15.36 86.56 9.59999 100 5.75999C113.68 1.91999 128.56 -1.71661e-05 144.64 -1.71661e-05C162.64 -1.71661e-05 178.36 2.87998 191.8 8.63998C205.48 14.16 216.04 21.96 223.48 32.04C231.16 41.88 235 53.28 235 66.24C235 75.36 233.56 83.88 230.68 91.8C228.04 99.72 224.2 107.16 219.16 114.12C214.36 120.84 208.6 127.2 201.88 133.2C195.4 139.2 188.32 144.96 180.64 150.48C172.96 156 165.04 161.28 156.88 166.32C148.72 171.36 140.44 176.4 132.04 181.44C129.88 182.64 127.48 184.2 124.84 186.12C122.44 188.04 120.4 189.72 118.72 191.16H216.28L205.48 252H0.28Z"/>
</mask>
<path d="M0.28 252L-3.65149 251.263L-4.53971 256H0.28V252ZM3.52 234.72L-0.405571 233.952L-0.40859 233.967L-0.411489 233.983L3.52 234.72ZM16.84 203.76L20.1169 206.054L20.1169 206.054L16.84 203.76ZM41.32 176.76L43.954 179.77L43.9751 179.752L43.9959 179.733L41.32 176.76ZM71.92 152.28L69.6357 148.996L69.6188 149.008L69.6019 149.02L71.92 152.28ZM104.32 130.68L106.468 134.055L106.477 134.048L106.487 134.042L104.32 130.68ZM133.48 110.52L135.88 113.72L135.887 113.715L135.894 113.71L133.48 110.52ZM154.72 91.08L157.774 93.6638L157.798 93.6354L157.821 93.6067L154.72 91.08ZM156.52 57.24L153.612 59.9865L153.651 60.028L153.692 60.0684L156.52 57.24ZM116.2 55.08L114.411 51.5023L114.411 51.5023L116.2 55.08ZM102.16 67.32L105.415 69.645L105.44 69.6094L105.465 69.5733L102.16 67.32ZM94.96 84.6L91.0269 83.8716L91.0144 83.9389L91.0043 84.0066L94.96 84.6ZM93.88 91.8V95.8H97.3248L97.8358 92.3934L93.88 91.8ZM28.72 91.8L24.738 91.4208L24.321 95.8H28.72V91.8ZM39.88 51.84L36.3628 49.9348L36.3474 49.9634L36.3323 49.9922L39.88 51.84ZM64.36 23.04L61.972 19.8311L61.9538 19.8446L61.9358 19.8583L64.36 23.04ZM100 5.75999L98.919 1.90884L98.91 1.91135L98.9011 1.9139L100 5.75999ZM191.8 8.63998L190.224 12.3166L190.264 12.3334L190.303 12.3494L191.8 8.63998ZM223.48 32.04L220.262 34.4154L220.294 34.4587L220.327 34.5011L223.48 32.04ZM230.68 91.8L226.921 90.433L226.902 90.4838L226.885 90.5351L230.68 91.8ZM219.16 114.12L215.92 111.774L215.913 111.784L215.905 111.795L219.16 114.12ZM201.88 133.2L199.216 130.216L199.189 130.24L199.162 130.265L201.88 133.2ZM156.88 166.32L158.982 169.723L158.982 169.723L156.88 166.32ZM132.04 181.44L133.983 184.937L134.041 184.904L134.098 184.87L132.04 181.44ZM124.84 186.12L122.487 182.885L122.413 182.939L122.341 182.997L124.84 186.12ZM118.72 191.16L116.117 188.123L107.907 195.16H118.72V191.16ZM216.28 191.16L220.218 191.859L221.053 187.16H216.28V191.16ZM205.48 252V256H208.832L209.418 252.699L205.48 252ZM4.21149 252.737L7.45149 235.457L-0.411489 233.983L-3.65149 251.263L4.21149 252.737ZM7.44557 235.488C9.49381 225.019 13.7037 215.216 20.1169 206.054L13.5631 201.466C6.53633 211.504 1.86619 222.341 -0.405571 233.952L7.44557 235.488ZM20.1169 206.054C26.6367 196.74 34.5752 187.977 43.954 179.77L38.686 173.75C28.8648 182.343 20.4833 191.58 13.5631 201.466L20.1169 206.054ZM43.9959 179.733C53.4793 171.198 63.5595 163.133 74.2381 155.54L69.6019 149.02C58.6805 156.787 48.3607 165.042 38.6441 173.787L43.9959 179.733ZM74.2043 155.564C85.2026 147.913 95.957 140.743 106.468 134.055L102.172 127.305C91.563 134.057 80.7174 141.287 69.6357 148.996L74.2043 155.564ZM106.487 134.042C117.352 127.04 127.152 120.266 135.88 113.72L131.08 107.32C122.528 113.734 112.888 120.4 102.153 127.318L106.487 134.042ZM135.894 113.71C144.93 106.871 152.249 100.193 157.774 93.6638L151.666 88.4962C146.631 94.447 139.79 100.729 131.066 107.33L135.894 113.71ZM157.821 93.6067C163.511 86.623 166.64 79.2792 166.64 71.64H158.64C158.64 76.9607 156.489 82.577 151.619 88.5533L157.821 93.6067ZM166.64 71.64C166.64 65.0068 164.141 59.2038 159.348 54.4116L153.692 60.0684C157.059 63.4361 158.64 67.2332 158.64 71.64H166.64ZM159.428 54.4935C154.237 48.9973 146.046 46.76 136 46.76V54.76C145.154 54.76 150.643 56.8427 153.612 59.9865L159.428 54.4935ZM136 46.76C128.036 46.76 120.807 48.3044 114.411 51.5023L117.989 58.6577C123.113 56.0956 129.084 54.76 136 54.76V46.76ZM114.411 51.5023C108.046 54.6848 102.842 59.2186 98.8551 65.0667L105.465 69.5733C108.678 64.8614 112.834 61.2352 117.989 58.6577L114.411 51.5023ZM98.9051 64.995C94.9434 70.5414 92.3265 76.8538 91.0269 83.8716L98.8931 85.3283C99.9935 79.3862 102.177 74.1786 105.415 69.645L98.9051 64.995ZM91.0043 84.0066L89.9243 91.2066L97.8358 92.3934L98.9157 85.1933L91.0043 84.0066ZM93.88 87.8H28.72V95.8H93.88V87.8ZM32.702 92.1792C34.1013 77.4866 37.7024 64.6803 43.4277 53.6877L36.3323 49.9922C30.0576 62.0397 26.2187 75.8734 24.738 91.4208L32.702 92.1792ZM43.3972 53.7451C49.3767 42.7059 57.1702 33.5467 66.7842 26.2217L61.9358 19.8583C51.3898 27.8933 42.8633 37.934 36.3628 49.9348L43.3972 53.7451ZM66.748 26.2489C76.6481 18.8815 88.0832 13.3248 101.099 9.60609L98.9011 1.9139C85.0368 5.87513 72.712 11.8385 61.972 19.8311L66.748 26.2489ZM101.081 9.61115C114.366 5.8819 128.878 3.99998 144.64 3.99998V-4.00002C128.242 -4.00002 112.994 -2.04193 98.919 1.90884L101.081 9.61115ZM144.64 3.99998C162.22 3.99998 177.383 6.81316 190.224 12.3166L193.376 4.9634C179.337 -1.0532 163.06 -4.00002 144.64 -4.00002V3.99998ZM190.303 12.3494C203.42 17.6423 213.334 25.0293 220.262 34.4154L226.698 29.6646C218.746 18.8906 207.54 10.6777 193.297 4.93058L190.303 12.3494ZM220.327 34.5011C227.436 43.6096 231 54.135 231 66.24H239C239 52.4249 234.884 40.1504 226.633 29.5789L220.327 34.5011ZM231 66.24C231 74.9322 229.629 82.9859 226.921 90.433L234.439 93.167C237.491 84.7741 239 75.7878 239 66.24H231ZM226.885 90.5351C224.378 98.0573 220.728 105.134 215.92 111.774L222.4 116.466C227.672 109.186 231.702 101.383 234.475 93.0649L226.885 90.5351ZM215.905 111.795C211.292 118.254 205.735 124.396 199.216 130.216L204.544 136.184C211.465 130.004 217.428 123.426 222.415 116.445L215.905 111.795ZM199.162 130.265C192.812 136.145 185.861 141.802 178.305 147.232L182.975 153.728C190.779 148.118 197.988 142.255 204.598 136.135L199.162 130.265ZM178.305 147.232C170.702 152.697 162.86 157.925 154.778 162.917L158.982 169.723C167.22 164.635 175.218 159.303 182.975 153.728L178.305 147.232ZM154.778 162.917C146.633 167.948 138.368 172.979 129.982 178.01L134.098 184.87C142.512 179.821 150.807 174.772 158.982 169.723L154.778 162.917ZM130.097 177.943C127.759 179.243 125.22 180.898 122.487 182.885L127.193 189.355C129.74 187.502 132.001 186.037 133.983 184.937L130.097 177.943ZM122.341 182.997C119.918 184.935 117.841 186.645 116.117 188.123L121.323 194.197C122.959 192.795 124.962 191.145 127.339 189.243L122.341 182.997ZM118.72 195.16H216.28V187.16H118.72V195.16ZM212.342 190.461L201.542 251.301L209.418 252.699L220.218 191.859L212.342 190.461ZM205.48 248H0.28V256H205.48V248Z" fill="url(#paint0_linear_121_401)" mask="url(#path-1-outside-1_121_401)"/>
<defs>
<linearGradient id="paint0_linear_121_401" x1="1" y1="126.5" x2="242" y2="126.5" gradientUnits="userSpaceOnUse">
<stop stop-color="#6A11CB"/>
<stop offset="1" stop-color="#2575FC"/>
</linearGradient>
</defs>
</svg>
