<svg width="234" height="260" viewBox="0 0 234 252" fill="none" xmlns="http://www.w3.org/2000/svg">
<mask id="path-1-outside-1_121_403" maskUnits="userSpaceOnUse" x="-5" y="-4" width="244" height="260" fill="black">
<rect fill="white" x="-5" y="-4" width="244" height="260"/>
<path d="M112.32 252L121.32 201.24H0.72L10.08 147.6C19.92 136.08 30.36 122.52 41.4 106.92C52.68 91.08 63.6 74.04 74.16 55.8C84.72 37.32 93.96 18.72 101.88 -1.71661e-05H176.04C173.64 7.91998 169.32 16.92 163.08 27C157.08 37.08 149.88 47.76 141.48 59.04C133.32 70.32 124.56 81.48 115.2 92.52C105.84 103.32 96.48 113.64 87.12 123.48C78 133.08 69.48 141.36 61.56 148.32H130.68L138.96 100.08C142.8 95.76 147.24 90.36 152.28 83.88C157.32 77.16 162.36 70.2 167.4 63C172.44 55.8 177 48.72 181.08 41.76C185.16 34.8 188.28 28.8 190.44 23.76H221.04L199.08 148.32H233.64L224.28 201.24H189.72L180.72 252H112.32Z"/>
</mask>
<path d="M112.32 252L108.381 251.302L107.548 256H112.32V252ZM121.32 201.24L125.259 201.938L126.092 197.24H121.32V201.24ZM0.72 201.24L-3.22046 200.552L-4.03843 205.24H0.72V201.24ZM10.08 147.6L7.03851 145.002L6.32768 145.834L6.13954 146.912L10.08 147.6ZM41.4 106.92L38.1417 104.6L38.1349 104.609L41.4 106.92ZM74.16 55.8L77.6217 57.8041L77.6274 57.7944L77.633 57.7845L74.16 55.8ZM101.88 -1.52588e-05V-4.00002H99.2291L98.1961 -1.55858L101.88 -1.52588e-05ZM176.04 -1.52588e-05L179.868 1.16001L181.432 -4.00002H176.04V-1.52588e-05ZM163.08 27L159.679 24.8946L159.661 24.9242L159.643 24.9541L163.08 27ZM141.48 59.04L138.272 56.6509L138.255 56.6731L138.239 56.6955L141.48 59.04ZM115.2 92.52L118.223 95.1397L118.237 95.1233L118.251 95.1067L115.2 92.52ZM87.12 123.48L84.2218 120.723L84.22 120.725L87.12 123.48ZM61.56 148.32L58.9195 145.315L50.9487 152.32H61.56V148.32ZM130.68 148.32V152.32H134.052L134.622 148.997L130.68 148.32ZM138.96 100.08L135.97 97.4225L135.211 98.2768L135.018 99.4033L138.96 100.08ZM152.28 83.88L155.437 86.3358L155.459 86.3081L155.48 86.28L152.28 83.88ZM167.4 63L164.123 60.7061H164.123L167.4 63ZM181.08 41.76L177.629 39.7371V39.7371L181.08 41.76ZM190.44 23.76V19.76H187.802L186.763 22.1843L190.44 23.76ZM221.04 23.76L224.979 24.4545L225.807 19.76H221.04V23.76ZM199.08 148.32L195.141 147.626L194.313 152.32H199.08V148.32ZM233.64 148.32L237.579 149.017L238.41 144.32H233.64V148.32ZM224.28 201.24V205.24H227.635L228.219 201.937L224.28 201.24ZM189.72 201.24V197.24H186.367L185.781 200.542L189.72 201.24ZM180.72 252V256H184.073L184.659 252.698L180.72 252ZM116.259 252.698L125.259 201.938L117.381 200.542L108.381 251.302L116.259 252.698ZM121.32 197.24H0.72V205.24H121.32V197.24ZM4.66046 201.928L14.0205 148.288L6.13954 146.912L-3.22046 200.552L4.66046 201.928ZM13.1215 150.198C23.0576 138.565 33.5721 124.905 44.6651 109.231L38.1349 104.609C27.1479 120.134 16.7825 133.594 7.03851 145.002L13.1215 150.198ZM44.6583 109.24C56.0167 93.2901 67.0041 76.1437 77.6217 57.8041L70.6983 53.7958C60.196 71.9363 49.3433 88.8699 38.1417 104.6L44.6583 109.24ZM77.633 57.7845C88.268 39.1733 97.5793 20.4313 105.564 1.55854L98.1961 -1.55858C90.3407 17.0087 81.172 35.4667 70.687 53.8154L77.633 57.7845ZM101.88 3.99998H176.04V-4.00002H101.88V3.99998ZM172.212 -1.16005C169.946 6.3186 165.808 14.9941 159.679 24.8946L166.481 29.1054C172.832 18.8459 177.334 9.52137 179.868 1.16001L172.212 -1.16005ZM159.643 24.9541C153.725 34.8954 146.605 45.4604 138.272 56.6509L144.688 61.4291C153.155 50.0596 160.435 39.2646 166.517 29.0459L159.643 24.9541ZM138.239 56.6955C130.142 67.8891 121.445 78.9685 112.149 89.9333L118.251 95.1067C127.675 83.9915 136.498 72.7508 144.721 61.3845L138.239 56.6955ZM112.177 89.9003C102.856 100.656 93.5371 110.93 84.2218 120.723L90.0182 126.237C99.4229 116.35 108.824 105.984 118.223 95.1397L112.177 89.9003ZM84.22 120.725C75.1629 130.259 66.73 138.452 58.9195 145.315L64.2005 151.325C72.23 144.268 80.8371 135.901 90.02 126.235L84.22 120.725ZM61.56 152.32H130.68V144.32H61.56V152.32ZM134.622 148.997L142.902 100.757L135.018 99.4033L126.738 147.643L134.622 148.997ZM141.95 102.737C145.866 98.3313 150.364 92.8587 155.437 86.3358L149.123 81.4242C144.116 87.8613 139.734 93.1887 135.97 97.4225L141.95 102.737ZM155.48 86.28C160.547 79.5235 165.613 72.528 170.677 65.2938L164.123 60.7061C159.107 67.872 154.093 74.7965 149.08 81.48L155.48 86.28ZM170.677 65.2938C175.773 58.0136 180.392 50.8433 184.531 43.7829L177.629 39.7371C173.608 46.5967 169.107 53.5864 164.123 60.7061L170.677 65.2938ZM184.531 43.7829C188.66 36.7391 191.868 30.5825 194.117 25.3357L186.763 22.1843C184.692 27.0175 181.66 32.8609 177.629 39.7371L184.531 43.7829ZM190.44 27.76H221.04V19.76H190.44V27.76ZM217.101 23.0655L195.141 147.626L203.019 149.014L224.979 24.4545L217.101 23.0655ZM199.08 152.32H233.64V144.32H199.08V152.32ZM229.701 147.623L220.341 200.543L228.219 201.937L237.579 149.017L229.701 147.623ZM224.28 197.24H189.72V205.24H224.28V197.24ZM185.781 200.542L176.781 251.302L184.659 252.698L193.659 201.938L185.781 200.542ZM180.72 248H112.32V256H180.72V248Z" fill="url(#paint0_linear_121_403)" mask="url(#path-1-outside-1_121_403)"/>
<defs>
<linearGradient id="paint0_linear_121_403" x1="0" y1="132" x2="241" y2="132" gradientUnits="userSpaceOnUse">
<stop stop-color="#6A11CB"/>
<stop offset="1" stop-color="#2575FC"/>
</linearGradient>
</defs>
</svg>
