<svg width="224" height="260" viewBox="0 0 224 253" fill="none" xmlns="http://www.w3.org/2000/svg">
<mask id="path-1-outside-1_121_404" maskUnits="userSpaceOnUse" x="-4" y="-4" width="233" height="261" fill="black">
<rect fill="white" x="-4" y="-4" width="233" height="261"/>
<path d="M100.44 252.32C78.84 252.32 60.6 249.44 45.72 243.68C30.84 237.92 19.56 229.88 11.88 219.56C4.2 209 0.36 196.76 0.36 182.84C0.36 180.44 0.48 178.04 0.72 175.64C0.96 173 1.32 170.48 1.8 168.08H65.16C64.92 169.28 64.68 170.48 64.44 171.68C64.44 172.64 64.44 173.72 64.44 174.92C64.44 180.2 65.64 185 68.04 189.32C70.44 193.4 74.04 196.64 78.84 199.04C83.88 201.44 90.12 202.64 97.56 202.64C104.52 202.64 110.76 201.56 116.28 199.4C121.8 197 126.48 193.76 130.32 189.68C134.4 185.36 137.52 180.56 139.68 175.28C141.84 169.76 142.92 164 142.92 158C142.92 149.36 140.16 142.4 134.64 137.12C129.36 131.6 121.44 128.84 110.88 128.84C102.96 128.84 96.48 130.04 91.44 132.44C86.4 134.84 82.44 137.48 79.56 140.36C76.92 143 74.76 145.16 73.08 146.84L17.64 138.92L52.56 0.319992H223.92L213.12 61.52H95.4L85.68 98.96C88.08 97.04 91.44 94.88 95.76 92.48C100.08 89.84 105.6 87.56 112.32 85.64C119.28 83.72 127.68 82.76 137.52 82.76C153.12 82.76 166.56 85.52 177.84 91.04C189.36 96.56 198.24 104.48 204.48 114.8C210.96 124.88 214.2 137 214.2 151.16C214.2 171.56 209.16 189.32 199.08 204.44C189 219.56 175.32 231.32 158.04 239.72C141 248.12 121.8 252.32 100.44 252.32Z"/>
</mask>
<path d="M45.72 243.68L44.276 247.41L45.72 243.68ZM11.88 219.56L8.64506 221.913L8.65796 221.93L8.67107 221.948L11.88 219.56ZM0.72 175.64L4.70015 176.038L4.70194 176.02L4.70357 176.002L0.72 175.64ZM1.8 168.08V164.08H-1.47922L-2.12232 167.296L1.8 168.08ZM65.16 168.08L69.0823 168.864L70.0392 164.08H65.16V168.08ZM64.44 171.68L60.5177 170.896L60.44 171.284V171.68H64.44ZM68.04 189.32L64.5434 191.263L64.5673 191.306L64.5923 191.348L68.04 189.32ZM78.84 199.04L77.0512 202.618L77.0855 202.635L77.1203 202.651L78.84 199.04ZM116.28 199.4L117.738 203.125L117.807 203.098L117.875 203.068L116.28 199.4ZM130.32 189.68L127.412 186.934L127.407 186.939L130.32 189.68ZM139.68 175.28L143.382 176.795L143.394 176.766L143.405 176.738L139.68 175.28ZM134.64 137.12L131.749 139.885L131.811 139.949L131.875 140.011L134.64 137.12ZM91.44 132.44L93.1597 136.051H93.1597L91.44 132.44ZM79.56 140.36L76.7316 137.532V137.532L79.56 140.36ZM73.08 146.84L72.5143 150.8L74.4942 151.083L75.9084 149.668L73.08 146.84ZM17.64 138.92L13.7612 137.943L12.6757 142.251L17.0743 142.88L17.64 138.92ZM52.56 0.319992V-3.68001H49.4428L48.6812 -0.657257L52.56 0.319992ZM223.92 0.319992L227.859 1.01513L228.688 -3.68001H223.92V0.319992ZM213.12 61.52V65.52H216.476L217.059 62.2151L213.12 61.52ZM95.4 61.52V57.52H92.3059L91.5284 60.5149L95.4 61.52ZM85.68 98.96L81.8083 97.9548L78.7856 109.598L88.1788 102.083L85.68 98.96ZM95.76 92.48L97.7026 95.9766L97.7751 95.9364L97.8458 95.8931L95.76 92.48ZM112.32 85.64L111.256 81.784L111.239 81.7889L111.221 81.7939L112.32 85.64ZM177.84 91.04L176.082 94.6329L176.097 94.6401L176.112 94.6473L177.84 91.04ZM204.48 114.8L201.057 116.87L201.086 116.917L201.115 116.963L204.48 114.8ZM199.08 204.44L202.408 206.659L199.08 204.44ZM158.04 239.72L156.291 236.123L156.281 236.127L156.271 236.132L158.04 239.72ZM100.44 248.32C79.1702 248.32 61.4521 245.481 47.164 239.95L44.276 247.41C59.7479 253.399 78.5098 256.32 100.44 256.32V248.32ZM47.164 239.95C32.8183 234.397 22.2218 226.757 15.0889 217.172L8.67107 221.948C16.8982 233.003 28.8617 241.443 44.276 247.41L47.164 239.95ZM15.1149 217.207C7.96592 207.377 4.36 195.974 4.36 182.84H-3.64C-3.64 197.546 0.434086 210.623 8.64506 221.913L15.1149 217.207ZM4.36 182.84C4.36 180.574 4.47331 178.306 4.70015 176.038L-3.26015 175.242C-3.51331 177.774 -3.64 180.306 -3.64 182.84H4.36ZM4.70357 176.002C4.93174 173.492 5.27243 171.114 5.72232 168.864L-2.12232 167.296C-2.63243 169.846 -3.01174 172.508 -3.26357 175.278L4.70357 176.002ZM1.8 172.08H65.16V164.08H1.8V172.08ZM61.2377 167.296C60.9977 168.496 60.7577 169.696 60.5177 170.896L68.3623 172.464C68.6023 171.264 68.8423 170.064 69.0823 168.864L61.2377 167.296ZM60.44 171.68C60.44 171.682 60.44 171.684 60.44 171.686C60.44 171.688 60.44 171.689 60.44 171.691C60.44 171.693 60.44 171.695 60.44 171.697C60.44 171.699 60.44 171.701 60.44 171.703C60.44 171.704 60.44 171.706 60.44 171.708C60.44 171.71 60.44 171.712 60.44 171.714C60.44 171.716 60.44 171.718 60.44 171.719C60.44 171.721 60.44 171.723 60.44 171.725C60.44 171.727 60.44 171.729 60.44 171.731C60.44 171.733 60.44 171.734 60.44 171.736C60.44 171.738 60.44 171.74 60.44 171.742C60.44 171.744 60.44 171.746 60.44 171.748C60.44 171.75 60.44 171.751 60.44 171.753C60.44 171.755 60.44 171.757 60.44 171.759C60.44 171.761 60.44 171.763 60.44 171.765C60.44 171.767 60.44 171.768 60.44 171.77C60.44 171.772 60.44 171.774 60.44 171.776C60.44 171.778 60.44 171.78 60.44 171.782C60.44 171.784 60.44 171.785 60.44 171.787C60.44 171.789 60.44 171.791 60.44 171.793C60.44 171.795 60.44 171.797 60.44 171.799C60.44 171.801 60.44 171.803 60.44 171.804C60.44 171.806 60.44 171.808 60.44 171.81C60.44 171.812 60.44 171.814 60.44 171.816C60.44 171.818 60.44 171.82 60.44 171.821C60.44 171.823 60.44 171.825 60.44 171.827C60.44 171.829 60.44 171.831 60.44 171.833C60.44 171.835 60.44 171.837 60.44 171.839C60.44 171.84 60.44 171.842 60.44 171.844C60.44 171.846 60.44 171.848 60.44 171.85C60.44 171.852 60.44 171.854 60.44 171.856C60.44 171.858 60.44 171.859 60.44 171.861C60.44 171.863 60.44 171.865 60.44 171.867C60.44 171.869 60.44 171.871 60.44 171.873C60.44 171.875 60.44 171.877 60.44 171.879C60.44 171.88 60.44 171.882 60.44 171.884C60.44 171.886 60.44 171.888 60.44 171.89C60.44 171.892 60.44 171.894 60.44 171.896C60.44 171.898 60.44 171.9 60.44 171.901C60.44 171.903 60.44 171.905 60.44 171.907C60.44 171.909 60.44 171.911 60.44 171.913C60.44 171.915 60.44 171.917 60.44 171.919C60.44 171.921 60.44 171.923 60.44 171.924C60.44 171.926 60.44 171.928 60.44 171.93C60.44 171.932 60.44 171.934 60.44 171.936C60.44 171.938 60.44 171.94 60.44 171.942C60.44 171.944 60.44 171.945 60.44 171.947C60.44 171.949 60.44 171.951 60.44 171.953C60.44 171.955 60.44 171.957 60.44 171.959C60.44 171.961 60.44 171.963 60.44 171.965C60.44 171.967 60.44 171.969 60.44 171.97C60.44 171.972 60.44 171.974 60.44 171.976C60.44 171.978 60.44 171.98 60.44 171.982C60.44 171.984 60.44 171.986 60.44 171.988C60.44 171.99 60.44 171.992 60.44 171.994C60.44 171.995 60.44 171.997 60.44 171.999C60.44 172.001 60.44 172.003 60.44 172.005C60.44 172.007 60.44 172.009 60.44 172.011C60.44 172.013 60.44 172.015 60.44 172.017C60.44 172.019 60.44 172.021 60.44 172.022C60.44 172.024 60.44 172.026 60.44 172.028C60.44 172.03 60.44 172.032 60.44 172.034C60.44 172.036 60.44 172.038 60.44 172.04C60.44 172.042 60.44 172.044 60.44 172.046C60.44 172.048 60.44 172.049 60.44 172.051C60.44 172.053 60.44 172.055 60.44 172.057C60.44 172.059 60.44 172.061 60.44 172.063C60.44 172.065 60.44 172.067 60.44 172.069C60.44 172.071 60.44 172.073 60.44 172.075C60.44 172.077 60.44 172.079 60.44 172.08C60.44 172.082 60.44 172.084 60.44 172.086C60.44 172.088 60.44 172.09 60.44 172.092C60.44 172.094 60.44 172.096 60.44 172.098C60.44 172.1 60.44 172.102 60.44 172.104C60.44 172.106 60.44 172.108 60.44 172.11C60.44 172.112 60.44 172.113 60.44 172.115C60.44 172.117 60.44 172.119 60.44 172.121C60.44 172.123 60.44 172.125 60.44 172.127C60.44 172.129 60.44 172.131 60.44 172.133C60.44 172.135 60.44 172.137 60.44 172.139C60.44 172.141 60.44 172.143 60.44 172.145C60.44 172.147 60.44 172.149 60.44 172.15C60.44 172.152 60.44 172.154 60.44 172.156C60.44 172.158 60.44 172.16 60.44 172.162C60.44 172.164 60.44 172.166 60.44 172.168C60.44 172.17 60.44 172.172 60.44 172.174C60.44 172.176 60.44 172.178 60.44 172.18C60.44 172.182 60.44 172.184 60.44 172.186C60.44 172.188 60.44 172.19 60.44 172.191C60.44 172.193 60.44 172.195 60.44 172.197C60.44 172.199 60.44 172.201 60.44 172.203C60.44 172.205 60.44 172.207 60.44 172.209C60.44 172.211 60.44 172.213 60.44 172.215C60.44 172.217 60.44 172.219 60.44 172.221C60.44 172.223 60.44 172.225 60.44 172.227C60.44 172.229 60.44 172.231 60.44 172.233C60.44 172.235 60.44 172.237 60.44 172.239C60.44 172.241 60.44 172.242 60.44 172.244C60.44 172.246 60.44 172.248 60.44 172.25C60.44 172.252 60.44 172.254 60.44 172.256C60.44 172.258 60.44 172.26 60.44 172.262C60.44 172.264 60.44 172.266 60.44 172.268C60.44 172.27 60.44 172.272 60.44 172.274C60.44 172.276 60.44 172.278 60.44 172.28C60.44 172.282 60.44 172.284 60.44 172.286C60.44 172.288 60.44 172.29 60.44 172.292C60.44 172.294 60.44 172.296 60.44 172.298C60.44 172.3 60.44 172.302 60.44 172.304C60.44 172.305 60.44 172.307 60.44 172.309C60.44 172.311 60.44 172.313 60.44 172.315C60.44 172.317 60.44 172.319 60.44 172.321C60.44 172.323 60.44 172.325 60.44 172.327C60.44 172.329 60.44 172.331 60.44 172.333C60.44 172.335 60.44 172.337 60.44 172.339C60.44 172.341 60.44 172.343 60.44 172.345C60.44 172.347 60.44 172.349 60.44 172.351C60.44 172.353 60.44 172.355 60.44 172.357C60.44 172.359 60.44 172.361 60.44 172.363C60.44 172.365 60.44 172.367 60.44 172.369C60.44 172.371 60.44 172.373 60.44 172.375C60.44 172.377 60.44 172.379 60.44 172.381C60.44 172.383 60.44 172.385 60.44 172.387C60.44 172.389 60.44 172.391 60.44 172.393C60.44 172.395 60.44 172.397 60.44 172.399C60.44 172.401 60.44 172.403 60.44 172.405C60.44 172.407 60.44 172.409 60.44 172.411C60.44 172.413 60.44 172.415 60.44 172.417C60.44 172.419 60.44 172.421 60.44 172.423C60.44 172.424 60.44 172.426 60.44 172.428C60.44 172.43 60.44 172.432 60.44 172.434C60.44 172.436 60.44 172.438 60.44 172.44C60.44 172.442 60.44 172.444 60.44 172.446C60.44 172.448 60.44 172.45 60.44 172.452C60.44 172.454 60.44 172.456 60.44 172.458C60.44 172.46 60.44 172.462 60.44 172.464C60.44 172.466 60.44 172.468 60.44 172.47C60.44 172.472 60.44 172.474 60.44 172.476C60.44 172.478 60.44 172.48 60.44 172.482C60.44 172.484 60.44 172.486 60.44 172.488C60.44 172.49 60.44 172.492 60.44 172.494C60.44 172.496 60.44 172.498 60.44 172.5C60.44 172.502 60.44 172.504 60.44 172.506C60.44 172.508 60.44 172.51 60.44 172.512C60.44 172.514 60.44 172.516 60.44 172.518C60.44 172.52 60.44 172.522 60.44 172.524C60.44 172.527 60.44 172.529 60.44 172.531C60.44 172.533 60.44 172.535 60.44 172.537C60.44 172.539 60.44 172.541 60.44 172.543C60.44 172.545 60.44 172.547 60.44 172.549C60.44 172.551 60.44 172.553 60.44 172.555C60.44 172.557 60.44 172.559 60.44 172.561C60.44 172.563 60.44 172.565 60.44 172.567C60.44 172.569 60.44 172.571 60.44 172.573C60.44 172.575 60.44 172.577 60.44 172.579C60.44 172.581 60.44 172.583 60.44 172.585C60.44 172.587 60.44 172.589 60.44 172.591C60.44 172.593 60.44 172.595 60.44 172.597C60.44 172.599 60.44 172.601 60.44 172.603C60.44 172.605 60.44 172.607 60.44 172.609C60.44 172.611 60.44 172.613 60.44 172.615C60.44 172.617 60.44 172.619 60.44 172.621C60.44 172.623 60.44 172.625 60.44 172.627C60.44 172.629 60.44 172.631 60.44 172.633C60.44 172.635 60.44 172.637 60.44 172.639C60.44 172.641 60.44 172.643 60.44 172.646C60.44 172.648 60.44 172.65 60.44 172.652C60.44 172.654 60.44 172.656 60.44 172.658C60.44 172.66 60.44 172.662 60.44 172.664C60.44 172.666 60.44 172.668 60.44 172.67C60.44 172.672 60.44 172.674 60.44 172.676C60.44 172.678 60.44 172.68 60.44 172.682C60.44 172.684 60.44 172.686 60.44 172.688C60.44 172.69 60.44 172.692 60.44 172.694C60.44 172.696 60.44 172.698 60.44 172.7C60.44 172.702 60.44 172.704 60.44 172.706C60.44 172.708 60.44 172.71 60.44 172.713C60.44 172.715 60.44 172.717 60.44 172.719C60.44 172.721 60.44 172.723 60.44 172.725C60.44 172.727 60.44 172.729 60.44 172.731C60.44 172.733 60.44 172.735 60.44 172.737C60.44 172.739 60.44 172.741 60.44 172.743C60.44 172.745 60.44 172.747 60.44 172.749C60.44 172.751 60.44 172.753 60.44 172.755C60.44 172.757 60.44 172.759 60.44 172.761C60.44 172.764 60.44 172.766 60.44 172.768C60.44 172.77 60.44 172.772 60.44 172.774C60.44 172.776 60.44 172.778 60.44 172.78C60.44 172.782 60.44 172.784 60.44 172.786C60.44 172.788 60.44 172.79 60.44 172.792C60.44 172.794 60.44 172.796 60.44 172.798C60.44 172.8 60.44 172.802 60.44 172.804C60.44 172.807 60.44 172.809 60.44 172.811C60.44 172.813 60.44 172.815 60.44 172.817C60.44 172.819 60.44 172.821 60.44 172.823C60.44 172.825 60.44 172.827 60.44 172.829C60.44 172.831 60.44 172.833 60.44 172.835C60.44 172.837 60.44 172.839 60.44 172.841C60.44 172.843 60.44 172.846 60.44 172.848C60.44 172.85 60.44 172.852 60.44 172.854C60.44 172.856 60.44 172.858 60.44 172.86C60.44 172.862 60.44 172.864 60.44 172.866C60.44 172.868 60.44 172.87 60.44 172.872C60.44 172.874 60.44 172.876 60.44 172.878C60.44 172.881 60.44 172.883 60.44 172.885C60.44 172.887 60.44 172.889 60.44 172.891C60.44 172.893 60.44 172.895 60.44 172.897C60.44 172.899 60.44 172.901 60.44 172.903C60.44 172.905 60.44 172.907 60.44 172.909C60.44 172.911 60.44 172.914 60.44 172.916C60.44 172.918 60.44 172.92 60.44 172.922C60.44 172.924 60.44 172.926 60.44 172.928C60.44 172.93 60.44 172.932 60.44 172.934C60.44 172.936 60.44 172.938 60.44 172.94C60.44 172.942 60.44 172.945 60.44 172.947C60.44 172.949 60.44 172.951 60.44 172.953C60.44 172.955 60.44 172.957 60.44 172.959C60.44 172.961 60.44 172.963 60.44 172.965C60.44 172.967 60.44 172.969 60.44 172.972C60.44 172.974 60.44 172.976 60.44 172.978C60.44 172.98 60.44 172.982 60.44 172.984C60.44 172.986 60.44 172.988 60.44 172.99C60.44 172.992 60.44 172.994 60.44 172.996C60.44 172.999 60.44 173.001 60.44 173.003C60.44 173.005 60.44 173.007 60.44 173.009C60.44 173.011 60.44 173.013 60.44 173.015C60.44 173.017 60.44 173.019 60.44 173.021C60.44 173.023 60.44 173.026 60.44 173.028C60.44 173.03 60.44 173.032 60.44 173.034C60.44 173.036 60.44 173.038 60.44 173.04C60.44 173.042 60.44 173.044 60.44 173.046C60.44 173.048 60.44 173.051 60.44 173.053C60.44 173.055 60.44 173.057 60.44 173.059C60.44 173.061 60.44 173.063 60.44 173.065C60.44 173.067 60.44 173.069 60.44 173.071C60.44 173.074 60.44 173.076 60.44 173.078C60.44 173.08 60.44 173.082 60.44 173.084C60.44 173.086 60.44 173.088 60.44 173.09C60.44 173.092 60.44 173.094 60.44 173.097C60.44 173.099 60.44 173.101 60.44 173.103C60.44 173.105 60.44 173.107 60.44 173.109C60.44 173.111 60.44 173.113 60.44 173.115C60.44 173.117 60.44 173.12 60.44 173.122C60.44 173.124 60.44 173.126 60.44 173.128C60.44 173.13 60.44 173.132 60.44 173.134C60.44 173.136 60.44 173.138 60.44 173.141C60.44 173.143 60.44 173.145 60.44 173.147C60.44 173.149 60.44 173.151 60.44 173.153C60.44 173.155 60.44 173.157 60.44 173.159C60.44 173.162 60.44 173.164 60.44 173.166C60.44 173.168 60.44 173.17 60.44 173.172C60.44 173.174 60.44 173.176 60.44 173.178C60.44 173.18 60.44 173.183 60.44 173.185C60.44 173.187 60.44 173.189 60.44 173.191C60.44 173.193 60.44 173.195 60.44 173.197C60.44 173.199 60.44 173.202 60.44 173.204C60.44 173.206 60.44 173.208 60.44 173.21C60.44 173.212 60.44 173.214 60.44 173.216C60.44 173.218 60.44 173.221 60.44 173.223C60.44 173.225 60.44 173.227 60.44 173.229C60.44 173.231 60.44 173.233 60.44 173.235C60.44 173.237 60.44 173.24 60.44 173.242C60.44 173.244 60.44 173.246 60.44 173.248C60.44 173.25 60.44 173.252 60.44 173.254C60.44 173.256 60.44 173.259 60.44 173.261C60.44 173.263 60.44 173.265 60.44 173.267C60.44 173.269 60.44 173.271 60.44 173.273C60.44 173.276 60.44 173.278 60.44 173.28C60.44 173.282 60.44 173.284 60.44 173.286C60.44 173.288 60.44 173.29 60.44 173.292C60.44 173.295 60.44 173.297 60.44 173.299C60.44 173.301 60.44 173.303 60.44 173.305C60.44 173.307 60.44 173.309 60.44 173.312C60.44 173.314 60.44 173.316 60.44 173.318C60.44 173.32 60.44 173.322 60.44 173.324C60.44 173.326 60.44 173.329 60.44 173.331C60.44 173.333 60.44 173.335 60.44 173.337C60.44 173.339 60.44 173.341 60.44 173.343C60.44 173.346 60.44 173.348 60.44 173.35C60.44 173.352 60.44 173.354 60.44 173.356C60.44 173.358 60.44 173.361 60.44 173.363C60.44 173.365 60.44 173.367 60.44 173.369C60.44 173.371 60.44 173.373 60.44 173.375C60.44 173.378 60.44 173.38 60.44 173.382C60.44 173.384 60.44 173.386 60.44 173.388C60.44 173.39 60.44 173.393 60.44 173.395C60.44 173.397 60.44 173.399 60.44 173.401C60.44 173.403 60.44 173.405 60.44 173.407C60.44 173.41 60.44 173.412 60.44 173.414C60.44 173.416 60.44 173.418 60.44 173.42C60.44 173.422 60.44 173.425 60.44 173.427C60.44 173.429 60.44 173.431 60.44 173.433C60.44 173.435 60.44 173.437 60.44 173.44C60.44 173.442 60.44 173.444 60.44 173.446C60.44 173.448 60.44 173.45 60.44 173.452C60.44 173.455 60.44 173.457 60.44 173.459C60.44 173.461 60.44 173.463 60.44 173.465C60.44 173.467 60.44 173.47 60.44 173.472C60.44 173.474 60.44 173.476 60.44 173.478C60.44 173.48 60.44 173.482 60.44 173.485C60.44 173.487 60.44 173.489 60.44 173.491C60.44 173.493 60.44 173.495 60.44 173.498C60.44 173.5 60.44 173.502 60.44 173.504C60.44 173.506 60.44 173.508 60.44 173.51C60.44 173.513 60.44 173.515 60.44 173.517C60.44 173.519 60.44 173.521 60.44 173.523C60.44 173.526 60.44 173.528 60.44 173.53C60.44 173.532 60.44 173.534 60.44 173.536C60.44 173.538 60.44 173.541 60.44 173.543C60.44 173.545 60.44 173.547 60.44 173.549C60.44 173.551 60.44 173.554 60.44 173.556C60.44 173.558 60.44 173.56 60.44 173.562C60.44 173.564 60.44 173.567 60.44 173.569C60.44 173.571 60.44 173.573 60.44 173.575C60.44 173.577 60.44 173.579 60.44 173.582C60.44 173.584 60.44 173.586 60.44 173.588C60.44 173.59 60.44 173.592 60.44 173.595C60.44 173.597 60.44 173.599 60.44 173.601C60.44 173.603 60.44 173.605 60.44 173.608C60.44 173.61 60.44 173.612 60.44 173.614C60.44 173.616 60.44 173.618 60.44 173.621C60.44 173.623 60.44 173.625 60.44 173.627C60.44 173.629 60.44 173.631 60.44 173.634C60.44 173.636 60.44 173.638 60.44 173.64C60.44 173.642 60.44 173.644 60.44 173.647C60.44 173.649 60.44 173.651 60.44 173.653C60.44 173.655 60.44 173.658 60.44 173.66C60.44 173.662 60.44 173.664 60.44 173.666C60.44 173.668 60.44 173.671 60.44 173.673C60.44 173.675 60.44 173.677 60.44 173.679C60.44 173.681 60.44 173.684 60.44 173.686C60.44 173.688 60.44 173.69 60.44 173.692C60.44 173.695 60.44 173.697 60.44 173.699C60.44 173.701 60.44 173.703 60.44 173.705C60.44 173.708 60.44 173.71 60.44 173.712C60.44 173.714 60.44 173.716 60.44 173.718C60.44 173.721 60.44 173.723 60.44 173.725C60.44 173.727 60.44 173.729 60.44 173.732C60.44 173.734 60.44 173.736 60.44 173.738C60.44 173.74 60.44 173.743 60.44 173.745C60.44 173.747 60.44 173.749 60.44 173.751C60.44 173.753 60.44 173.756 60.44 173.758C60.44 173.76 60.44 173.762 60.44 173.764C60.44 173.767 60.44 173.769 60.44 173.771C60.44 173.773 60.44 173.775 60.44 173.778C60.44 173.78 60.44 173.782 60.44 173.784C60.44 173.786 60.44 173.788 60.44 173.791C60.44 173.793 60.44 173.795 60.44 173.797C60.44 173.799 60.44 173.802 60.44 173.804C60.44 173.806 60.44 173.808 60.44 173.81C60.44 173.813 60.44 173.815 60.44 173.817C60.44 173.819 60.44 173.821 60.44 173.824C60.44 173.826 60.44 173.828 60.44 173.83C60.44 173.832 60.44 173.835 60.44 173.837C60.44 173.839 60.44 173.841 60.44 173.843C60.44 173.846 60.44 173.848 60.44 173.85C60.44 173.852 60.44 173.854 60.44 173.857C60.44 173.859 60.44 173.861 60.44 173.863C60.44 173.865 60.44 173.868 60.44 173.87C60.44 173.872 60.44 173.874 60.44 173.876C60.44 173.879 60.44 173.881 60.44 173.883C60.44 173.885 60.44 173.887 60.44 173.89C60.44 173.892 60.44 173.894 60.44 173.896C60.44 173.898 60.44 173.901 60.44 173.903C60.44 173.905 60.44 173.907 60.44 173.909C60.44 173.912 60.44 173.914 60.44 173.916C60.44 173.918 60.44 173.921 60.44 173.923C60.44 173.925 60.44 173.927 60.44 173.929C60.44 173.932 60.44 173.934 60.44 173.936C60.44 173.938 60.44 173.94 60.44 173.943C60.44 173.945 60.44 173.947 60.44 173.949C60.44 173.951 60.44 173.954 60.44 173.956C60.44 173.958 60.44 173.96 60.44 173.963C60.44 173.965 60.44 173.967 60.44 173.969C60.44 173.971 60.44 173.974 60.44 173.976C60.44 173.978 60.44 173.98 60.44 173.982C60.44 173.985 60.44 173.987 60.44 173.989C60.44 173.991 60.44 173.994 60.44 173.996C60.44 173.998 60.44 174 60.44 174.002C60.44 174.005 60.44 174.007 60.44 174.009C60.44 174.011 60.44 174.014 60.44 174.016C60.44 174.018 60.44 174.02 60.44 174.022C60.44 174.025 60.44 174.027 60.44 174.029C60.44 174.031 60.44 174.034 60.44 174.036C60.44 174.038 60.44 174.04 60.44 174.042C60.44 174.045 60.44 174.047 60.44 174.049C60.44 174.051 60.44 174.054 60.44 174.056C60.44 174.058 60.44 174.06 60.44 174.063C60.44 174.065 60.44 174.067 60.44 174.069C60.44 174.071 60.44 174.074 60.44 174.076C60.44 174.078 60.44 174.08 60.44 174.083C60.44 174.085 60.44 174.087 60.44 174.089C60.44 174.092 60.44 174.094 60.44 174.096C60.44 174.098 60.44 174.1 60.44 174.103C60.44 174.105 60.44 174.107 60.44 174.109C60.44 174.112 60.44 174.114 60.44 174.116C60.44 174.118 60.44 174.121 60.44 174.123C60.44 174.125 60.44 174.127 60.44 174.13C60.44 174.132 60.44 174.134 60.44 174.136C60.44 174.139 60.44 174.141 60.44 174.143C60.44 174.145 60.44 174.147 60.44 174.15C60.44 174.152 60.44 174.154 60.44 174.156C60.44 174.159 60.44 174.161 60.44 174.163C60.44 174.165 60.44 174.168 60.44 174.17C60.44 174.172 60.44 174.174 60.44 174.177C60.44 174.179 60.44 174.181 60.44 174.183C60.44 174.186 60.44 174.188 60.44 174.19C60.44 174.192 60.44 174.195 60.44 174.197C60.44 174.199 60.44 174.201 60.44 174.204C60.44 174.206 60.44 174.208 60.44 174.21C60.44 174.213 60.44 174.215 60.44 174.217C60.44 174.219 60.44 174.222 60.44 174.224C60.44 174.226 60.44 174.228 60.44 174.231C60.44 174.233 60.44 174.235 60.44 174.237C60.44 174.24 60.44 174.242 60.44 174.244C60.44 174.246 60.44 174.249 60.44 174.251C60.44 174.253 60.44 174.255 60.44 174.258C60.44 174.26 60.44 174.262 60.44 174.264C60.44 174.267 60.44 174.269 60.44 174.271C60.44 174.273 60.44 174.276 60.44 174.278C60.44 174.28 60.44 174.282 60.44 174.285C60.44 174.287 60.44 174.289 60.44 174.292C60.44 174.294 60.44 174.296 60.44 174.298C60.44 174.301 60.44 174.303 60.44 174.305C60.44 174.307 60.44 174.31 60.44 174.312C60.44 174.314 60.44 174.316 60.44 174.319C60.44 174.321 60.44 174.323 60.44 174.325C60.44 174.328 60.44 174.33 60.44 174.332C60.44 174.335 60.44 174.337 60.44 174.339C60.44 174.341 60.44 174.344 60.44 174.346C60.44 174.348 60.44 174.35 60.44 174.353C60.44 174.355 60.44 174.357 60.44 174.359C60.44 174.362 60.44 174.364 60.44 174.366C60.44 174.369 60.44 174.371 60.44 174.373C60.44 174.375 60.44 174.378 60.44 174.38C60.44 174.382 60.44 174.384 60.44 174.387C60.44 174.389 60.44 174.391 60.44 174.394C60.44 174.396 60.44 174.398 60.44 174.4C60.44 174.403 60.44 174.405 60.44 174.407C60.44 174.409 60.44 174.412 60.44 174.414C60.44 174.416 60.44 174.419 60.44 174.421C60.44 174.423 60.44 174.425 60.44 174.428C60.44 174.43 60.44 174.432 60.44 174.435C60.44 174.437 60.44 174.439 60.44 174.441C60.44 174.444 60.44 174.446 60.44 174.448C60.44 174.451 60.44 174.453 60.44 174.455C60.44 174.457 60.44 174.46 60.44 174.462C60.44 174.464 60.44 174.466 60.44 174.469C60.44 174.471 60.44 174.473 60.44 174.476C60.44 174.478 60.44 174.48 60.44 174.482C60.44 174.485 60.44 174.487 60.44 174.489C60.44 174.492 60.44 174.494 60.44 174.496C60.44 174.498 60.44 174.501 60.44 174.503C60.44 174.505 60.44 174.508 60.44 174.51C60.44 174.512 60.44 174.515 60.44 174.517C60.44 174.519 60.44 174.521 60.44 174.524C60.44 174.526 60.44 174.528 60.44 174.531C60.44 174.533 60.44 174.535 60.44 174.537C60.44 174.54 60.44 174.542 60.44 174.544C60.44 174.547 60.44 174.549 60.44 174.551C60.44 174.553 60.44 174.556 60.44 174.558C60.44 174.56 60.44 174.563 60.44 174.565C60.44 174.567 60.44 174.57 60.44 174.572C60.44 174.574 60.44 174.576 60.44 174.579C60.44 174.581 60.44 174.583 60.44 174.586C60.44 174.588 60.44 174.59 60.44 174.593C60.44 174.595 60.44 174.597 60.44 174.599C60.44 174.602 60.44 174.604 60.44 174.606C60.44 174.609 60.44 174.611 60.44 174.613C60.44 174.616 60.44 174.618 60.44 174.62C60.44 174.622 60.44 174.625 60.44 174.627C60.44 174.629 60.44 174.632 60.44 174.634C60.44 174.636 60.44 174.639 60.44 174.641C60.44 174.643 60.44 174.646 60.44 174.648C60.44 174.65 60.44 174.652 60.44 174.655C60.44 174.657 60.44 174.659 60.44 174.662C60.44 174.664 60.44 174.666 60.44 174.669C60.44 174.671 60.44 174.673 60.44 174.676C60.44 174.678 60.44 174.68 60.44 174.683C60.44 174.685 60.44 174.687 60.44 174.689C60.44 174.692 60.44 174.694 60.44 174.696C60.44 174.699 60.44 174.701 60.44 174.703C60.44 174.706 60.44 174.708 60.44 174.71C60.44 174.713 60.44 174.715 60.44 174.717C60.44 174.72 60.44 174.722 60.44 174.724C60.44 174.727 60.44 174.729 60.44 174.731C60.44 174.733 60.44 174.736 60.44 174.738C60.44 174.74 60.44 174.743 60.44 174.745C60.44 174.747 60.44 174.75 60.44 174.752C60.44 174.754 60.44 174.757 60.44 174.759C60.44 174.761 60.44 174.764 60.44 174.766C60.44 174.768 60.44 174.771 60.44 174.773C60.44 174.775 60.44 174.778 60.44 174.78C60.44 174.782 60.44 174.785 60.44 174.787C60.44 174.789 60.44 174.792 60.44 174.794C60.44 174.796 60.44 174.799 60.44 174.801C60.44 174.803 60.44 174.806 60.44 174.808C60.44 174.81 60.44 174.812 60.44 174.815C60.44 174.817 60.44 174.82 60.44 174.822C60.44 174.824 60.44 174.826 60.44 174.829C60.44 174.831 60.44 174.833 60.44 174.836C60.44 174.838 60.44 174.84 60.44 174.843C60.44 174.845 60.44 174.847 60.44 174.85C60.44 174.852 60.44 174.854 60.44 174.857C60.44 174.859 60.44 174.861 60.44 174.864C60.44 174.866 60.44 174.869 60.44 174.871C60.44 174.873 60.44 174.876 60.44 174.878C60.44 174.88 60.44 174.883 60.44 174.885C60.44 174.887 60.44 174.89 60.44 174.892C60.44 174.894 60.44 174.897 60.44 174.899C60.44 174.901 60.44 174.904 60.44 174.906C60.44 174.908 60.44 174.911 60.44 174.913C60.44 174.915 60.44 174.918 60.44 174.92H68.44C68.44 174.918 68.44 174.915 68.44 174.913C68.44 174.911 68.44 174.908 68.44 174.906C68.44 174.904 68.44 174.901 68.44 174.899C68.44 174.897 68.44 174.894 68.44 174.892C68.44 174.89 68.44 174.887 68.44 174.885C68.44 174.883 68.44 174.88 68.44 174.878C68.44 174.876 68.44 174.873 68.44 174.871C68.44 174.869 68.44 174.866 68.44 174.864C68.44 174.861 68.44 174.859 68.44 174.857C68.44 174.854 68.44 174.852 68.44 174.85C68.44 174.847 68.44 174.845 68.44 174.843C68.44 174.84 68.44 174.838 68.44 174.836C68.44 174.833 68.44 174.831 68.44 174.829C68.44 174.826 68.44 174.824 68.44 174.822C68.44 174.82 68.44 174.817 68.44 174.815C68.44 174.812 68.44 174.81 68.44 174.808C68.44 174.806 68.44 174.803 68.44 174.801C68.44 174.799 68.44 174.796 68.44 174.794C68.44 174.792 68.44 174.789 68.44 174.787C68.44 174.785 68.44 174.782 68.44 174.78C68.44 174.778 68.44 174.775 68.44 174.773C68.44 174.771 68.44 174.768 68.44 174.766C68.44 174.764 68.44 174.761 68.44 174.759C68.44 174.757 68.44 174.754 68.44 174.752C68.44 174.75 68.44 174.747 68.44 174.745C68.44 174.743 68.44 174.74 68.44 174.738C68.44 174.736 68.44 174.733 68.44 174.731C68.44 174.729 68.44 174.727 68.44 174.724C68.44 174.722 68.44 174.72 68.44 174.717C68.44 174.715 68.44 174.713 68.44 174.71C68.44 174.708 68.44 174.706 68.44 174.703C68.44 174.701 68.44 174.699 68.44 174.696C68.44 174.694 68.44 174.692 68.44 174.689C68.44 174.687 68.44 174.685 68.44 174.683C68.44 174.68 68.44 174.678 68.44 174.676C68.44 174.673 68.44 174.671 68.44 174.669C68.44 174.666 68.44 174.664 68.44 174.662C68.44 174.659 68.44 174.657 68.44 174.655C68.44 174.652 68.44 174.65 68.44 174.648C68.44 174.646 68.44 174.643 68.44 174.641C68.44 174.639 68.44 174.636 68.44 174.634C68.44 174.632 68.44 174.629 68.44 174.627C68.44 174.625 68.44 174.622 68.44 174.62C68.44 174.618 68.44 174.616 68.44 174.613C68.44 174.611 68.44 174.609 68.44 174.606C68.44 174.604 68.44 174.602 68.44 174.599C68.44 174.597 68.44 174.595 68.44 174.593C68.44 174.59 68.44 174.588 68.44 174.586C68.44 174.583 68.44 174.581 68.44 174.579C68.44 174.576 68.44 174.574 68.44 174.572C68.44 174.57 68.44 174.567 68.44 174.565C68.44 174.563 68.44 174.56 68.44 174.558C68.44 174.556 68.44 174.553 68.44 174.551C68.44 174.549 68.44 174.547 68.44 174.544C68.44 174.542 68.44 174.54 68.44 174.537C68.44 174.535 68.44 174.533 68.44 174.531C68.44 174.528 68.44 174.526 68.44 174.524C68.44 174.521 68.44 174.519 68.44 174.517C68.44 174.515 68.44 174.512 68.44 174.51C68.44 174.508 68.44 174.505 68.44 174.503C68.44 174.501 68.44 174.498 68.44 174.496C68.44 174.494 68.44 174.492 68.44 174.489C68.44 174.487 68.44 174.485 68.44 174.482C68.44 174.48 68.44 174.478 68.44 174.476C68.44 174.473 68.44 174.471 68.44 174.469C68.44 174.466 68.44 174.464 68.44 174.462C68.44 174.46 68.44 174.457 68.44 174.455C68.44 174.453 68.44 174.451 68.44 174.448C68.44 174.446 68.44 174.444 68.44 174.441C68.44 174.439 68.44 174.437 68.44 174.435C68.44 174.432 68.44 174.43 68.44 174.428C68.44 174.425 68.44 174.423 68.44 174.421C68.44 174.419 68.44 174.416 68.44 174.414C68.44 174.412 68.44 174.409 68.44 174.407C68.44 174.405 68.44 174.403 68.44 174.4C68.44 174.398 68.44 174.396 68.44 174.394C68.44 174.391 68.44 174.389 68.44 174.387C68.44 174.384 68.44 174.382 68.44 174.38C68.44 174.378 68.44 174.375 68.44 174.373C68.44 174.371 68.44 174.369 68.44 174.366C68.44 174.364 68.44 174.362 68.44 174.359C68.44 174.357 68.44 174.355 68.44 174.353C68.44 174.35 68.44 174.348 68.44 174.346C68.44 174.344 68.44 174.341 68.44 174.339C68.44 174.337 68.44 174.335 68.44 174.332C68.44 174.33 68.44 174.328 68.44 174.325C68.44 174.323 68.44 174.321 68.44 174.319C68.44 174.316 68.44 174.314 68.44 174.312C68.44 174.31 68.44 174.307 68.44 174.305C68.44 174.303 68.44 174.301 68.44 174.298C68.44 174.296 68.44 174.294 68.44 174.292C68.44 174.289 68.44 174.287 68.44 174.285C68.44 174.282 68.44 174.28 68.44 174.278C68.44 174.276 68.44 174.273 68.44 174.271C68.44 174.269 68.44 174.267 68.44 174.264C68.44 174.262 68.44 174.26 68.44 174.258C68.44 174.255 68.44 174.253 68.44 174.251C68.44 174.249 68.44 174.246 68.44 174.244C68.44 174.242 68.44 174.24 68.44 174.237C68.44 174.235 68.44 174.233 68.44 174.231C68.44 174.228 68.44 174.226 68.44 174.224C68.44 174.222 68.44 174.219 68.44 174.217C68.44 174.215 68.44 174.213 68.44 174.21C68.44 174.208 68.44 174.206 68.44 174.204C68.44 174.201 68.44 174.199 68.44 174.197C68.44 174.195 68.44 174.192 68.44 174.19C68.44 174.188 68.44 174.186 68.44 174.183C68.44 174.181 68.44 174.179 68.44 174.177C68.44 174.174 68.44 174.172 68.44 174.17C68.44 174.168 68.44 174.165 68.44 174.163C68.44 174.161 68.44 174.159 68.44 174.156C68.44 174.154 68.44 174.152 68.44 174.15C68.44 174.147 68.44 174.145 68.44 174.143C68.44 174.141 68.44 174.139 68.44 174.136C68.44 174.134 68.44 174.132 68.44 174.13C68.44 174.127 68.44 174.125 68.44 174.123C68.44 174.121 68.44 174.118 68.44 174.116C68.44 174.114 68.44 174.112 68.44 174.109C68.44 174.107 68.44 174.105 68.44 174.103C68.44 174.1 68.44 174.098 68.44 174.096C68.44 174.094 68.44 174.092 68.44 174.089C68.44 174.087 68.44 174.085 68.44 174.083C68.44 174.08 68.44 174.078 68.44 174.076C68.44 174.074 68.44 174.071 68.44 174.069C68.44 174.067 68.44 174.065 68.44 174.063C68.44 174.06 68.44 174.058 68.44 174.056C68.44 174.054 68.44 174.051 68.44 174.049C68.44 174.047 68.44 174.045 68.44 174.042C68.44 174.04 68.44 174.038 68.44 174.036C68.44 174.034 68.44 174.031 68.44 174.029C68.44 174.027 68.44 174.025 68.44 174.022C68.44 174.02 68.44 174.018 68.44 174.016C68.44 174.014 68.44 174.011 68.44 174.009C68.44 174.007 68.44 174.005 68.44 174.002C68.44 174 68.44 173.998 68.44 173.996C68.44 173.994 68.44 173.991 68.44 173.989C68.44 173.987 68.44 173.985 68.44 173.982C68.44 173.98 68.44 173.978 68.44 173.976C68.44 173.974 68.44 173.971 68.44 173.969C68.44 173.967 68.44 173.965 68.44 173.963C68.44 173.96 68.44 173.958 68.44 173.956C68.44 173.954 68.44 173.951 68.44 173.949C68.44 173.947 68.44 173.945 68.44 173.943C68.44 173.94 68.44 173.938 68.44 173.936C68.44 173.934 68.44 173.932 68.44 173.929C68.44 173.927 68.44 173.925 68.44 173.923C68.44 173.921 68.44 173.918 68.44 173.916C68.44 173.914 68.44 173.912 68.44 173.909C68.44 173.907 68.44 173.905 68.44 173.903C68.44 173.901 68.44 173.898 68.44 173.896C68.44 173.894 68.44 173.892 68.44 173.89C68.44 173.887 68.44 173.885 68.44 173.883C68.44 173.881 68.44 173.879 68.44 173.876C68.44 173.874 68.44 173.872 68.44 173.87C68.44 173.868 68.44 173.865 68.44 173.863C68.44 173.861 68.44 173.859 68.44 173.857C68.44 173.854 68.44 173.852 68.44 173.85C68.44 173.848 68.44 173.846 68.44 173.843C68.44 173.841 68.44 173.839 68.44 173.837C68.44 173.835 68.44 173.832 68.44 173.83C68.44 173.828 68.44 173.826 68.44 173.824C68.44 173.821 68.44 173.819 68.44 173.817C68.44 173.815 68.44 173.813 68.44 173.81C68.44 173.808 68.44 173.806 68.44 173.804C68.44 173.802 68.44 173.799 68.44 173.797C68.44 173.795 68.44 173.793 68.44 173.791C68.44 173.788 68.44 173.786 68.44 173.784C68.44 173.782 68.44 173.78 68.44 173.778C68.44 173.775 68.44 173.773 68.44 173.771C68.44 173.769 68.44 173.767 68.44 173.764C68.44 173.762 68.44 173.76 68.44 173.758C68.44 173.756 68.44 173.753 68.44 173.751C68.44 173.749 68.44 173.747 68.44 173.745C68.44 173.743 68.44 173.74 68.44 173.738C68.44 173.736 68.44 173.734 68.44 173.732C68.44 173.729 68.44 173.727 68.44 173.725C68.44 173.723 68.44 173.721 68.44 173.718C68.44 173.716 68.44 173.714 68.44 173.712C68.44 173.71 68.44 173.708 68.44 173.705C68.44 173.703 68.44 173.701 68.44 173.699C68.44 173.697 68.44 173.695 68.44 173.692C68.44 173.69 68.44 173.688 68.44 173.686C68.44 173.684 68.44 173.681 68.44 173.679C68.44 173.677 68.44 173.675 68.44 173.673C68.44 173.671 68.44 173.668 68.44 173.666C68.44 173.664 68.44 173.662 68.44 173.66C68.44 173.658 68.44 173.655 68.44 173.653C68.44 173.651 68.44 173.649 68.44 173.647C68.44 173.644 68.44 173.642 68.44 173.64C68.44 173.638 68.44 173.636 68.44 173.634C68.44 173.631 68.44 173.629 68.44 173.627C68.44 173.625 68.44 173.623 68.44 173.621C68.44 173.618 68.44 173.616 68.44 173.614C68.44 173.612 68.44 173.61 68.44 173.608C68.44 173.605 68.44 173.603 68.44 173.601C68.44 173.599 68.44 173.597 68.44 173.595C68.44 173.592 68.44 173.59 68.44 173.588C68.44 173.586 68.44 173.584 68.44 173.582C68.44 173.579 68.44 173.577 68.44 173.575C68.44 173.573 68.44 173.571 68.44 173.569C68.44 173.567 68.44 173.564 68.44 173.562C68.44 173.56 68.44 173.558 68.44 173.556C68.44 173.554 68.44 173.551 68.44 173.549C68.44 173.547 68.44 173.545 68.44 173.543C68.44 173.541 68.44 173.538 68.44 173.536C68.44 173.534 68.44 173.532 68.44 173.53C68.44 173.528 68.44 173.526 68.44 173.523C68.44 173.521 68.44 173.519 68.44 173.517C68.44 173.515 68.44 173.513 68.44 173.51C68.44 173.508 68.44 173.506 68.44 173.504C68.44 173.502 68.44 173.5 68.44 173.498C68.44 173.495 68.44 173.493 68.44 173.491C68.44 173.489 68.44 173.487 68.44 173.485C68.44 173.482 68.44 173.48 68.44 173.478C68.44 173.476 68.44 173.474 68.44 173.472C68.44 173.47 68.44 173.467 68.44 173.465C68.44 173.463 68.44 173.461 68.44 173.459C68.44 173.457 68.44 173.455 68.44 173.452C68.44 173.45 68.44 173.448 68.44 173.446C68.44 173.444 68.44 173.442 68.44 173.44C68.44 173.437 68.44 173.435 68.44 173.433C68.44 173.431 68.44 173.429 68.44 173.427C68.44 173.425 68.44 173.422 68.44 173.42C68.44 173.418 68.44 173.416 68.44 173.414C68.44 173.412 68.44 173.41 68.44 173.407C68.44 173.405 68.44 173.403 68.44 173.401C68.44 173.399 68.44 173.397 68.44 173.395C68.44 173.393 68.44 173.39 68.44 173.388C68.44 173.386 68.44 173.384 68.44 173.382C68.44 173.38 68.44 173.378 68.44 173.375C68.44 173.373 68.44 173.371 68.44 173.369C68.44 173.367 68.44 173.365 68.44 173.363C68.44 173.361 68.44 173.358 68.44 173.356C68.44 173.354 68.44 173.352 68.44 173.35C68.44 173.348 68.44 173.346 68.44 173.343C68.44 173.341 68.44 173.339 68.44 173.337C68.44 173.335 68.44 173.333 68.44 173.331C68.44 173.329 68.44 173.326 68.44 173.324C68.44 173.322 68.44 173.32 68.44 173.318C68.44 173.316 68.44 173.314 68.44 173.312C68.44 173.309 68.44 173.307 68.44 173.305C68.44 173.303 68.44 173.301 68.44 173.299C68.44 173.297 68.44 173.295 68.44 173.292C68.44 173.29 68.44 173.288 68.44 173.286C68.44 173.284 68.44 173.282 68.44 173.28C68.44 173.278 68.44 173.276 68.44 173.273C68.44 173.271 68.44 173.269 68.44 173.267C68.44 173.265 68.44 173.263 68.44 173.261C68.44 173.259 68.44 173.256 68.44 173.254C68.44 173.252 68.44 173.25 68.44 173.248C68.44 173.246 68.44 173.244 68.44 173.242C68.44 173.24 68.44 173.237 68.44 173.235C68.44 173.233 68.44 173.231 68.44 173.229C68.44 173.227 68.44 173.225 68.44 173.223C68.44 173.221 68.44 173.218 68.44 173.216C68.44 173.214 68.44 173.212 68.44 173.21C68.44 173.208 68.44 173.206 68.44 173.204C68.44 173.202 68.44 173.199 68.44 173.197C68.44 173.195 68.44 173.193 68.44 173.191C68.44 173.189 68.44 173.187 68.44 173.185C68.44 173.183 68.44 173.18 68.44 173.178C68.44 173.176 68.44 173.174 68.44 173.172C68.44 173.17 68.44 173.168 68.44 173.166C68.44 173.164 68.44 173.162 68.44 173.159C68.44 173.157 68.44 173.155 68.44 173.153C68.44 173.151 68.44 173.149 68.44 173.147C68.44 173.145 68.44 173.143 68.44 173.141C68.44 173.138 68.44 173.136 68.44 173.134C68.44 173.132 68.44 173.13 68.44 173.128C68.44 173.126 68.44 173.124 68.44 173.122C68.44 173.12 68.44 173.117 68.44 173.115C68.44 173.113 68.44 173.111 68.44 173.109C68.44 173.107 68.44 173.105 68.44 173.103C68.44 173.101 68.44 173.099 68.44 173.097C68.44 173.094 68.44 173.092 68.44 173.09C68.44 173.088 68.44 173.086 68.44 173.084C68.44 173.082 68.44 173.08 68.44 173.078C68.44 173.076 68.44 173.074 68.44 173.071C68.44 173.069 68.44 173.067 68.44 173.065C68.44 173.063 68.44 173.061 68.44 173.059C68.44 173.057 68.44 173.055 68.44 173.053C68.44 173.051 68.44 173.048 68.44 173.046C68.44 173.044 68.44 173.042 68.44 173.04C68.44 173.038 68.44 173.036 68.44 173.034C68.44 173.032 68.44 173.03 68.44 173.028C68.44 173.026 68.44 173.023 68.44 173.021C68.44 173.019 68.44 173.017 68.44 173.015C68.44 173.013 68.44 173.011 68.44 173.009C68.44 173.007 68.44 173.005 68.44 173.003C68.44 173.001 68.44 172.999 68.44 172.996C68.44 172.994 68.44 172.992 68.44 172.99C68.44 172.988 68.44 172.986 68.44 172.984C68.44 172.982 68.44 172.98 68.44 172.978C68.44 172.976 68.44 172.974 68.44 172.972C68.44 172.969 68.44 172.967 68.44 172.965C68.44 172.963 68.44 172.961 68.44 172.959C68.44 172.957 68.44 172.955 68.44 172.953C68.44 172.951 68.44 172.949 68.44 172.947C68.44 172.945 68.44 172.942 68.44 172.94C68.44 172.938 68.44 172.936 68.44 172.934C68.44 172.932 68.44 172.93 68.44 172.928C68.44 172.926 68.44 172.924 68.44 172.922C68.44 172.92 68.44 172.918 68.44 172.916C68.44 172.914 68.44 172.911 68.44 172.909C68.44 172.907 68.44 172.905 68.44 172.903C68.44 172.901 68.44 172.899 68.44 172.897C68.44 172.895 68.44 172.893 68.44 172.891C68.44 172.889 68.44 172.887 68.44 172.885C68.44 172.883 68.44 172.881 68.44 172.878C68.44 172.876 68.44 172.874 68.44 172.872C68.44 172.87 68.44 172.868 68.44 172.866C68.44 172.864 68.44 172.862 68.44 172.86C68.44 172.858 68.44 172.856 68.44 172.854C68.44 172.852 68.44 172.85 68.44 172.848C68.44 172.846 68.44 172.843 68.44 172.841C68.44 172.839 68.44 172.837 68.44 172.835C68.44 172.833 68.44 172.831 68.44 172.829C68.44 172.827 68.44 172.825 68.44 172.823C68.44 172.821 68.44 172.819 68.44 172.817C68.44 172.815 68.44 172.813 68.44 172.811C68.44 172.809 68.44 172.807 68.44 172.804C68.44 172.802 68.44 172.8 68.44 172.798C68.44 172.796 68.44 172.794 68.44 172.792C68.44 172.79 68.44 172.788 68.44 172.786C68.44 172.784 68.44 172.782 68.44 172.78C68.44 172.778 68.44 172.776 68.44 172.774C68.44 172.772 68.44 172.77 68.44 172.768C68.44 172.766 68.44 172.764 68.44 172.761C68.44 172.759 68.44 172.757 68.44 172.755C68.44 172.753 68.44 172.751 68.44 172.749C68.44 172.747 68.44 172.745 68.44 172.743C68.44 172.741 68.44 172.739 68.44 172.737C68.44 172.735 68.44 172.733 68.44 172.731C68.44 172.729 68.44 172.727 68.44 172.725C68.44 172.723 68.44 172.721 68.44 172.719C68.44 172.717 68.44 172.715 68.44 172.713C68.44 172.71 68.44 172.708 68.44 172.706C68.44 172.704 68.44 172.702 68.44 172.7C68.44 172.698 68.44 172.696 68.44 172.694C68.44 172.692 68.44 172.69 68.44 172.688C68.44 172.686 68.44 172.684 68.44 172.682C68.44 172.68 68.44 172.678 68.44 172.676C68.44 172.674 68.44 172.672 68.44 172.67C68.44 172.668 68.44 172.666 68.44 172.664C68.44 172.662 68.44 172.66 68.44 172.658C68.44 172.656 68.44 172.654 68.44 172.652C68.44 172.65 68.44 172.648 68.44 172.646C68.44 172.643 68.44 172.641 68.44 172.639C68.44 172.637 68.44 172.635 68.44 172.633C68.44 172.631 68.44 172.629 68.44 172.627C68.44 172.625 68.44 172.623 68.44 172.621C68.44 172.619 68.44 172.617 68.44 172.615C68.44 172.613 68.44 172.611 68.44 172.609C68.44 172.607 68.44 172.605 68.44 172.603C68.44 172.601 68.44 172.599 68.44 172.597C68.44 172.595 68.44 172.593 68.44 172.591C68.44 172.589 68.44 172.587 68.44 172.585C68.44 172.583 68.44 172.581 68.44 172.579C68.44 172.577 68.44 172.575 68.44 172.573C68.44 172.571 68.44 172.569 68.44 172.567C68.44 172.565 68.44 172.563 68.44 172.561C68.44 172.559 68.44 172.557 68.44 172.555C68.44 172.553 68.44 172.551 68.44 172.549C68.44 172.547 68.44 172.545 68.44 172.543C68.44 172.541 68.44 172.539 68.44 172.537C68.44 172.535 68.44 172.533 68.44 172.531C68.44 172.529 68.44 172.527 68.44 172.524C68.44 172.522 68.44 172.52 68.44 172.518C68.44 172.516 68.44 172.514 68.44 172.512C68.44 172.51 68.44 172.508 68.44 172.506C68.44 172.504 68.44 172.502 68.44 172.5C68.44 172.498 68.44 172.496 68.44 172.494C68.44 172.492 68.44 172.49 68.44 172.488C68.44 172.486 68.44 172.484 68.44 172.482C68.44 172.48 68.44 172.478 68.44 172.476C68.44 172.474 68.44 172.472 68.44 172.47C68.44 172.468 68.44 172.466 68.44 172.464C68.44 172.462 68.44 172.46 68.44 172.458C68.44 172.456 68.44 172.454 68.44 172.452C68.44 172.45 68.44 172.448 68.44 172.446C68.44 172.444 68.44 172.442 68.44 172.44C68.44 172.438 68.44 172.436 68.44 172.434C68.44 172.432 68.44 172.43 68.44 172.428C68.44 172.426 68.44 172.424 68.44 172.423C68.44 172.421 68.44 172.419 68.44 172.417C68.44 172.415 68.44 172.413 68.44 172.411C68.44 172.409 68.44 172.407 68.44 172.405C68.44 172.403 68.44 172.401 68.44 172.399C68.44 172.397 68.44 172.395 68.44 172.393C68.44 172.391 68.44 172.389 68.44 172.387C68.44 172.385 68.44 172.383 68.44 172.381C68.44 172.379 68.44 172.377 68.44 172.375C68.44 172.373 68.44 172.371 68.44 172.369C68.44 172.367 68.44 172.365 68.44 172.363C68.44 172.361 68.44 172.359 68.44 172.357C68.44 172.355 68.44 172.353 68.44 172.351C68.44 172.349 68.44 172.347 68.44 172.345C68.44 172.343 68.44 172.341 68.44 172.339C68.44 172.337 68.44 172.335 68.44 172.333C68.44 172.331 68.44 172.329 68.44 172.327C68.44 172.325 68.44 172.323 68.44 172.321C68.44 172.319 68.44 172.317 68.44 172.315C68.44 172.313 68.44 172.311 68.44 172.309C68.44 172.307 68.44 172.305 68.44 172.304C68.44 172.302 68.44 172.3 68.44 172.298C68.44 172.296 68.44 172.294 68.44 172.292C68.44 172.29 68.44 172.288 68.44 172.286C68.44 172.284 68.44 172.282 68.44 172.28C68.44 172.278 68.44 172.276 68.44 172.274C68.44 172.272 68.44 172.27 68.44 172.268C68.44 172.266 68.44 172.264 68.44 172.262C68.44 172.26 68.44 172.258 68.44 172.256C68.44 172.254 68.44 172.252 68.44 172.25C68.44 172.248 68.44 172.246 68.44 172.244C68.44 172.242 68.44 172.241 68.44 172.239C68.44 172.237 68.44 172.235 68.44 172.233C68.44 172.231 68.44 172.229 68.44 172.227C68.44 172.225 68.44 172.223 68.44 172.221C68.44 172.219 68.44 172.217 68.44 172.215C68.44 172.213 68.44 172.211 68.44 172.209C68.44 172.207 68.44 172.205 68.44 172.203C68.44 172.201 68.44 172.199 68.44 172.197C68.44 172.195 68.44 172.193 68.44 172.191C68.44 172.19 68.44 172.188 68.44 172.186C68.44 172.184 68.44 172.182 68.44 172.18C68.44 172.178 68.44 172.176 68.44 172.174C68.44 172.172 68.44 172.17 68.44 172.168C68.44 172.166 68.44 172.164 68.44 172.162C68.44 172.16 68.44 172.158 68.44 172.156C68.44 172.154 68.44 172.152 68.44 172.15C68.44 172.149 68.44 172.147 68.44 172.145C68.44 172.143 68.44 172.141 68.44 172.139C68.44 172.137 68.44 172.135 68.44 172.133C68.44 172.131 68.44 172.129 68.44 172.127C68.44 172.125 68.44 172.123 68.44 172.121C68.44 172.119 68.44 172.117 68.44 172.115C68.44 172.113 68.44 172.112 68.44 172.11C68.44 172.108 68.44 172.106 68.44 172.104C68.44 172.102 68.44 172.1 68.44 172.098C68.44 172.096 68.44 172.094 68.44 172.092C68.44 172.09 68.44 172.088 68.44 172.086C68.44 172.084 68.44 172.082 68.44 172.08C68.44 172.079 68.44 172.077 68.44 172.075C68.44 172.073 68.44 172.071 68.44 172.069C68.44 172.067 68.44 172.065 68.44 172.063C68.44 172.061 68.44 172.059 68.44 172.057C68.44 172.055 68.44 172.053 68.44 172.051C68.44 172.049 68.44 172.048 68.44 172.046C68.44 172.044 68.44 172.042 68.44 172.04C68.44 172.038 68.44 172.036 68.44 172.034C68.44 172.032 68.44 172.03 68.44 172.028C68.44 172.026 68.44 172.024 68.44 172.022C68.44 172.021 68.44 172.019 68.44 172.017C68.44 172.015 68.44 172.013 68.44 172.011C68.44 172.009 68.44 172.007 68.44 172.005C68.44 172.003 68.44 172.001 68.44 171.999C68.44 171.997 68.44 171.995 68.44 171.994C68.44 171.992 68.44 171.99 68.44 171.988C68.44 171.986 68.44 171.984 68.44 171.982C68.44 171.98 68.44 171.978 68.44 171.976C68.44 171.974 68.44 171.972 68.44 171.97C68.44 171.969 68.44 171.967 68.44 171.965C68.44 171.963 68.44 171.961 68.44 171.959C68.44 171.957 68.44 171.955 68.44 171.953C68.44 171.951 68.44 171.949 68.44 171.947C68.44 171.945 68.44 171.944 68.44 171.942C68.44 171.94 68.44 171.938 68.44 171.936C68.44 171.934 68.44 171.932 68.44 171.93C68.44 171.928 68.44 171.926 68.44 171.924C68.44 171.923 68.44 171.921 68.44 171.919C68.44 171.917 68.44 171.915 68.44 171.913C68.44 171.911 68.44 171.909 68.44 171.907C68.44 171.905 68.44 171.903 68.44 171.901C68.44 171.9 68.44 171.898 68.44 171.896C68.44 171.894 68.44 171.892 68.44 171.89C68.44 171.888 68.44 171.886 68.44 171.884C68.44 171.882 68.44 171.88 68.44 171.879C68.44 171.877 68.44 171.875 68.44 171.873C68.44 171.871 68.44 171.869 68.44 171.867C68.44 171.865 68.44 171.863 68.44 171.861C68.44 171.859 68.44 171.858 68.44 171.856C68.44 171.854 68.44 171.852 68.44 171.85C68.44 171.848 68.44 171.846 68.44 171.844C68.44 171.842 68.44 171.84 68.44 171.839C68.44 171.837 68.44 171.835 68.44 171.833C68.44 171.831 68.44 171.829 68.44 171.827C68.44 171.825 68.44 171.823 68.44 171.821C68.44 171.82 68.44 171.818 68.44 171.816C68.44 171.814 68.44 171.812 68.44 171.81C68.44 171.808 68.44 171.806 68.44 171.804C68.44 171.803 68.44 171.801 68.44 171.799C68.44 171.797 68.44 171.795 68.44 171.793C68.44 171.791 68.44 171.789 68.44 171.787C68.44 171.785 68.44 171.784 68.44 171.782C68.44 171.78 68.44 171.778 68.44 171.776C68.44 171.774 68.44 171.772 68.44 171.77C68.44 171.768 68.44 171.767 68.44 171.765C68.44 171.763 68.44 171.761 68.44 171.759C68.44 171.757 68.44 171.755 68.44 171.753C68.44 171.751 68.44 171.75 68.44 171.748C68.44 171.746 68.44 171.744 68.44 171.742C68.44 171.74 68.44 171.738 68.44 171.736C68.44 171.734 68.44 171.733 68.44 171.731C68.44 171.729 68.44 171.727 68.44 171.725C68.44 171.723 68.44 171.721 68.44 171.719C68.44 171.718 68.44 171.716 68.44 171.714C68.44 171.712 68.44 171.71 68.44 171.708C68.44 171.706 68.44 171.704 68.44 171.703C68.44 171.701 68.44 171.699 68.44 171.697C68.44 171.695 68.44 171.693 68.44 171.691C68.44 171.689 68.44 171.688 68.44 171.686C68.44 171.684 68.44 171.682 68.44 171.68H60.44ZM60.44 174.92C60.44 180.832 61.7907 186.308 64.5434 191.263L71.5366 187.377C69.4893 183.692 68.44 179.568 68.44 174.92H60.44ZM64.5923 191.348C67.4346 196.18 71.6553 199.92 77.0512 202.618L80.6289 195.462C76.4247 193.36 73.4454 190.62 71.4877 187.292L64.5923 191.348ZM77.1203 202.651C82.8452 205.378 89.7137 206.64 97.56 206.64V198.64C90.5263 198.64 84.9148 197.502 80.5597 195.429L77.1203 202.651ZM97.56 206.64C104.933 206.64 111.68 205.495 117.738 203.125L114.822 195.675C109.84 197.625 104.107 198.64 97.56 198.64V206.64ZM117.875 203.068C123.855 200.468 128.994 196.925 133.233 192.421L127.407 186.939C123.966 190.595 119.745 193.532 114.685 195.732L117.875 203.068ZM133.228 192.426C137.632 187.763 141.028 182.549 143.382 176.795L135.978 173.765C134.012 178.571 131.168 182.957 127.412 186.934L133.228 192.426ZM143.405 176.738C145.749 170.747 146.92 164.493 146.92 158H138.92C138.92 163.507 137.931 168.773 135.955 173.822L143.405 176.738ZM146.92 158C146.92 148.425 143.821 140.366 137.405 134.229L131.875 140.011C136.499 144.434 138.92 150.295 138.92 158H146.92ZM137.531 134.355C131.244 127.782 122.103 124.84 110.88 124.84V132.84C120.777 132.84 127.476 135.418 131.749 139.885L137.531 134.355ZM110.88 124.84C102.597 124.84 95.4737 126.089 89.7203 128.829L93.1597 136.051C97.4863 133.991 103.323 132.84 110.88 132.84V124.84ZM89.7203 128.829C84.4105 131.357 80.0287 134.234 76.7316 137.532L82.3884 143.188C84.8513 140.726 88.3895 138.323 93.1597 136.051L89.7203 128.829ZM76.7316 137.532C74.0916 140.172 71.9316 142.332 70.2516 144.012L75.9084 149.668C77.5884 147.988 79.7484 145.828 82.3884 143.188L76.7316 137.532ZM73.6457 142.88L18.2057 134.96L17.0743 142.88L72.5143 150.8L73.6457 142.88ZM21.5188 139.897L56.4388 1.29724L48.6812 -0.657257L13.7612 137.943L21.5188 139.897ZM52.56 4.31999H223.92V-3.68001H52.56V4.31999ZM219.981 -0.375153L209.181 60.8249L217.059 62.2151L227.859 1.01513L219.981 -0.375153ZM213.12 57.52H95.4V65.52H213.12V57.52ZM91.5284 60.5149L81.8083 97.9548L89.5517 99.9651L99.2717 62.5251L91.5284 60.5149ZM88.1788 102.083C90.3318 100.361 93.4758 98.3248 97.7026 95.9766L93.8174 88.9834C89.4042 91.4352 85.8282 93.719 83.1812 95.8365L88.1788 102.083ZM97.8458 95.8931C101.766 93.4974 106.924 91.3416 113.419 89.4861L111.221 81.7939C104.276 83.7784 98.3939 86.1826 93.6742 89.0669L97.8458 95.8931ZM113.384 89.496C119.898 87.699 127.919 86.76 137.52 86.76V78.76C127.441 78.76 118.662 79.741 111.256 81.784L113.384 89.496ZM137.52 86.76C152.655 86.76 165.466 89.4377 176.082 94.6329L179.598 87.4471C167.654 81.6023 153.585 78.76 137.52 78.76V86.76ZM176.112 94.6473C186.973 99.8516 195.245 107.257 201.057 116.87L207.903 112.73C201.236 101.703 191.747 93.2684 179.568 87.4327L176.112 94.6473ZM201.115 116.963C207.11 126.288 210.2 137.625 210.2 151.16H218.2C218.2 136.375 214.81 123.472 207.845 112.637L201.115 116.963ZM210.2 151.16C210.2 170.871 205.341 187.837 195.752 202.221L202.408 206.659C212.979 190.803 218.2 172.249 218.2 151.16H210.2ZM195.752 202.221C186.089 216.715 172.97 228.015 156.291 236.123L159.789 243.317C177.67 234.625 191.911 222.405 202.408 206.659L195.752 202.221ZM156.271 236.132C139.847 244.229 121.264 248.32 100.44 248.32V256.32C122.336 256.32 142.153 252.011 159.809 243.308L156.271 236.132Z" fill="url(#paint0_linear_121_404)" mask="url(#path-1-outside-1_121_404)"/>
<defs>
<linearGradient id="paint0_linear_121_404" x1="-9" y1="128" x2="232" y2="128" gradientUnits="userSpaceOnUse">
<stop stop-color="#6A11CB"/>
<stop offset="1" stop-color="#2575FC"/>
</linearGradient>
</defs>
</svg>
