<svg width="220" height="248" viewBox="0 0 220 248" fill="none" xmlns="http://www.w3.org/2000/svg">
<mask id="path-1-outside-1_121_406" maskUnits="userSpaceOnUse" x="-5" y="-4" width="230" height="256" fill="black">
<rect fill="white" x="-5" y="-4" width="230" height="256"/>
<path d="M4.36 248C7.48 230.96 12.4 214.16 19.12 197.6C25.84 181.04 34 164.96 43.6 149.36C53.44 133.52 64.36 118.4 76.36 104C88.36 89.36 101.08 75.44 114.52 62.24H0.0400006L11.2 0.319992H220L214.24 33.08C203.2 44.36 192.4 56 181.84 68C171.28 79.76 161.32 92 151.96 104.72C142.84 117.2 134.44 130.04 126.76 143.24C119.32 156.44 112.84 170 107.32 183.92C101.8 197.84 97.72 212.12 95.08 226.76C94.36 230.36 93.64 233.96 92.92 237.56C92.44 240.92 91.84 244.4 91.12 248H4.36Z"/>
</mask>
<path d="M4.36 248L0.425411 247.28L-0.43889 252H4.36V248ZM19.12 197.6L22.8265 199.104L19.12 197.6ZM43.6 149.36L40.2022 147.249L40.1978 147.256L40.1934 147.264L43.6 149.36ZM76.36 104L79.4329 106.561L79.4433 106.548L79.4536 106.536L76.36 104ZM114.52 62.24L117.323 65.0938L124.301 58.24H114.52V62.24ZM0.0400009 62.24L-3.89657 61.5305L-4.74538 66.24H0.0400009V62.24ZM11.2 0.319992V-3.68001H7.85648L7.26343 -0.389503L11.2 0.319992ZM220 0.319992L223.94 1.01266L224.765 -3.68001H220V0.319992ZM214.24 33.08L217.099 35.8779L217.965 34.9926L218.18 33.7727L214.24 33.08ZM181.84 68L184.816 70.6725L184.83 70.6576L184.843 70.6425L181.84 68ZM151.96 104.72L148.738 102.349L148.73 102.36L151.96 104.72ZM126.76 143.24L123.303 141.228L123.289 141.252L123.275 141.276L126.76 143.24ZM107.32 183.92L111.038 185.395L107.32 183.92ZM95.08 226.76L99.0023 227.544L99.0098 227.507L99.0165 227.47L95.08 226.76ZM92.92 237.56L88.9977 236.776L88.9759 236.884L88.9602 236.994L92.92 237.56ZM91.12 248V252H94.3992L95.0423 248.784L91.12 248ZM8.29459 248.72C11.3639 231.957 16.2058 215.419 22.8265 199.104L15.4136 196.096C8.59423 212.901 3.59607 229.963 0.425411 247.28L8.29459 248.72ZM22.8265 199.104C29.461 182.755 37.5199 166.872 47.0066 151.456L40.1934 147.264C30.4801 163.048 22.219 179.325 15.4136 196.096L22.8265 199.104ZM46.9978 151.471C56.7395 135.789 67.5509 120.819 79.4329 106.561L73.2871 101.439C61.1692 115.981 50.1405 131.251 40.2022 147.249L46.9978 151.471ZM79.4536 106.536C91.3629 92.0063 103.986 78.1926 117.323 65.0938L111.717 59.3862C98.1741 72.6874 85.3571 86.7137 73.2664 101.464L79.4536 106.536ZM114.52 58.24H0.0400009V66.24H114.52V58.24ZM3.97657 62.9495L15.1366 1.02949L7.26343 -0.389503L-3.89657 61.5305L3.97657 62.9495ZM11.2 4.31999H220V-3.68001H11.2V4.31999ZM216.06 -0.372681L210.3 32.3873L218.18 33.7727L223.94 1.01266L216.06 -0.372681ZM211.381 30.2821C200.291 41.6133 189.443 53.3051 178.837 65.3575L184.843 70.6425C195.357 58.6949 206.109 47.1067 217.099 35.8779L211.381 30.2821ZM178.864 65.3275C168.217 77.184 158.175 89.5247 148.738 102.349L155.182 107.091C164.465 94.4753 174.343 82.336 184.816 70.6725L178.864 65.3275ZM148.73 102.36C139.529 114.951 131.053 127.907 123.303 141.228L130.217 145.252C137.827 132.173 146.151 119.449 155.19 107.08L148.73 102.36ZM123.275 141.276C115.748 154.632 109.189 168.355 103.602 182.445L111.038 185.395C116.491 171.645 122.892 158.248 130.245 145.204L123.275 141.276ZM103.602 182.445C97.9844 196.611 93.831 211.147 91.1435 226.05L99.0165 227.47C101.609 213.093 105.616 199.069 111.038 185.395L103.602 182.445ZM91.1577 225.976C90.4377 229.576 89.7177 233.176 88.9977 236.776L96.8423 238.344C97.5623 234.744 98.2823 231.144 99.0023 227.544L91.1577 225.976ZM88.9602 236.994C88.4915 240.275 87.9043 243.682 87.1977 247.216L95.0423 248.784C95.7757 245.118 96.3885 241.565 96.8798 238.126L88.9602 236.994ZM91.12 244H4.36V252H91.12V244Z" fill="url(#paint0_linear_121_406)" mask="url(#path-1-outside-1_121_406)"/>
<defs>
<linearGradient id="paint0_linear_121_406" x1="-32" y1="128" x2="209" y2="128" gradientUnits="userSpaceOnUse">
<stop stop-color="#6A11CB"/>
<stop offset="1" stop-color="#2575FC"/>
</linearGradient>
</defs>
</svg>
