<svg width="224" height="257" viewBox="0 0 224 257" fill="none" xmlns="http://www.w3.org/2000/svg">
<mask id="path-1-outside-1_121_407" maskUnits="userSpaceOnUse" x="-4" y="-4" width="232" height="265" fill="black">
<rect fill="white" x="-4" y="-4" width="232" height="265"/>
<path d="M97.08 256.32C77.64 256.32 60.72 253.92 46.32 249.12C31.92 244.32 20.76 237.36 12.84 228.24C4.92 218.88 0.96 207.6 0.96 194.4C0.96 183.36 3.12 173.52 7.44 164.88C11.76 156 17.76 148.32 25.44 141.84C33.12 135.12 41.76 129.96 51.36 126.36C43.92 120.6 38.4 114 34.8 106.56C31.2 98.88 29.4 90.84 29.4 82.44C29.4 69.24 32.16 57.6 37.68 47.52C43.44 37.2 51.24 28.56 61.08 21.6C71.16 14.4 82.56 8.99999 95.28 5.39998C108 1.79998 121.56 -1.71661e-05 135.96 -1.71661e-05C152.28 -1.71661e-05 167.04 2.51999 180.24 7.55999C193.44 12.36 204 19.44 211.92 28.8C219.84 38.16 223.8 49.56 223.8 63C223.8 72.12 222.24 80.64 219.12 88.56C216 96.24 211.44 103.32 205.44 109.8C199.44 116.04 192 121.56 183.12 126.36C191.76 130.68 198.96 136.8 204.72 144.72C210.72 152.64 213.72 162.48 213.72 174.24C213.72 192.96 208.32 208.44 197.52 220.68C186.96 232.68 172.8 241.68 155.04 247.68C137.52 253.44 118.2 256.32 97.08 256.32ZM102.48 207.72C106.56 207.72 110.28 207.36 113.64 206.64C117.24 205.68 120.48 204.48 123.36 203.04C126.48 201.36 129.24 199.44 131.64 197.28C135 194.16 137.64 190.56 139.56 186.48C141.48 182.16 142.44 177.48 142.44 172.44C142.44 164.52 139.56 158.64 133.8 154.8C128.04 150.72 121.08 148.68 112.92 148.68C109.32 148.68 105.72 149.16 102.12 150.12C98.76 150.84 95.52 151.92 92.4 153.36C89.52 154.8 86.88 156.72 84.48 159.12C81.36 162.24 78.84 165.96 76.92 170.28C75 174.6 74.04 179.28 74.04 184.32C74.04 192 76.56 197.88 81.6 201.96C86.88 205.8 93.84 207.72 102.48 207.72ZM120.84 102.96C124.2 102.96 127.44 102.72 130.56 102.24C133.68 101.52 136.56 100.68 139.2 99.72C142.08 98.52 144.72 97.2 147.12 95.76C151.2 93.12 154.44 89.76 156.84 85.68C159.24 81.36 160.44 76.32 160.44 70.56C160.44 62.88 157.68 57.36 152.16 54C146.64 50.4 139.44 48.6 130.56 48.6C126.72 48.6 123.12 48.96 119.76 49.68C116.4 50.4 113.28 51.36 110.4 52.56C107.52 53.76 105 55.32 102.84 57.24C99.48 60.12 96.84 63.6 94.92 67.68C93 71.76 92.04 76.44 92.04 81.72C92.04 89.16 94.8 94.56 100.32 97.92C105.84 101.28 112.68 102.96 120.84 102.96Z"/>
</mask>
<path d="M12.84 228.24L9.78646 230.824L9.80304 230.843L9.81987 230.863L12.84 228.24ZM7.44 164.88L11.0177 166.669L11.0274 166.649L11.0369 166.63L7.44 164.88ZM25.44 141.84L28.0195 144.897L28.047 144.874L28.074 144.85L25.44 141.84ZM51.36 126.36L52.7645 130.105L59.4793 127.587L53.8087 123.197L51.36 126.36ZM34.8 106.56L31.1782 108.258L31.1886 108.28L31.1994 108.302L34.8 106.56ZM37.68 47.52L34.1872 45.5705L34.1794 45.5846L34.1716 45.5987L37.68 47.52ZM61.08 21.6L63.3899 24.8656L63.3974 24.8603L63.405 24.8549L61.08 21.6ZM95.28 5.39998L94.1907 1.55116H94.1907L95.28 5.39998ZM180.24 7.55999L178.813 11.2969L178.843 11.3083L178.873 11.3192L180.24 7.55999ZM211.92 28.8L208.866 31.3838V31.3838L211.92 28.8ZM219.12 88.56L222.826 90.0655L222.834 90.0458L222.842 90.0261L219.12 88.56ZM205.44 109.8L208.323 112.572L208.349 112.545L208.375 112.518L205.44 109.8ZM183.12 126.36L181.218 122.841L174.452 126.498L181.331 129.938L183.12 126.36ZM204.72 144.72L201.485 147.073L201.508 147.104L201.532 147.135L204.72 144.72ZM197.52 220.68L194.521 218.034L194.517 218.037L197.52 220.68ZM155.04 247.68L156.289 251.48L156.305 251.475L156.32 251.47L155.04 247.68ZM113.64 206.64L114.478 210.551L114.575 210.53L114.671 210.505L113.64 206.64ZM123.36 203.04L125.149 206.618L125.203 206.591L125.256 206.562L123.36 203.04ZM131.64 197.28L134.316 200.253L134.339 200.232L134.362 200.211L131.64 197.28ZM139.56 186.48L143.179 188.183L143.198 188.144L143.215 188.105L139.56 186.48ZM133.8 154.8L131.488 158.064L131.534 158.097L131.581 158.128L133.8 154.8ZM102.12 150.12L102.958 154.031L103.055 154.01L103.151 153.985L102.12 150.12ZM92.4 153.36L90.7238 149.728L90.667 149.754L90.6111 149.782L92.4 153.36ZM84.48 159.12L81.6516 156.292L84.48 159.12ZM76.92 170.28L80.5753 171.905V171.905L76.92 170.28ZM81.6 201.96L79.0832 205.069L79.1636 205.134L79.2473 205.195L81.6 201.96ZM130.56 102.24L131.168 106.193L131.315 106.171L131.459 106.138L130.56 102.24ZM139.2 99.72L140.567 103.479L140.653 103.448L140.738 103.412L139.2 99.72ZM147.12 95.76L149.178 99.19L149.236 99.1551L149.293 99.1183L147.12 95.76ZM156.84 85.68L160.288 87.7081L160.313 87.6656L160.337 87.6226L156.84 85.68ZM152.16 54L149.975 57.3504L150.027 57.3844L150.08 57.4168L152.16 54ZM119.76 49.68L118.922 45.7688H118.922L119.76 49.68ZM110.4 52.56L111.938 56.2523L110.4 52.56ZM102.84 57.24L105.443 60.277L105.471 60.2536L105.497 60.2296L102.84 57.24ZM94.92 67.68L98.5393 69.3832H98.5393L94.92 67.68ZM97.08 252.32C77.9554 252.32 61.481 249.957 47.5849 245.325L45.0551 252.915C59.959 257.883 77.3246 260.32 97.08 260.32V252.32ZM47.5849 245.325C33.692 240.694 23.2042 234.074 15.8601 225.617L9.81987 230.863C18.3158 240.646 30.148 247.946 45.0551 252.915L47.5849 245.325ZM15.8935 225.656C8.6333 217.076 4.96 206.732 4.96 194.4H-3.04C-3.04 208.468 1.2067 220.684 9.78646 230.824L15.8935 225.656ZM4.96 194.4C4.96 183.892 7.0127 174.679 11.0177 166.669L3.86229 163.091C-0.772703 172.361 -3.04 182.828 -3.04 194.4H4.96ZM11.0369 166.63C15.1084 158.261 20.7584 151.024 28.0195 144.897L22.8605 138.783C14.7616 145.616 8.41165 153.739 3.84306 163.13L11.0369 166.63ZM28.074 144.85C35.39 138.449 43.6131 133.537 52.7645 130.105L49.9555 122.615C39.9069 126.383 30.85 131.791 22.806 138.83L28.074 144.85ZM53.8087 123.197C46.7893 117.763 41.6964 111.629 38.4006 104.818L31.1994 108.302C35.1036 116.371 41.0507 123.437 48.9113 129.523L53.8087 123.197ZM38.4218 104.862C35.0684 97.7082 33.4 90.2473 33.4 82.44H25.4C25.4 91.4327 27.3316 100.052 31.1782 108.258L38.4218 104.862ZM33.4 82.44C33.4 69.8108 36.0361 58.8498 41.1884 49.4413L34.1716 45.5987C28.2839 56.3502 25.4 68.6692 25.4 82.44H33.4ZM41.1728 49.4695C46.6358 39.6816 54.0275 31.4878 63.3899 24.8656L58.7701 18.3343C48.4525 25.6322 40.2442 34.7184 34.1872 45.5705L41.1728 49.4695ZM63.405 24.8549C73.0858 17.94 84.0624 12.7319 96.3693 9.2488L94.1907 1.55116C81.0576 5.26807 69.2342 10.86 58.7551 18.345L63.405 24.8549ZM96.3693 9.2488C108.705 5.75762 121.896 3.99998 135.96 3.99998V-4.00002C121.224 -4.00002 107.295 -2.15766 94.1907 1.55116L96.3693 9.2488ZM135.96 3.99998C151.867 3.99998 166.134 6.45555 178.813 11.2969L181.667 3.82312C167.946 -1.41558 152.693 -4.00002 135.96 -4.00002V3.99998ZM178.873 11.3192C191.515 15.9161 201.459 22.6292 208.866 31.3838L214.974 26.2162C206.541 16.2508 195.365 8.80383 181.607 3.80082L178.873 11.3192ZM208.866 31.3838C216.115 39.9504 219.8 50.4085 219.8 63H227.8C227.8 48.7115 223.565 36.3696 214.974 26.2162L208.866 31.3838ZM219.8 63C219.8 71.6543 218.322 79.6733 215.398 87.0939L222.842 90.0261C226.158 81.6067 227.8 72.5857 227.8 63H219.8ZM215.414 87.0545C212.487 94.2587 208.199 100.933 202.505 107.082L208.375 112.518C214.681 105.707 219.513 98.2213 222.826 90.0655L215.414 87.0545ZM202.557 107.028C196.886 112.925 189.793 118.206 181.218 122.841L185.022 129.879C194.207 124.914 201.994 119.155 208.323 112.572L202.557 107.028ZM181.331 129.938C189.39 133.967 196.097 139.664 201.485 147.073L207.955 142.367C201.823 133.936 194.13 127.393 184.909 122.782L181.331 129.938ZM201.532 147.135C206.913 154.239 209.72 163.187 209.72 174.24H217.72C217.72 161.773 214.527 151.041 207.908 142.305L201.532 147.135ZM209.72 174.24C209.72 192.138 204.582 206.631 194.521 218.034L200.519 223.326C212.058 210.249 217.72 193.782 217.72 174.24H209.72ZM194.517 218.037C184.495 229.426 170.971 238.076 153.76 243.89L156.32 251.47C174.629 245.284 189.425 235.934 200.523 223.323L194.517 218.037ZM153.791 243.88C136.728 249.49 117.836 252.32 97.08 252.32V260.32C118.564 260.32 138.312 257.39 156.289 251.48L153.791 243.88ZM102.48 211.72C106.791 211.72 110.797 211.34 114.478 210.551L112.802 202.729C109.763 203.38 106.329 203.72 102.48 203.72V211.72ZM114.671 210.505C118.493 209.486 121.992 208.196 125.149 206.618L121.571 199.462C118.968 200.764 115.987 201.874 112.609 202.775L114.671 210.505ZM125.256 206.562C128.63 204.745 131.657 202.646 134.316 200.253L128.964 194.307C126.823 196.234 124.33 197.975 121.464 199.518L125.256 206.562ZM134.362 200.211C138.09 196.749 141.038 192.734 143.179 188.183L135.941 184.777C134.242 188.386 131.91 191.571 128.918 194.349L134.362 200.211ZM143.215 188.105C145.377 183.24 146.44 178.002 146.44 172.44H138.44C138.44 176.958 137.583 181.08 135.905 184.855L143.215 188.105ZM146.44 172.44C146.44 163.407 143.066 156.17 136.019 151.472L131.581 158.128C136.054 161.11 138.44 165.633 138.44 172.44H146.44ZM136.112 151.536C129.575 146.905 121.775 144.68 112.92 144.68V152.68C120.385 152.68 126.505 154.535 131.488 158.064L136.112 151.536ZM112.92 144.68C108.96 144.68 105.014 145.209 101.089 146.255L103.151 153.985C106.426 153.111 109.68 152.68 112.92 152.68V144.68ZM101.282 146.209C97.6331 146.991 94.112 148.164 90.7238 149.728L94.0762 156.992C96.928 155.676 99.887 154.689 102.958 154.031L101.282 146.209ZM90.6111 149.782C87.3262 151.425 84.339 153.604 81.6516 156.292L87.3084 161.948C89.421 159.836 91.7138 158.175 94.1889 156.938L90.6111 149.782ZM81.6516 156.292C78.1603 159.783 75.3698 163.919 73.2648 168.655L80.5753 171.905C82.3102 168.001 84.5597 164.697 87.3084 161.948L81.6516 156.292ZM73.2648 168.655C71.1027 173.52 70.04 178.758 70.04 184.32H78.04C78.04 179.802 78.8974 175.68 80.5753 171.905L73.2648 168.655ZM70.04 184.32C70.04 192.959 72.9281 200.086 79.0832 205.069L84.1168 198.851C80.192 195.674 78.04 191.041 78.04 184.32H70.04ZM79.2473 205.195C85.4018 209.671 93.2658 211.72 102.48 211.72V203.72C94.4142 203.72 88.3582 201.929 83.9527 198.725L79.2473 205.195ZM120.84 106.96C124.391 106.96 127.835 106.706 131.168 106.193L129.952 98.2865C127.045 98.7336 124.009 98.96 120.84 98.96V106.96ZM131.459 106.138C134.717 105.386 137.755 104.502 140.567 103.479L137.833 95.9608C135.365 96.8582 132.644 97.6541 129.661 98.3424L131.459 106.138ZM140.738 103.412C143.778 102.146 146.594 100.74 149.178 99.19L145.062 92.33C142.846 93.6595 140.382 94.894 137.662 96.0277L140.738 103.412ZM149.293 99.1183C153.881 96.1494 157.564 92.3392 160.288 87.7081L153.392 83.6519C151.316 87.1808 148.519 90.0906 144.947 92.4017L149.293 99.1183ZM160.337 87.6226C163.118 82.6166 164.44 76.8865 164.44 70.56H156.44C156.44 75.7535 155.362 80.1034 153.343 83.7374L160.337 87.6226ZM164.44 70.56C164.44 61.7925 161.194 54.8162 154.24 50.5832L150.08 57.4168C154.166 59.9038 156.44 63.9675 156.44 70.56H164.44ZM154.345 50.6496C147.985 46.502 139.953 44.6 130.56 44.6V52.6C138.927 52.6 145.295 54.298 149.975 57.3504L154.345 50.6496ZM130.56 44.6C126.471 44.6 122.587 44.9833 118.922 45.7688L120.598 53.5912C123.653 52.9367 126.969 52.6 130.56 52.6V44.6ZM118.922 45.7688C115.346 46.535 111.989 47.5645 108.862 48.8677L111.938 56.2523C114.571 55.1555 117.454 54.265 120.598 53.5912L118.922 45.7688ZM108.862 48.8677C105.605 50.2247 102.699 52.0131 100.183 54.2504L105.497 60.2296C107.301 58.6269 109.435 57.2953 111.938 56.2523L108.862 48.8677ZM100.237 54.203C96.4394 57.4579 93.4567 61.3954 91.3007 65.9768L98.5393 69.3832C100.223 65.8046 102.521 62.7821 105.443 60.277L100.237 54.203ZM91.3007 65.9768C89.0907 70.6732 88.04 75.9511 88.04 81.72H96.04C96.04 76.9289 96.9093 72.8468 98.5393 69.3832L91.3007 65.9768ZM88.04 81.72C88.04 90.3058 91.3286 97.1297 98.2402 101.337L102.4 94.5032C98.2714 91.9902 96.04 88.0141 96.04 81.72H88.04ZM98.2402 101.337C104.532 105.167 112.137 106.96 120.84 106.96V98.96C113.223 98.96 107.148 97.3935 102.4 94.5032L98.2402 101.337Z" fill="url(#paint0_linear_121_407)" mask="url(#path-1-outside-1_121_407)"/>
<defs>
<linearGradient id="paint0_linear_121_407" x1="-3" y1="132" x2="238" y2="132" gradientUnits="userSpaceOnUse">
<stop stop-color="#6A11CB"/>
<stop offset="1" stop-color="#2575FC"/>
</linearGradient>
</defs>
</svg>
