<svg width="221" height="265" viewBox="0 0 221 257" fill="none" xmlns="http://www.w3.org/2000/svg">
<mask id="path-1-outside-1_121_408" maskUnits="userSpaceOnUse" x="-4" y="-4" width="229" height="265" fill="black">
<rect fill="white" x="-4" y="-4" width="229" height="265"/>
<path d="M89.68 256.32C72.16 256.32 56.68 253.8 43.24 248.76C29.8 243.72 19.24 236.16 11.56 226.08C4.12 216 0.400001 203.64 0.400001 189C0.400001 186.36 0.520001 183.72 0.76 181.08C1 178.44 1.36 175.68 1.84 172.8H65.92C65.68 174.48 65.44 176.04 65.2 177.48C65.2 178.92 65.2 180.24 65.2 181.44C65.2 190.32 67.72 196.92 72.76 201.24C77.8 205.56 84.76 207.72 93.64 207.72C103.48 207.72 111.28 205.56 117.04 201.24C123.04 196.68 127.84 189.72 131.44 180.36C135.04 171 138.16 158.76 140.8 143.64C136.24 147.48 131.08 150.84 125.32 153.72C119.56 156.36 113.44 158.52 106.96 160.2C100.72 161.64 94.24 162.36 87.52 162.36C72.88 162.36 59.68 159.84 47.92 154.8C36.16 149.76 26.8 142.44 19.84 132.84C13.12 123.24 9.76 111.6 9.76 97.92C9.76 82.8 12.64 69.24 18.4 57.24C24.16 45 32.2 34.68 42.52 26.28C53.08 17.64 65.56 11.16 79.96 6.83998C94.6 2.27998 110.56 -1.71661e-05 127.84 -1.71661e-05C148 -1.71661e-05 164.92 3.23998 178.6 9.71999C192.52 16.2 202.96 26.04 209.92 39.24C217.12 52.2 220.72 68.52 220.72 88.2C220.72 93.72 220.36 99.6 219.64 105.84C219.16 112.08 218.32 118.56 217.12 125.28C211.6 157.2 203.44 182.76 192.64 201.96C181.84 221.16 167.92 235.08 150.88 243.72C134.08 252.12 113.68 256.32 89.68 256.32ZM109.84 119.16C115.84 119.16 121.24 118.2 126.04 116.28C131.08 114.36 135.4 111.84 139 108.72C143.32 104.64 146.56 99.84 148.72 94.32C151.12 88.56 152.32 82.08 152.32 74.88C152.32 69.12 151.24 64.32 149.08 60.48C146.92 56.64 143.56 53.76 139 51.84C134.68 49.68 129.28 48.6 122.8 48.6C117.28 48.6 112.24 49.32 107.68 50.76C103.12 52.2 99.16 54.24 95.8 56.88C90.76 60.72 86.92 65.64 84.28 71.64C81.64 77.64 80.32 84.48 80.32 92.16C80.32 97.92 81.4 102.84 83.56 106.92C85.96 110.76 89.32 113.76 93.64 115.92C97.96 118.08 103.36 119.16 109.84 119.16Z"/>
</mask>
<path d="M43.24 248.76L44.6445 245.015L43.24 248.76ZM11.56 226.08L8.34171 228.455L8.3598 228.48L8.37827 228.504L11.56 226.08ZM0.76 181.08L-3.22357 180.718L0.76 181.08ZM1.84 172.8V168.8H-1.54851L-2.10557 172.142L1.84 172.8ZM65.92 172.8L69.8798 173.366L70.532 168.8H65.92V172.8ZM65.2 177.48L61.2544 176.822L61.2 177.149V177.48H65.2ZM72.76 201.24L70.1568 204.277L72.76 201.24ZM117.04 201.24L119.44 204.44L119.45 204.432L119.46 204.425L117.04 201.24ZM131.44 180.36L127.707 178.924L131.44 180.36ZM140.8 143.64L144.74 144.328L146.631 133.5L138.223 140.58L140.8 143.64ZM125.32 153.72L126.987 157.356L127.048 157.328L127.109 157.298L125.32 153.72ZM106.96 160.2L107.859 164.098L107.912 164.085L107.964 164.072L106.96 160.2ZM47.92 154.8L46.3443 158.477L47.92 154.8ZM19.84 132.84L16.5631 135.134L16.5821 135.161L16.6016 135.188L19.84 132.84ZM18.4 57.24L22.0061 58.9709L22.0127 58.9571L22.0193 58.9432L18.4 57.24ZM42.52 26.28L45.0451 29.3822L45.053 29.3758L42.52 26.28ZM79.96 6.83998L81.1094 10.6713L81.1295 10.6653L81.1495 10.659L79.96 6.83998ZM178.6 9.71999L176.888 13.3349L176.9 13.3407L176.912 13.3463L178.6 9.71999ZM209.92 39.24L206.382 41.1056L206.402 41.1443L206.423 41.1826L209.92 39.24ZM219.64 105.84L215.666 105.382L215.658 105.457L215.652 105.533L219.64 105.84ZM217.12 125.28L213.182 124.577L213.18 124.588L213.179 124.598L217.12 125.28ZM192.64 201.96L189.154 199.999L192.64 201.96ZM150.88 243.72L152.669 247.298L152.679 247.293L152.689 247.288L150.88 243.72ZM126.04 116.28L124.616 112.542L124.585 112.554L124.554 112.566L126.04 116.28ZM139 108.72L141.62 111.743L141.684 111.687L141.746 111.628L139 108.72ZM148.72 94.32L145.028 92.7815L145.011 92.8218L144.995 92.8624L148.72 94.32ZM149.08 60.48L145.594 62.441V62.441L149.08 60.48ZM139 51.84L137.211 55.4177L137.328 55.476L137.448 55.5265L139 51.84ZM107.68 50.76L108.885 54.5743H108.885L107.68 50.76ZM95.8 56.88L98.2242 60.0617L98.2479 60.0437L98.2713 60.0253L95.8 56.88ZM84.28 71.64L80.6187 70.029L80.6187 70.029L84.28 71.64ZM83.56 106.92L80.0249 108.792L80.092 108.918L80.168 109.04L83.56 106.92ZM93.64 115.92L95.4289 112.342L93.64 115.92ZM89.68 252.32C72.5372 252.32 57.5485 249.854 44.6445 245.015L41.8355 252.505C55.8115 257.746 71.7828 260.32 89.68 260.32V252.32ZM44.6445 245.015C31.8134 240.203 21.9071 233.06 14.7417 223.656L8.37827 228.504C16.573 239.26 27.7866 247.237 41.8355 252.505L44.6445 245.015ZM14.7783 223.705C7.92798 214.424 4.4 202.934 4.4 189H-3.6C-3.6 204.346 0.312019 217.576 8.34171 228.455L14.7783 223.705ZM4.4 189C4.4 186.481 4.51447 183.962 4.74357 181.442L-3.22357 180.718C-3.47447 183.478 -3.6 186.239 -3.6 189H4.4ZM4.74357 181.442C4.97373 178.91 5.32029 176.249 5.78558 173.458L-2.10557 172.142C-2.60029 175.111 -2.97373 177.97 -3.22357 180.718L4.74357 181.442ZM1.84 176.8H65.92V168.8H1.84V176.8ZM61.9602 172.234C61.7239 173.888 61.4886 175.417 61.2544 176.822L69.1456 178.138C69.3914 176.663 69.6361 175.072 69.8798 173.366L61.9602 172.234ZM61.2 177.48C61.2 177.483 61.2 177.486 61.2 177.488C61.2 177.491 61.2 177.494 61.2 177.497C61.2 177.5 61.2 177.502 61.2 177.505C61.2 177.508 61.2 177.511 61.2 177.514C61.2 177.517 61.2 177.519 61.2 177.522C61.2 177.525 61.2 177.528 61.2 177.531C61.2 177.533 61.2 177.536 61.2 177.539C61.2 177.542 61.2 177.545 61.2 177.547C61.2 177.55 61.2 177.553 61.2 177.556C61.2 177.559 61.2 177.561 61.2 177.564C61.2 177.567 61.2 177.57 61.2 177.573C61.2 177.575 61.2 177.578 61.2 177.581C61.2 177.584 61.2 177.587 61.2 177.589C61.2 177.592 61.2 177.595 61.2 177.598C61.2 177.601 61.2 177.603 61.2 177.606C61.2 177.609 61.2 177.612 61.2 177.615C61.2 177.617 61.2 177.62 61.2 177.623C61.2 177.626 61.2 177.629 61.2 177.631C61.2 177.634 61.2 177.637 61.2 177.64C61.2 177.643 61.2 177.645 61.2 177.648C61.2 177.651 61.2 177.654 61.2 177.657C61.2 177.659 61.2 177.662 61.2 177.665C61.2 177.668 61.2 177.671 61.2 177.673C61.2 177.676 61.2 177.679 61.2 177.682C61.2 177.684 61.2 177.687 61.2 177.69C61.2 177.693 61.2 177.696 61.2 177.698C61.2 177.701 61.2 177.704 61.2 177.707C61.2 177.71 61.2 177.712 61.2 177.715C61.2 177.718 61.2 177.721 61.2 177.724C61.2 177.726 61.2 177.729 61.2 177.732C61.2 177.735 61.2 177.737 61.2 177.74C61.2 177.743 61.2 177.746 61.2 177.749C61.2 177.751 61.2 177.754 61.2 177.757C61.2 177.76 61.2 177.762 61.2 177.765C61.2 177.768 61.2 177.771 61.2 177.774C61.2 177.776 61.2 177.779 61.2 177.782C61.2 177.785 61.2 177.788 61.2 177.79C61.2 177.793 61.2 177.796 61.2 177.799C61.2 177.801 61.2 177.804 61.2 177.807C61.2 177.81 61.2 177.813 61.2 177.815C61.2 177.818 61.2 177.821 61.2 177.824C61.2 177.826 61.2 177.829 61.2 177.832C61.2 177.835 61.2 177.837 61.2 177.84C61.2 177.843 61.2 177.846 61.2 177.849C61.2 177.851 61.2 177.854 61.2 177.857C61.2 177.86 61.2 177.862 61.2 177.865C61.2 177.868 61.2 177.871 61.2 177.874C61.2 177.876 61.2 177.879 61.2 177.882C61.2 177.885 61.2 177.887 61.2 177.89C61.2 177.893 61.2 177.896 61.2 177.898C61.2 177.901 61.2 177.904 61.2 177.907C61.2 177.91 61.2 177.912 61.2 177.915C61.2 177.918 61.2 177.921 61.2 177.923C61.2 177.926 61.2 177.929 61.2 177.932C61.2 177.934 61.2 177.937 61.2 177.94C61.2 177.943 61.2 177.945 61.2 177.948C61.2 177.951 61.2 177.954 61.2 177.956C61.2 177.959 61.2 177.962 61.2 177.965C61.2 177.968 61.2 177.97 61.2 177.973C61.2 177.976 61.2 177.979 61.2 177.981C61.2 177.984 61.2 177.987 61.2 177.99C61.2 177.992 61.2 177.995 61.2 177.998C61.2 178.001 61.2 178.003 61.2 178.006C61.2 178.009 61.2 178.012 61.2 178.014C61.2 178.017 61.2 178.02 61.2 178.023C61.2 178.025 61.2 178.028 61.2 178.031C61.2 178.034 61.2 178.036 61.2 178.039C61.2 178.042 61.2 178.045 61.2 178.047C61.2 178.05 61.2 178.053 61.2 178.056C61.2 178.058 61.2 178.061 61.2 178.064C61.2 178.067 61.2 178.069 61.2 178.072C61.2 178.075 61.2 178.078 61.2 178.08C61.2 178.083 61.2 178.086 61.2 178.089C61.2 178.091 61.2 178.094 61.2 178.097C61.2 178.1 61.2 178.102 61.2 178.105C61.2 178.108 61.2 178.111 61.2 178.113C61.2 178.116 61.2 178.119 61.2 178.122C61.2 178.124 61.2 178.127 61.2 178.13C61.2 178.133 61.2 178.135 61.2 178.138C61.2 178.141 61.2 178.143 61.2 178.146C61.2 178.149 61.2 178.152 61.2 178.154C61.2 178.157 61.2 178.16 61.2 178.163C61.2 178.165 61.2 178.168 61.2 178.171C61.2 178.174 61.2 178.176 61.2 178.179C61.2 178.182 61.2 178.185 61.2 178.187C61.2 178.19 61.2 178.193 61.2 178.195C61.2 178.198 61.2 178.201 61.2 178.204C61.2 178.206 61.2 178.209 61.2 178.212C61.2 178.215 61.2 178.217 61.2 178.22C61.2 178.223 61.2 178.226 61.2 178.228C61.2 178.231 61.2 178.234 61.2 178.236C61.2 178.239 61.2 178.242 61.2 178.245C61.2 178.247 61.2 178.25 61.2 178.253C61.2 178.256 61.2 178.258 61.2 178.261C61.2 178.264 61.2 178.266 61.2 178.269C61.2 178.272 61.2 178.275 61.2 178.277C61.2 178.28 61.2 178.283 61.2 178.286C61.2 178.288 61.2 178.291 61.2 178.294C61.2 178.296 61.2 178.299 61.2 178.302C61.2 178.305 61.2 178.307 61.2 178.31C61.2 178.313 61.2 178.315 61.2 178.318C61.2 178.321 61.2 178.324 61.2 178.326C61.2 178.329 61.2 178.332 61.2 178.334C61.2 178.337 61.2 178.34 61.2 178.343C61.2 178.345 61.2 178.348 61.2 178.351C61.2 178.354 61.2 178.356 61.2 178.359C61.2 178.362 61.2 178.364 61.2 178.367C61.2 178.37 61.2 178.373 61.2 178.375C61.2 178.378 61.2 178.381 61.2 178.383C61.2 178.386 61.2 178.389 61.2 178.392C61.2 178.394 61.2 178.397 61.2 178.4C61.2 178.402 61.2 178.405 61.2 178.408C61.2 178.41 61.2 178.413 61.2 178.416C61.2 178.419 61.2 178.421 61.2 178.424C61.2 178.427 61.2 178.429 61.2 178.432C61.2 178.435 61.2 178.438 61.2 178.44C61.2 178.443 61.2 178.446 61.2 178.448C61.2 178.451 61.2 178.454 61.2 178.456C61.2 178.459 61.2 178.462 61.2 178.465C61.2 178.467 61.2 178.47 61.2 178.473C61.2 178.475 61.2 178.478 61.2 178.481C61.2 178.484 61.2 178.486 61.2 178.489C61.2 178.492 61.2 178.494 61.2 178.497C61.2 178.5 61.2 178.502 61.2 178.505C61.2 178.508 61.2 178.511 61.2 178.513C61.2 178.516 61.2 178.519 61.2 178.521C61.2 178.524 61.2 178.527 61.2 178.529C61.2 178.532 61.2 178.535 61.2 178.537C61.2 178.54 61.2 178.543 61.2 178.546C61.2 178.548 61.2 178.551 61.2 178.554C61.2 178.556 61.2 178.559 61.2 178.562C61.2 178.564 61.2 178.567 61.2 178.57C61.2 178.573 61.2 178.575 61.2 178.578C61.2 178.581 61.2 178.583 61.2 178.586C61.2 178.589 61.2 178.591 61.2 178.594C61.2 178.597 61.2 178.599 61.2 178.602C61.2 178.605 61.2 178.607 61.2 178.61C61.2 178.613 61.2 178.616 61.2 178.618C61.2 178.621 61.2 178.624 61.2 178.626C61.2 178.629 61.2 178.632 61.2 178.634C61.2 178.637 61.2 178.64 61.2 178.642C61.2 178.645 61.2 178.648 61.2 178.65C61.2 178.653 61.2 178.656 61.2 178.658C61.2 178.661 61.2 178.664 61.2 178.667C61.2 178.669 61.2 178.672 61.2 178.675C61.2 178.677 61.2 178.68 61.2 178.683C61.2 178.685 61.2 178.688 61.2 178.691C61.2 178.693 61.2 178.696 61.2 178.699C61.2 178.701 61.2 178.704 61.2 178.707C61.2 178.709 61.2 178.712 61.2 178.715C61.2 178.717 61.2 178.72 61.2 178.723C61.2 178.725 61.2 178.728 61.2 178.731C61.2 178.733 61.2 178.736 61.2 178.739C61.2 178.741 61.2 178.744 61.2 178.747C61.2 178.749 61.2 178.752 61.2 178.755C61.2 178.757 61.2 178.76 61.2 178.763C61.2 178.765 61.2 178.768 61.2 178.771C61.2 178.773 61.2 178.776 61.2 178.779C61.2 178.782 61.2 178.784 61.2 178.787C61.2 178.79 61.2 178.792 61.2 178.795C61.2 178.798 61.2 178.8 61.2 178.803C61.2 178.805 61.2 178.808 61.2 178.811C61.2 178.813 61.2 178.816 61.2 178.819C61.2 178.821 61.2 178.824 61.2 178.827C61.2 178.829 61.2 178.832 61.2 178.835C61.2 178.837 61.2 178.84 61.2 178.843C61.2 178.845 61.2 178.848 61.2 178.851C61.2 178.853 61.2 178.856 61.2 178.859C61.2 178.861 61.2 178.864 61.2 178.867C61.2 178.869 61.2 178.872 61.2 178.875C61.2 178.877 61.2 178.88 61.2 178.883C61.2 178.885 61.2 178.888 61.2 178.891C61.2 178.893 61.2 178.896 61.2 178.899C61.2 178.901 61.2 178.904 61.2 178.907C61.2 178.909 61.2 178.912 61.2 178.915C61.2 178.917 61.2 178.92 61.2 178.922C61.2 178.925 61.2 178.928 61.2 178.93C61.2 178.933 61.2 178.936 61.2 178.938C61.2 178.941 61.2 178.944 61.2 178.946C61.2 178.949 61.2 178.952 61.2 178.954C61.2 178.957 61.2 178.96 61.2 178.962C61.2 178.965 61.2 178.967 61.2 178.97C61.2 178.973 61.2 178.975 61.2 178.978C61.2 178.981 61.2 178.983 61.2 178.986C61.2 178.989 61.2 178.991 61.2 178.994C61.2 178.997 61.2 178.999 61.2 179.002C61.2 179.005 61.2 179.007 61.2 179.01C61.2 179.012 61.2 179.015 61.2 179.018C61.2 179.02 61.2 179.023 61.2 179.026C61.2 179.028 61.2 179.031 61.2 179.034C61.2 179.036 61.2 179.039 61.2 179.041C61.2 179.044 61.2 179.047 61.2 179.049C61.2 179.052 61.2 179.055 61.2 179.057C61.2 179.06 61.2 179.063 61.2 179.065C61.2 179.068 61.2 179.07 61.2 179.073C61.2 179.076 61.2 179.078 61.2 179.081C61.2 179.084 61.2 179.086 61.2 179.089C61.2 179.092 61.2 179.094 61.2 179.097C61.2 179.099 61.2 179.102 61.2 179.105C61.2 179.107 61.2 179.11 61.2 179.113C61.2 179.115 61.2 179.118 61.2 179.12C61.2 179.123 61.2 179.126 61.2 179.128C61.2 179.131 61.2 179.134 61.2 179.136C61.2 179.139 61.2 179.141 61.2 179.144C61.2 179.147 61.2 179.149 61.2 179.152C61.2 179.155 61.2 179.157 61.2 179.16C61.2 179.162 61.2 179.165 61.2 179.168C61.2 179.17 61.2 179.173 61.2 179.176C61.2 179.178 61.2 179.181 61.2 179.183C61.2 179.186 61.2 179.189 61.2 179.191C61.2 179.194 61.2 179.197 61.2 179.199C61.2 179.202 61.2 179.204 61.2 179.207C61.2 179.21 61.2 179.212 61.2 179.215C61.2 179.217 61.2 179.22 61.2 179.223C61.2 179.225 61.2 179.228 61.2 179.231C61.2 179.233 61.2 179.236 61.2 179.238C61.2 179.241 61.2 179.244 61.2 179.246C61.2 179.249 61.2 179.251 61.2 179.254C61.2 179.257 61.2 179.259 61.2 179.262C61.2 179.265 61.2 179.267 61.2 179.27C61.2 179.272 61.2 179.275 61.2 179.278C61.2 179.28 61.2 179.283 61.2 179.285C61.2 179.288 61.2 179.291 61.2 179.293C61.2 179.296 61.2 179.298 61.2 179.301C61.2 179.304 61.2 179.306 61.2 179.309C61.2 179.312 61.2 179.314 61.2 179.317C61.2 179.319 61.2 179.322 61.2 179.325C61.2 179.327 61.2 179.33 61.2 179.332C61.2 179.335 61.2 179.338 61.2 179.34C61.2 179.343 61.2 179.345 61.2 179.348C61.2 179.351 61.2 179.353 61.2 179.356C61.2 179.358 61.2 179.361 61.2 179.364C61.2 179.366 61.2 179.369 61.2 179.371C61.2 179.374 61.2 179.377 61.2 179.379C61.2 179.382 61.2 179.384 61.2 179.387C61.2 179.39 61.2 179.392 61.2 179.395C61.2 179.397 61.2 179.4 61.2 179.403C61.2 179.405 61.2 179.408 61.2 179.41C61.2 179.413 61.2 179.416 61.2 179.418C61.2 179.421 61.2 179.423 61.2 179.426C61.2 179.428 61.2 179.431 61.2 179.434C61.2 179.436 61.2 179.439 61.2 179.441C61.2 179.444 61.2 179.447 61.2 179.449C61.2 179.452 61.2 179.454 61.2 179.457C61.2 179.46 61.2 179.462 61.2 179.465C61.2 179.467 61.2 179.47 61.2 179.473C61.2 179.475 61.2 179.478 61.2 179.48C61.2 179.483 61.2 179.485 61.2 179.488C61.2 179.491 61.2 179.493 61.2 179.496C61.2 179.498 61.2 179.501 61.2 179.504C61.2 179.506 61.2 179.509 61.2 179.511C61.2 179.514 61.2 179.516 61.2 179.519C61.2 179.522 61.2 179.524 61.2 179.527C61.2 179.529 61.2 179.532 61.2 179.535C61.2 179.537 61.2 179.54 61.2 179.542C61.2 179.545 61.2 179.547 61.2 179.55C61.2 179.553 61.2 179.555 61.2 179.558C61.2 179.56 61.2 179.563 61.2 179.565C61.2 179.568 61.2 179.571 61.2 179.573C61.2 179.576 61.2 179.578 61.2 179.581C61.2 179.583 61.2 179.586 61.2 179.589C61.2 179.591 61.2 179.594 61.2 179.596C61.2 179.599 61.2 179.602 61.2 179.604C61.2 179.607 61.2 179.609 61.2 179.612C61.2 179.614 61.2 179.617 61.2 179.619C61.2 179.622 61.2 179.625 61.2 179.627C61.2 179.63 61.2 179.632 61.2 179.635C61.2 179.637 61.2 179.64 61.2 179.643C61.2 179.645 61.2 179.648 61.2 179.65C61.2 179.653 61.2 179.655 61.2 179.658C61.2 179.661 61.2 179.663 61.2 179.666C61.2 179.668 61.2 179.671 61.2 179.673C61.2 179.676 61.2 179.679 61.2 179.681C61.2 179.684 61.2 179.686 61.2 179.689C61.2 179.691 61.2 179.694 61.2 179.696C61.2 179.699 61.2 179.702 61.2 179.704C61.2 179.707 61.2 179.709 61.2 179.712C61.2 179.714 61.2 179.717 61.2 179.719C61.2 179.722 61.2 179.725 61.2 179.727C61.2 179.73 61.2 179.732 61.2 179.735C61.2 179.737 61.2 179.74 61.2 179.742C61.2 179.745 61.2 179.748 61.2 179.75C61.2 179.753 61.2 179.755 61.2 179.758C61.2 179.76 61.2 179.763 61.2 179.765C61.2 179.768 61.2 179.771 61.2 179.773C61.2 179.776 61.2 179.778 61.2 179.781C61.2 179.783 61.2 179.786 61.2 179.788C61.2 179.791 61.2 179.794 61.2 179.796C61.2 179.799 61.2 179.801 61.2 179.804C61.2 179.806 61.2 179.809 61.2 179.811C61.2 179.814 61.2 179.816 61.2 179.819C61.2 179.822 61.2 179.824 61.2 179.827C61.2 179.829 61.2 179.832 61.2 179.834C61.2 179.837 61.2 179.839 61.2 179.842C61.2 179.844 61.2 179.847 61.2 179.85C61.2 179.852 61.2 179.855 61.2 179.857C61.2 179.86 61.2 179.862 61.2 179.865C61.2 179.867 61.2 179.87 61.2 179.872C61.2 179.875 61.2 179.878 61.2 179.88C61.2 179.883 61.2 179.885 61.2 179.888C61.2 179.89 61.2 179.893 61.2 179.895C61.2 179.898 61.2 179.9 61.2 179.903C61.2 179.905 61.2 179.908 61.2 179.91C61.2 179.913 61.2 179.916 61.2 179.918C61.2 179.921 61.2 179.923 61.2 179.926C61.2 179.928 61.2 179.931 61.2 179.933C61.2 179.936 61.2 179.938 61.2 179.941C61.2 179.943 61.2 179.946 61.2 179.948C61.2 179.951 61.2 179.954 61.2 179.956C61.2 179.959 61.2 179.961 61.2 179.964C61.2 179.966 61.2 179.969 61.2 179.971C61.2 179.974 61.2 179.976 61.2 179.979C61.2 179.981 61.2 179.984 61.2 179.986C61.2 179.989 61.2 179.991 61.2 179.994C61.2 179.996 61.2 179.999 61.2 180.002C61.2 180.004 61.2 180.007 61.2 180.009C61.2 180.012 61.2 180.014 61.2 180.017C61.2 180.019 61.2 180.022 61.2 180.024C61.2 180.027 61.2 180.029 61.2 180.032C61.2 180.034 61.2 180.037 61.2 180.039C61.2 180.042 61.2 180.044 61.2 180.047C61.2 180.049 61.2 180.052 61.2 180.054C61.2 180.057 61.2 180.06 61.2 180.062C61.2 180.065 61.2 180.067 61.2 180.07C61.2 180.072 61.2 180.075 61.2 180.077C61.2 180.08 61.2 180.082 61.2 180.085C61.2 180.087 61.2 180.09 61.2 180.092C61.2 180.095 61.2 180.097 61.2 180.1C61.2 180.102 61.2 180.105 61.2 180.107C61.2 180.11 61.2 180.112 61.2 180.115C61.2 180.117 61.2 180.12 61.2 180.122C61.2 180.125 61.2 180.127 61.2 180.13C61.2 180.132 61.2 180.135 61.2 180.137C61.2 180.14 61.2 180.142 61.2 180.145C61.2 180.147 61.2 180.15 61.2 180.152C61.2 180.155 61.2 180.157 61.2 180.16C61.2 180.162 61.2 180.165 61.2 180.167C61.2 180.17 61.2 180.172 61.2 180.175C61.2 180.177 61.2 180.18 61.2 180.182C61.2 180.185 61.2 180.188 61.2 180.19C61.2 180.192 61.2 180.195 61.2 180.197C61.2 180.2 61.2 180.202 61.2 180.205C61.2 180.207 61.2 180.21 61.2 180.212C61.2 180.215 61.2 180.217 61.2 180.22C61.2 180.222 61.2 180.225 61.2 180.227C61.2 180.23 61.2 180.232 61.2 180.235C61.2 180.237 61.2 180.24 61.2 180.242C61.2 180.245 61.2 180.247 61.2 180.25C61.2 180.252 61.2 180.255 61.2 180.257C61.2 180.26 61.2 180.262 61.2 180.265C61.2 180.267 61.2 180.27 61.2 180.272C61.2 180.275 61.2 180.277 61.2 180.28C61.2 180.282 61.2 180.285 61.2 180.287C61.2 180.29 61.2 180.292 61.2 180.295C61.2 180.297 61.2 180.3 61.2 180.302C61.2 180.305 61.2 180.307 61.2 180.31C61.2 180.312 61.2 180.315 61.2 180.317C61.2 180.32 61.2 180.322 61.2 180.325C61.2 180.327 61.2 180.33 61.2 180.332C61.2 180.335 61.2 180.337 61.2 180.34C61.2 180.342 61.2 180.344 61.2 180.347C61.2 180.349 61.2 180.352 61.2 180.354C61.2 180.357 61.2 180.359 61.2 180.362C61.2 180.364 61.2 180.367 61.2 180.369C61.2 180.372 61.2 180.374 61.2 180.377C61.2 180.379 61.2 180.382 61.2 180.384C61.2 180.387 61.2 180.389 61.2 180.392C61.2 180.394 61.2 180.397 61.2 180.399C61.2 180.401 61.2 180.404 61.2 180.406C61.2 180.409 61.2 180.411 61.2 180.414C61.2 180.416 61.2 180.419 61.2 180.421C61.2 180.424 61.2 180.426 61.2 180.429C61.2 180.431 61.2 180.434 61.2 180.436C61.2 180.439 61.2 180.441 61.2 180.444C61.2 180.446 61.2 180.448 61.2 180.451C61.2 180.453 61.2 180.456 61.2 180.458C61.2 180.461 61.2 180.463 61.2 180.466C61.2 180.468 61.2 180.471 61.2 180.473C61.2 180.476 61.2 180.478 61.2 180.481C61.2 180.483 61.2 180.485 61.2 180.488C61.2 180.49 61.2 180.493 61.2 180.495C61.2 180.498 61.2 180.5 61.2 180.503C61.2 180.505 61.2 180.508 61.2 180.51C61.2 180.513 61.2 180.515 61.2 180.518C61.2 180.52 61.2 180.522 61.2 180.525C61.2 180.527 61.2 180.53 61.2 180.532C61.2 180.535 61.2 180.537 61.2 180.54C61.2 180.542 61.2 180.545 61.2 180.547C61.2 180.549 61.2 180.552 61.2 180.554C61.2 180.557 61.2 180.559 61.2 180.562C61.2 180.564 61.2 180.567 61.2 180.569C61.2 180.572 61.2 180.574 61.2 180.576C61.2 180.579 61.2 180.581 61.2 180.584C61.2 180.586 61.2 180.589 61.2 180.591C61.2 180.594 61.2 180.596 61.2 180.599C61.2 180.601 61.2 180.603 61.2 180.606C61.2 180.608 61.2 180.611 61.2 180.613C61.2 180.616 61.2 180.618 61.2 180.621C61.2 180.623 61.2 180.625 61.2 180.628C61.2 180.63 61.2 180.633 61.2 180.635C61.2 180.638 61.2 180.64 61.2 180.643C61.2 180.645 61.2 180.647 61.2 180.65C61.2 180.652 61.2 180.655 61.2 180.657C61.2 180.66 61.2 180.662 61.2 180.665C61.2 180.667 61.2 180.669 61.2 180.672C61.2 180.674 61.2 180.677 61.2 180.679C61.2 180.682 61.2 180.684 61.2 180.687C61.2 180.689 61.2 180.691 61.2 180.694C61.2 180.696 61.2 180.699 61.2 180.701C61.2 180.704 61.2 180.706 61.2 180.709C61.2 180.711 61.2 180.713 61.2 180.716C61.2 180.718 61.2 180.721 61.2 180.723C61.2 180.726 61.2 180.728 61.2 180.73C61.2 180.733 61.2 180.735 61.2 180.738C61.2 180.74 61.2 180.743 61.2 180.745C61.2 180.747 61.2 180.75 61.2 180.752C61.2 180.755 61.2 180.757 61.2 180.76C61.2 180.762 61.2 180.764 61.2 180.767C61.2 180.769 61.2 180.772 61.2 180.774C61.2 180.777 61.2 180.779 61.2 180.781C61.2 180.784 61.2 180.786 61.2 180.789C61.2 180.791 61.2 180.794 61.2 180.796C61.2 180.798 61.2 180.801 61.2 180.803C61.2 180.806 61.2 180.808 61.2 180.811C61.2 180.813 61.2 180.815 61.2 180.818C61.2 180.82 61.2 180.823 61.2 180.825C61.2 180.828 61.2 180.83 61.2 180.832C61.2 180.835 61.2 180.837 61.2 180.84C61.2 180.842 61.2 180.845 61.2 180.847C61.2 180.849 61.2 180.852 61.2 180.854C61.2 180.857 61.2 180.859 61.2 180.861C61.2 180.864 61.2 180.866 61.2 180.869C61.2 180.871 61.2 180.874 61.2 180.876C61.2 180.878 61.2 180.881 61.2 180.883C61.2 180.886 61.2 180.888 61.2 180.89C61.2 180.893 61.2 180.895 61.2 180.898C61.2 180.9 61.2 180.903 61.2 180.905C61.2 180.907 61.2 180.91 61.2 180.912C61.2 180.915 61.2 180.917 61.2 180.919C61.2 180.922 61.2 180.924 61.2 180.927C61.2 180.929 61.2 180.931 61.2 180.934C61.2 180.936 61.2 180.939 61.2 180.941C61.2 180.943 61.2 180.946 61.2 180.948C61.2 180.951 61.2 180.953 61.2 180.956C61.2 180.958 61.2 180.96 61.2 180.963C61.2 180.965 61.2 180.968 61.2 180.97C61.2 180.972 61.2 180.975 61.2 180.977C61.2 180.98 61.2 180.982 61.2 180.984C61.2 180.987 61.2 180.989 61.2 180.992C61.2 180.994 61.2 180.996 61.2 180.999C61.2 181.001 61.2 181.004 61.2 181.006C61.2 181.008 61.2 181.011 61.2 181.013C61.2 181.016 61.2 181.018 61.2 181.02C61.2 181.023 61.2 181.025 61.2 181.028C61.2 181.03 61.2 181.032 61.2 181.035C61.2 181.037 61.2 181.04 61.2 181.042C61.2 181.044 61.2 181.047 61.2 181.049C61.2 181.052 61.2 181.054 61.2 181.056C61.2 181.059 61.2 181.061 61.2 181.063C61.2 181.066 61.2 181.068 61.2 181.071C61.2 181.073 61.2 181.075 61.2 181.078C61.2 181.08 61.2 181.083 61.2 181.085C61.2 181.087 61.2 181.09 61.2 181.092C61.2 181.095 61.2 181.097 61.2 181.099C61.2 181.102 61.2 181.104 61.2 181.106C61.2 181.109 61.2 181.111 61.2 181.114C61.2 181.116 61.2 181.118 61.2 181.121C61.2 181.123 61.2 181.126 61.2 181.128C61.2 181.13 61.2 181.133 61.2 181.135C61.2 181.137 61.2 181.14 61.2 181.142C61.2 181.145 61.2 181.147 61.2 181.149C61.2 181.152 61.2 181.154 61.2 181.157C61.2 181.159 61.2 181.161 61.2 181.164C61.2 181.166 61.2 181.168 61.2 181.171C61.2 181.173 61.2 181.176 61.2 181.178C61.2 181.18 61.2 181.183 61.2 181.185C61.2 181.187 61.2 181.19 61.2 181.192C61.2 181.195 61.2 181.197 61.2 181.199C61.2 181.202 61.2 181.204 61.2 181.206C61.2 181.209 61.2 181.211 61.2 181.214C61.2 181.216 61.2 181.218 61.2 181.221C61.2 181.223 61.2 181.225 61.2 181.228C61.2 181.23 61.2 181.233 61.2 181.235C61.2 181.237 61.2 181.24 61.2 181.242C61.2 181.244 61.2 181.247 61.2 181.249C61.2 181.252 61.2 181.254 61.2 181.256C61.2 181.259 61.2 181.261 61.2 181.263C61.2 181.266 61.2 181.268 61.2 181.27C61.2 181.273 61.2 181.275 61.2 181.278C61.2 181.28 61.2 181.282 61.2 181.285C61.2 181.287 61.2 181.289 61.2 181.292C61.2 181.294 61.2 181.296 61.2 181.299C61.2 181.301 61.2 181.304 61.2 181.306C61.2 181.308 61.2 181.311 61.2 181.313C61.2 181.315 61.2 181.318 61.2 181.32C61.2 181.322 61.2 181.325 61.2 181.327C61.2 181.329 61.2 181.332 61.2 181.334C61.2 181.337 61.2 181.339 61.2 181.341C61.2 181.344 61.2 181.346 61.2 181.348C61.2 181.351 61.2 181.353 61.2 181.355C61.2 181.358 61.2 181.36 61.2 181.362C61.2 181.365 61.2 181.367 61.2 181.37C61.2 181.372 61.2 181.374 61.2 181.377C61.2 181.379 61.2 181.381 61.2 181.384C61.2 181.386 61.2 181.388 61.2 181.391C61.2 181.393 61.2 181.395 61.2 181.398C61.2 181.4 61.2 181.402 61.2 181.405C61.2 181.407 61.2 181.41 61.2 181.412C61.2 181.414 61.2 181.417 61.2 181.419C61.2 181.421 61.2 181.424 61.2 181.426C61.2 181.428 61.2 181.431 61.2 181.433C61.2 181.435 61.2 181.438 61.2 181.44H69.2C69.2 181.438 69.2 181.435 69.2 181.433C69.2 181.431 69.2 181.428 69.2 181.426C69.2 181.424 69.2 181.421 69.2 181.419C69.2 181.417 69.2 181.414 69.2 181.412C69.2 181.41 69.2 181.407 69.2 181.405C69.2 181.402 69.2 181.4 69.2 181.398C69.2 181.395 69.2 181.393 69.2 181.391C69.2 181.388 69.2 181.386 69.2 181.384C69.2 181.381 69.2 181.379 69.2 181.377C69.2 181.374 69.2 181.372 69.2 181.37C69.2 181.367 69.2 181.365 69.2 181.362C69.2 181.36 69.2 181.358 69.2 181.355C69.2 181.353 69.2 181.351 69.2 181.348C69.2 181.346 69.2 181.344 69.2 181.341C69.2 181.339 69.2 181.337 69.2 181.334C69.2 181.332 69.2 181.329 69.2 181.327C69.2 181.325 69.2 181.322 69.2 181.32C69.2 181.318 69.2 181.315 69.2 181.313C69.2 181.311 69.2 181.308 69.2 181.306C69.2 181.304 69.2 181.301 69.2 181.299C69.2 181.296 69.2 181.294 69.2 181.292C69.2 181.289 69.2 181.287 69.2 181.285C69.2 181.282 69.2 181.28 69.2 181.278C69.2 181.275 69.2 181.273 69.2 181.27C69.2 181.268 69.2 181.266 69.2 181.263C69.2 181.261 69.2 181.259 69.2 181.256C69.2 181.254 69.2 181.252 69.2 181.249C69.2 181.247 69.2 181.244 69.2 181.242C69.2 181.24 69.2 181.237 69.2 181.235C69.2 181.233 69.2 181.23 69.2 181.228C69.2 181.225 69.2 181.223 69.2 181.221C69.2 181.218 69.2 181.216 69.2 181.214C69.2 181.211 69.2 181.209 69.2 181.206C69.2 181.204 69.2 181.202 69.2 181.199C69.2 181.197 69.2 181.195 69.2 181.192C69.2 181.19 69.2 181.187 69.2 181.185C69.2 181.183 69.2 181.18 69.2 181.178C69.2 181.176 69.2 181.173 69.2 181.171C69.2 181.168 69.2 181.166 69.2 181.164C69.2 181.161 69.2 181.159 69.2 181.157C69.2 181.154 69.2 181.152 69.2 181.149C69.2 181.147 69.2 181.145 69.2 181.142C69.2 181.14 69.2 181.137 69.2 181.135C69.2 181.133 69.2 181.13 69.2 181.128C69.2 181.126 69.2 181.123 69.2 181.121C69.2 181.118 69.2 181.116 69.2 181.114C69.2 181.111 69.2 181.109 69.2 181.106C69.2 181.104 69.2 181.102 69.2 181.099C69.2 181.097 69.2 181.095 69.2 181.092C69.2 181.09 69.2 181.087 69.2 181.085C69.2 181.083 69.2 181.08 69.2 181.078C69.2 181.075 69.2 181.073 69.2 181.071C69.2 181.068 69.2 181.066 69.2 181.063C69.2 181.061 69.2 181.059 69.2 181.056C69.2 181.054 69.2 181.052 69.2 181.049C69.2 181.047 69.2 181.044 69.2 181.042C69.2 181.04 69.2 181.037 69.2 181.035C69.2 181.032 69.2 181.03 69.2 181.028C69.2 181.025 69.2 181.023 69.2 181.02C69.2 181.018 69.2 181.016 69.2 181.013C69.2 181.011 69.2 181.008 69.2 181.006C69.2 181.004 69.2 181.001 69.2 180.999C69.2 180.996 69.2 180.994 69.2 180.992C69.2 180.989 69.2 180.987 69.2 180.984C69.2 180.982 69.2 180.98 69.2 180.977C69.2 180.975 69.2 180.972 69.2 180.97C69.2 180.968 69.2 180.965 69.2 180.963C69.2 180.96 69.2 180.958 69.2 180.956C69.2 180.953 69.2 180.951 69.2 180.948C69.2 180.946 69.2 180.943 69.2 180.941C69.2 180.939 69.2 180.936 69.2 180.934C69.2 180.931 69.2 180.929 69.2 180.927C69.2 180.924 69.2 180.922 69.2 180.919C69.2 180.917 69.2 180.915 69.2 180.912C69.2 180.91 69.2 180.907 69.2 180.905C69.2 180.903 69.2 180.9 69.2 180.898C69.2 180.895 69.2 180.893 69.2 180.89C69.2 180.888 69.2 180.886 69.2 180.883C69.2 180.881 69.2 180.878 69.2 180.876C69.2 180.874 69.2 180.871 69.2 180.869C69.2 180.866 69.2 180.864 69.2 180.861C69.2 180.859 69.2 180.857 69.2 180.854C69.2 180.852 69.2 180.849 69.2 180.847C69.2 180.845 69.2 180.842 69.2 180.84C69.2 180.837 69.2 180.835 69.2 180.832C69.2 180.83 69.2 180.828 69.2 180.825C69.2 180.823 69.2 180.82 69.2 180.818C69.2 180.815 69.2 180.813 69.2 180.811C69.2 180.808 69.2 180.806 69.2 180.803C69.2 180.801 69.2 180.798 69.2 180.796C69.2 180.794 69.2 180.791 69.2 180.789C69.2 180.786 69.2 180.784 69.2 180.781C69.2 180.779 69.2 180.777 69.2 180.774C69.2 180.772 69.2 180.769 69.2 180.767C69.2 180.764 69.2 180.762 69.2 180.76C69.2 180.757 69.2 180.755 69.2 180.752C69.2 180.75 69.2 180.747 69.2 180.745C69.2 180.743 69.2 180.74 69.2 180.738C69.2 180.735 69.2 180.733 69.2 180.73C69.2 180.728 69.2 180.726 69.2 180.723C69.2 180.721 69.2 180.718 69.2 180.716C69.2 180.713 69.2 180.711 69.2 180.709C69.2 180.706 69.2 180.704 69.2 180.701C69.2 180.699 69.2 180.696 69.2 180.694C69.2 180.691 69.2 180.689 69.2 180.687C69.2 180.684 69.2 180.682 69.2 180.679C69.2 180.677 69.2 180.674 69.2 180.672C69.2 180.669 69.2 180.667 69.2 180.665C69.2 180.662 69.2 180.66 69.2 180.657C69.2 180.655 69.2 180.652 69.2 180.65C69.2 180.647 69.2 180.645 69.2 180.643C69.2 180.64 69.2 180.638 69.2 180.635C69.2 180.633 69.2 180.63 69.2 180.628C69.2 180.625 69.2 180.623 69.2 180.621C69.2 180.618 69.2 180.616 69.2 180.613C69.2 180.611 69.2 180.608 69.2 180.606C69.2 180.603 69.2 180.601 69.2 180.599C69.2 180.596 69.2 180.594 69.2 180.591C69.2 180.589 69.2 180.586 69.2 180.584C69.2 180.581 69.2 180.579 69.2 180.576C69.2 180.574 69.2 180.572 69.2 180.569C69.2 180.567 69.2 180.564 69.2 180.562C69.2 180.559 69.2 180.557 69.2 180.554C69.2 180.552 69.2 180.549 69.2 180.547C69.2 180.545 69.2 180.542 69.2 180.54C69.2 180.537 69.2 180.535 69.2 180.532C69.2 180.53 69.2 180.527 69.2 180.525C69.2 180.522 69.2 180.52 69.2 180.518C69.2 180.515 69.2 180.513 69.2 180.51C69.2 180.508 69.2 180.505 69.2 180.503C69.2 180.5 69.2 180.498 69.2 180.495C69.2 180.493 69.2 180.49 69.2 180.488C69.2 180.485 69.2 180.483 69.2 180.481C69.2 180.478 69.2 180.476 69.2 180.473C69.2 180.471 69.2 180.468 69.2 180.466C69.2 180.463 69.2 180.461 69.2 180.458C69.2 180.456 69.2 180.453 69.2 180.451C69.2 180.448 69.2 180.446 69.2 180.444C69.2 180.441 69.2 180.439 69.2 180.436C69.2 180.434 69.2 180.431 69.2 180.429C69.2 180.426 69.2 180.424 69.2 180.421C69.2 180.419 69.2 180.416 69.2 180.414C69.2 180.411 69.2 180.409 69.2 180.406C69.2 180.404 69.2 180.401 69.2 180.399C69.2 180.397 69.2 180.394 69.2 180.392C69.2 180.389 69.2 180.387 69.2 180.384C69.2 180.382 69.2 180.379 69.2 180.377C69.2 180.374 69.2 180.372 69.2 180.369C69.2 180.367 69.2 180.364 69.2 180.362C69.2 180.359 69.2 180.357 69.2 180.354C69.2 180.352 69.2 180.349 69.2 180.347C69.2 180.344 69.2 180.342 69.2 180.34C69.2 180.337 69.2 180.335 69.2 180.332C69.2 180.33 69.2 180.327 69.2 180.325C69.2 180.322 69.2 180.32 69.2 180.317C69.2 180.315 69.2 180.312 69.2 180.31C69.2 180.307 69.2 180.305 69.2 180.302C69.2 180.3 69.2 180.297 69.2 180.295C69.2 180.292 69.2 180.29 69.2 180.287C69.2 180.285 69.2 180.282 69.2 180.28C69.2 180.277 69.2 180.275 69.2 180.272C69.2 180.27 69.2 180.267 69.2 180.265C69.2 180.262 69.2 180.26 69.2 180.257C69.2 180.255 69.2 180.252 69.2 180.25C69.2 180.247 69.2 180.245 69.2 180.242C69.2 180.24 69.2 180.237 69.2 180.235C69.2 180.232 69.2 180.23 69.2 180.227C69.2 180.225 69.2 180.222 69.2 180.22C69.2 180.217 69.2 180.215 69.2 180.212C69.2 180.21 69.2 180.207 69.2 180.205C69.2 180.202 69.2 180.2 69.2 180.197C69.2 180.195 69.2 180.192 69.2 180.19C69.2 180.188 69.2 180.185 69.2 180.182C69.2 180.18 69.2 180.177 69.2 180.175C69.2 180.172 69.2 180.17 69.2 180.167C69.2 180.165 69.2 180.162 69.2 180.16C69.2 180.157 69.2 180.155 69.2 180.152C69.2 180.15 69.2 180.147 69.2 180.145C69.2 180.142 69.2 180.14 69.2 180.137C69.2 180.135 69.2 180.132 69.2 180.13C69.2 180.127 69.2 180.125 69.2 180.122C69.2 180.12 69.2 180.117 69.2 180.115C69.2 180.112 69.2 180.11 69.2 180.107C69.2 180.105 69.2 180.102 69.2 180.1C69.2 180.097 69.2 180.095 69.2 180.092C69.2 180.09 69.2 180.087 69.2 180.085C69.2 180.082 69.2 180.08 69.2 180.077C69.2 180.075 69.2 180.072 69.2 180.07C69.2 180.067 69.2 180.065 69.2 180.062C69.2 180.06 69.2 180.057 69.2 180.054C69.2 180.052 69.2 180.049 69.2 180.047C69.2 180.044 69.2 180.042 69.2 180.039C69.2 180.037 69.2 180.034 69.2 180.032C69.2 180.029 69.2 180.027 69.2 180.024C69.2 180.022 69.2 180.019 69.2 180.017C69.2 180.014 69.2 180.012 69.2 180.009C69.2 180.007 69.2 180.004 69.2 180.002C69.2 179.999 69.2 179.996 69.2 179.994C69.2 179.991 69.2 179.989 69.2 179.986C69.2 179.984 69.2 179.981 69.2 179.979C69.2 179.976 69.2 179.974 69.2 179.971C69.2 179.969 69.2 179.966 69.2 179.964C69.2 179.961 69.2 179.959 69.2 179.956C69.2 179.954 69.2 179.951 69.2 179.948C69.2 179.946 69.2 179.943 69.2 179.941C69.2 179.938 69.2 179.936 69.2 179.933C69.2 179.931 69.2 179.928 69.2 179.926C69.2 179.923 69.2 179.921 69.2 179.918C69.2 179.916 69.2 179.913 69.2 179.91C69.2 179.908 69.2 179.905 69.2 179.903C69.2 179.9 69.2 179.898 69.2 179.895C69.2 179.893 69.2 179.89 69.2 179.888C69.2 179.885 69.2 179.883 69.2 179.88C69.2 179.878 69.2 179.875 69.2 179.872C69.2 179.87 69.2 179.867 69.2 179.865C69.2 179.862 69.2 179.86 69.2 179.857C69.2 179.855 69.2 179.852 69.2 179.85C69.2 179.847 69.2 179.844 69.2 179.842C69.2 179.839 69.2 179.837 69.2 179.834C69.2 179.832 69.2 179.829 69.2 179.827C69.2 179.824 69.2 179.822 69.2 179.819C69.2 179.816 69.2 179.814 69.2 179.811C69.2 179.809 69.2 179.806 69.2 179.804C69.2 179.801 69.2 179.799 69.2 179.796C69.2 179.794 69.2 179.791 69.2 179.788C69.2 179.786 69.2 179.783 69.2 179.781C69.2 179.778 69.2 179.776 69.2 179.773C69.2 179.771 69.2 179.768 69.2 179.765C69.2 179.763 69.2 179.76 69.2 179.758C69.2 179.755 69.2 179.753 69.2 179.75C69.2 179.748 69.2 179.745 69.2 179.742C69.2 179.74 69.2 179.737 69.2 179.735C69.2 179.732 69.2 179.73 69.2 179.727C69.2 179.725 69.2 179.722 69.2 179.719C69.2 179.717 69.2 179.714 69.2 179.712C69.2 179.709 69.2 179.707 69.2 179.704C69.2 179.702 69.2 179.699 69.2 179.696C69.2 179.694 69.2 179.691 69.2 179.689C69.2 179.686 69.2 179.684 69.2 179.681C69.2 179.679 69.2 179.676 69.2 179.673C69.2 179.671 69.2 179.668 69.2 179.666C69.2 179.663 69.2 179.661 69.2 179.658C69.2 179.655 69.2 179.653 69.2 179.65C69.2 179.648 69.2 179.645 69.2 179.643C69.2 179.64 69.2 179.637 69.2 179.635C69.2 179.632 69.2 179.63 69.2 179.627C69.2 179.625 69.2 179.622 69.2 179.619C69.2 179.617 69.2 179.614 69.2 179.612C69.2 179.609 69.2 179.607 69.2 179.604C69.2 179.602 69.2 179.599 69.2 179.596C69.2 179.594 69.2 179.591 69.2 179.589C69.2 179.586 69.2 179.583 69.2 179.581C69.2 179.578 69.2 179.576 69.2 179.573C69.2 179.571 69.2 179.568 69.2 179.565C69.2 179.563 69.2 179.56 69.2 179.558C69.2 179.555 69.2 179.553 69.2 179.55C69.2 179.547 69.2 179.545 69.2 179.542C69.2 179.54 69.2 179.537 69.2 179.535C69.2 179.532 69.2 179.529 69.2 179.527C69.2 179.524 69.2 179.522 69.2 179.519C69.2 179.516 69.2 179.514 69.2 179.511C69.2 179.509 69.2 179.506 69.2 179.504C69.2 179.501 69.2 179.498 69.2 179.496C69.2 179.493 69.2 179.491 69.2 179.488C69.2 179.485 69.2 179.483 69.2 179.48C69.2 179.478 69.2 179.475 69.2 179.473C69.2 179.47 69.2 179.467 69.2 179.465C69.2 179.462 69.2 179.46 69.2 179.457C69.2 179.454 69.2 179.452 69.2 179.449C69.2 179.447 69.2 179.444 69.2 179.441C69.2 179.439 69.2 179.436 69.2 179.434C69.2 179.431 69.2 179.428 69.2 179.426C69.2 179.423 69.2 179.421 69.2 179.418C69.2 179.416 69.2 179.413 69.2 179.41C69.2 179.408 69.2 179.405 69.2 179.403C69.2 179.4 69.2 179.397 69.2 179.395C69.2 179.392 69.2 179.39 69.2 179.387C69.2 179.384 69.2 179.382 69.2 179.379C69.2 179.377 69.2 179.374 69.2 179.371C69.2 179.369 69.2 179.366 69.2 179.364C69.2 179.361 69.2 179.358 69.2 179.356C69.2 179.353 69.2 179.351 69.2 179.348C69.2 179.345 69.2 179.343 69.2 179.34C69.2 179.338 69.2 179.335 69.2 179.332C69.2 179.33 69.2 179.327 69.2 179.325C69.2 179.322 69.2 179.319 69.2 179.317C69.2 179.314 69.2 179.312 69.2 179.309C69.2 179.306 69.2 179.304 69.2 179.301C69.2 179.298 69.2 179.296 69.2 179.293C69.2 179.291 69.2 179.288 69.2 179.285C69.2 179.283 69.2 179.28 69.2 179.278C69.2 179.275 69.2 179.272 69.2 179.27C69.2 179.267 69.2 179.265 69.2 179.262C69.2 179.259 69.2 179.257 69.2 179.254C69.2 179.251 69.2 179.249 69.2 179.246C69.2 179.244 69.2 179.241 69.2 179.238C69.2 179.236 69.2 179.233 69.2 179.231C69.2 179.228 69.2 179.225 69.2 179.223C69.2 179.22 69.2 179.217 69.2 179.215C69.2 179.212 69.2 179.21 69.2 179.207C69.2 179.204 69.2 179.202 69.2 179.199C69.2 179.197 69.2 179.194 69.2 179.191C69.2 179.189 69.2 179.186 69.2 179.183C69.2 179.181 69.2 179.178 69.2 179.176C69.2 179.173 69.2 179.17 69.2 179.168C69.2 179.165 69.2 179.162 69.2 179.16C69.2 179.157 69.2 179.155 69.2 179.152C69.2 179.149 69.2 179.147 69.2 179.144C69.2 179.141 69.2 179.139 69.2 179.136C69.2 179.134 69.2 179.131 69.2 179.128C69.2 179.126 69.2 179.123 69.2 179.12C69.2 179.118 69.2 179.115 69.2 179.113C69.2 179.11 69.2 179.107 69.2 179.105C69.2 179.102 69.2 179.099 69.2 179.097C69.2 179.094 69.2 179.092 69.2 179.089C69.2 179.086 69.2 179.084 69.2 179.081C69.2 179.078 69.2 179.076 69.2 179.073C69.2 179.07 69.2 179.068 69.2 179.065C69.2 179.063 69.2 179.06 69.2 179.057C69.2 179.055 69.2 179.052 69.2 179.049C69.2 179.047 69.2 179.044 69.2 179.041C69.2 179.039 69.2 179.036 69.2 179.034C69.2 179.031 69.2 179.028 69.2 179.026C69.2 179.023 69.2 179.02 69.2 179.018C69.2 179.015 69.2 179.012 69.2 179.01C69.2 179.007 69.2 179.005 69.2 179.002C69.2 178.999 69.2 178.997 69.2 178.994C69.2 178.991 69.2 178.989 69.2 178.986C69.2 178.983 69.2 178.981 69.2 178.978C69.2 178.975 69.2 178.973 69.2 178.97C69.2 178.967 69.2 178.965 69.2 178.962C69.2 178.96 69.2 178.957 69.2 178.954C69.2 178.952 69.2 178.949 69.2 178.946C69.2 178.944 69.2 178.941 69.2 178.938C69.2 178.936 69.2 178.933 69.2 178.93C69.2 178.928 69.2 178.925 69.2 178.922C69.2 178.92 69.2 178.917 69.2 178.915C69.2 178.912 69.2 178.909 69.2 178.907C69.2 178.904 69.2 178.901 69.2 178.899C69.2 178.896 69.2 178.893 69.2 178.891C69.2 178.888 69.2 178.885 69.2 178.883C69.2 178.88 69.2 178.877 69.2 178.875C69.2 178.872 69.2 178.869 69.2 178.867C69.2 178.864 69.2 178.861 69.2 178.859C69.2 178.856 69.2 178.853 69.2 178.851C69.2 178.848 69.2 178.845 69.2 178.843C69.2 178.84 69.2 178.837 69.2 178.835C69.2 178.832 69.2 178.829 69.2 178.827C69.2 178.824 69.2 178.821 69.2 178.819C69.2 178.816 69.2 178.813 69.2 178.811C69.2 178.808 69.2 178.805 69.2 178.803C69.2 178.8 69.2 178.798 69.2 178.795C69.2 178.792 69.2 178.79 69.2 178.787C69.2 178.784 69.2 178.782 69.2 178.779C69.2 178.776 69.2 178.773 69.2 178.771C69.2 178.768 69.2 178.765 69.2 178.763C69.2 178.76 69.2 178.757 69.2 178.755C69.2 178.752 69.2 178.749 69.2 178.747C69.2 178.744 69.2 178.741 69.2 178.739C69.2 178.736 69.2 178.733 69.2 178.731C69.2 178.728 69.2 178.725 69.2 178.723C69.2 178.72 69.2 178.717 69.2 178.715C69.2 178.712 69.2 178.709 69.2 178.707C69.2 178.704 69.2 178.701 69.2 178.699C69.2 178.696 69.2 178.693 69.2 178.691C69.2 178.688 69.2 178.685 69.2 178.683C69.2 178.68 69.2 178.677 69.2 178.675C69.2 178.672 69.2 178.669 69.2 178.667C69.2 178.664 69.2 178.661 69.2 178.658C69.2 178.656 69.2 178.653 69.2 178.65C69.2 178.648 69.2 178.645 69.2 178.642C69.2 178.64 69.2 178.637 69.2 178.634C69.2 178.632 69.2 178.629 69.2 178.626C69.2 178.624 69.2 178.621 69.2 178.618C69.2 178.616 69.2 178.613 69.2 178.61C69.2 178.607 69.2 178.605 69.2 178.602C69.2 178.599 69.2 178.597 69.2 178.594C69.2 178.591 69.2 178.589 69.2 178.586C69.2 178.583 69.2 178.581 69.2 178.578C69.2 178.575 69.2 178.573 69.2 178.57C69.2 178.567 69.2 178.564 69.2 178.562C69.2 178.559 69.2 178.556 69.2 178.554C69.2 178.551 69.2 178.548 69.2 178.546C69.2 178.543 69.2 178.54 69.2 178.537C69.2 178.535 69.2 178.532 69.2 178.529C69.2 178.527 69.2 178.524 69.2 178.521C69.2 178.519 69.2 178.516 69.2 178.513C69.2 178.511 69.2 178.508 69.2 178.505C69.2 178.502 69.2 178.5 69.2 178.497C69.2 178.494 69.2 178.492 69.2 178.489C69.2 178.486 69.2 178.484 69.2 178.481C69.2 178.478 69.2 178.475 69.2 178.473C69.2 178.47 69.2 178.467 69.2 178.465C69.2 178.462 69.2 178.459 69.2 178.456C69.2 178.454 69.2 178.451 69.2 178.448C69.2 178.446 69.2 178.443 69.2 178.44C69.2 178.438 69.2 178.435 69.2 178.432C69.2 178.429 69.2 178.427 69.2 178.424C69.2 178.421 69.2 178.419 69.2 178.416C69.2 178.413 69.2 178.41 69.2 178.408C69.2 178.405 69.2 178.402 69.2 178.4C69.2 178.397 69.2 178.394 69.2 178.392C69.2 178.389 69.2 178.386 69.2 178.383C69.2 178.381 69.2 178.378 69.2 178.375C69.2 178.373 69.2 178.37 69.2 178.367C69.2 178.364 69.2 178.362 69.2 178.359C69.2 178.356 69.2 178.354 69.2 178.351C69.2 178.348 69.2 178.345 69.2 178.343C69.2 178.34 69.2 178.337 69.2 178.334C69.2 178.332 69.2 178.329 69.2 178.326C69.2 178.324 69.2 178.321 69.2 178.318C69.2 178.315 69.2 178.313 69.2 178.31C69.2 178.307 69.2 178.305 69.2 178.302C69.2 178.299 69.2 178.296 69.2 178.294C69.2 178.291 69.2 178.288 69.2 178.286C69.2 178.283 69.2 178.28 69.2 178.277C69.2 178.275 69.2 178.272 69.2 178.269C69.2 178.266 69.2 178.264 69.2 178.261C69.2 178.258 69.2 178.256 69.2 178.253C69.2 178.25 69.2 178.247 69.2 178.245C69.2 178.242 69.2 178.239 69.2 178.236C69.2 178.234 69.2 178.231 69.2 178.228C69.2 178.226 69.2 178.223 69.2 178.22C69.2 178.217 69.2 178.215 69.2 178.212C69.2 178.209 69.2 178.206 69.2 178.204C69.2 178.201 69.2 178.198 69.2 178.195C69.2 178.193 69.2 178.19 69.2 178.187C69.2 178.185 69.2 178.182 69.2 178.179C69.2 178.176 69.2 178.174 69.2 178.171C69.2 178.168 69.2 178.165 69.2 178.163C69.2 178.16 69.2 178.157 69.2 178.154C69.2 178.152 69.2 178.149 69.2 178.146C69.2 178.143 69.2 178.141 69.2 178.138C69.2 178.135 69.2 178.133 69.2 178.13C69.2 178.127 69.2 178.124 69.2 178.122C69.2 178.119 69.2 178.116 69.2 178.113C69.2 178.111 69.2 178.108 69.2 178.105C69.2 178.102 69.2 178.1 69.2 178.097C69.2 178.094 69.2 178.091 69.2 178.089C69.2 178.086 69.2 178.083 69.2 178.08C69.2 178.078 69.2 178.075 69.2 178.072C69.2 178.069 69.2 178.067 69.2 178.064C69.2 178.061 69.2 178.058 69.2 178.056C69.2 178.053 69.2 178.05 69.2 178.047C69.2 178.045 69.2 178.042 69.2 178.039C69.2 178.036 69.2 178.034 69.2 178.031C69.2 178.028 69.2 178.025 69.2 178.023C69.2 178.02 69.2 178.017 69.2 178.014C69.2 178.012 69.2 178.009 69.2 178.006C69.2 178.003 69.2 178.001 69.2 177.998C69.2 177.995 69.2 177.992 69.2 177.99C69.2 177.987 69.2 177.984 69.2 177.981C69.2 177.979 69.2 177.976 69.2 177.973C69.2 177.97 69.2 177.968 69.2 177.965C69.2 177.962 69.2 177.959 69.2 177.956C69.2 177.954 69.2 177.951 69.2 177.948C69.2 177.945 69.2 177.943 69.2 177.94C69.2 177.937 69.2 177.934 69.2 177.932C69.2 177.929 69.2 177.926 69.2 177.923C69.2 177.921 69.2 177.918 69.2 177.915C69.2 177.912 69.2 177.91 69.2 177.907C69.2 177.904 69.2 177.901 69.2 177.898C69.2 177.896 69.2 177.893 69.2 177.89C69.2 177.887 69.2 177.885 69.2 177.882C69.2 177.879 69.2 177.876 69.2 177.874C69.2 177.871 69.2 177.868 69.2 177.865C69.2 177.862 69.2 177.86 69.2 177.857C69.2 177.854 69.2 177.851 69.2 177.849C69.2 177.846 69.2 177.843 69.2 177.84C69.2 177.837 69.2 177.835 69.2 177.832C69.2 177.829 69.2 177.826 69.2 177.824C69.2 177.821 69.2 177.818 69.2 177.815C69.2 177.813 69.2 177.81 69.2 177.807C69.2 177.804 69.2 177.801 69.2 177.799C69.2 177.796 69.2 177.793 69.2 177.79C69.2 177.788 69.2 177.785 69.2 177.782C69.2 177.779 69.2 177.776 69.2 177.774C69.2 177.771 69.2 177.768 69.2 177.765C69.2 177.762 69.2 177.76 69.2 177.757C69.2 177.754 69.2 177.751 69.2 177.749C69.2 177.746 69.2 177.743 69.2 177.74C69.2 177.737 69.2 177.735 69.2 177.732C69.2 177.729 69.2 177.726 69.2 177.724C69.2 177.721 69.2 177.718 69.2 177.715C69.2 177.712 69.2 177.71 69.2 177.707C69.2 177.704 69.2 177.701 69.2 177.698C69.2 177.696 69.2 177.693 69.2 177.69C69.2 177.687 69.2 177.684 69.2 177.682C69.2 177.679 69.2 177.676 69.2 177.673C69.2 177.671 69.2 177.668 69.2 177.665C69.2 177.662 69.2 177.659 69.2 177.657C69.2 177.654 69.2 177.651 69.2 177.648C69.2 177.645 69.2 177.643 69.2 177.64C69.2 177.637 69.2 177.634 69.2 177.631C69.2 177.629 69.2 177.626 69.2 177.623C69.2 177.62 69.2 177.617 69.2 177.615C69.2 177.612 69.2 177.609 69.2 177.606C69.2 177.603 69.2 177.601 69.2 177.598C69.2 177.595 69.2 177.592 69.2 177.589C69.2 177.587 69.2 177.584 69.2 177.581C69.2 177.578 69.2 177.575 69.2 177.573C69.2 177.57 69.2 177.567 69.2 177.564C69.2 177.561 69.2 177.559 69.2 177.556C69.2 177.553 69.2 177.55 69.2 177.547C69.2 177.545 69.2 177.542 69.2 177.539C69.2 177.536 69.2 177.533 69.2 177.531C69.2 177.528 69.2 177.525 69.2 177.522C69.2 177.519 69.2 177.517 69.2 177.514C69.2 177.511 69.2 177.508 69.2 177.505C69.2 177.502 69.2 177.5 69.2 177.497C69.2 177.494 69.2 177.491 69.2 177.488C69.2 177.486 69.2 177.483 69.2 177.48H61.2ZM61.2 181.44C61.2 191.07 63.9561 198.962 70.1568 204.277L75.3632 198.203C71.4839 194.878 69.2 189.57 69.2 181.44H61.2ZM70.1568 204.277C76.1356 209.402 84.1305 211.72 93.64 211.72V203.72C85.3895 203.72 79.4644 201.718 75.3632 198.203L70.1568 204.277ZM93.64 211.72C104.033 211.72 112.774 209.44 119.44 204.44L114.64 198.04C109.786 201.68 102.927 203.72 93.64 203.72V211.72ZM119.46 204.425C126.217 199.289 131.393 191.626 135.173 181.796L127.707 178.924C124.288 187.814 119.863 194.071 114.62 198.055L119.46 204.425ZM135.173 181.796C138.902 172.102 142.077 159.584 144.74 144.328L136.86 142.952C134.243 157.936 131.178 169.898 127.707 178.924L135.173 181.796ZM138.223 140.58C133.923 144.202 129.031 147.392 123.531 150.142L127.109 157.298C133.129 154.288 138.557 150.758 143.377 146.7L138.223 140.58ZM123.653 150.084C118.119 152.621 112.221 154.704 105.956 156.328L107.964 164.072C114.659 162.336 121.001 160.099 126.987 157.356L123.653 150.084ZM106.061 156.302C100.13 157.671 93.9522 158.36 87.52 158.36V166.36C94.5278 166.36 101.31 165.609 107.859 164.098L106.061 156.302ZM87.52 158.36C73.344 158.36 60.691 155.921 49.4957 151.123L46.3443 158.477C58.669 163.759 72.416 166.36 87.52 166.36V158.36ZM49.4957 151.123C38.3454 146.345 29.5809 139.461 23.0784 130.492L16.6016 135.188C24.0191 145.419 33.9746 153.175 46.3443 158.477L49.4957 151.123ZM23.1169 130.546C16.9426 121.726 13.76 110.921 13.76 97.92H5.76C5.76 112.279 9.2974 124.754 16.5631 135.134L23.1169 130.546ZM13.76 97.92C13.76 83.3175 16.5386 70.3616 22.0061 58.9709L14.7939 55.5091C8.74144 68.1184 5.76 82.2825 5.76 97.92H13.76ZM22.0193 58.9432C27.5284 47.2363 35.198 37.3973 45.0451 29.3822L39.9949 23.1777C29.202 31.9627 20.7916 42.7637 14.7807 55.5368L22.0193 58.9432ZM45.053 29.3758C55.165 21.1023 67.1629 14.8552 81.1094 10.6713L78.8106 3.00867C63.9571 7.46473 50.995 14.1777 39.987 23.1842L45.053 29.3758ZM81.1495 10.659C95.3591 6.2331 110.913 3.99998 127.84 3.99998V-4.00002C110.207 -4.00002 93.841 -1.67313 78.7705 3.02095L81.1495 10.659ZM127.84 3.99998C147.595 3.99998 163.89 7.17799 176.888 13.3349L180.312 6.10503C165.95 -0.698021 148.405 -4.00002 127.84 -4.00002V3.99998ZM176.912 13.3463C190.064 19.4689 199.842 28.7027 206.382 41.1056L213.458 37.3744C206.078 23.3773 194.976 12.9311 180.288 6.09366L176.912 13.3463ZM206.423 41.1826C213.203 53.3852 216.72 68.985 216.72 88.2H224.72C224.72 68.055 221.037 51.0148 213.417 37.2974L206.423 41.1826ZM216.72 88.2C216.72 93.5476 216.371 99.2734 215.666 105.382L223.614 106.298C224.349 99.9266 224.72 93.8924 224.72 88.2H216.72ZM215.652 105.533C215.183 111.629 214.361 117.976 213.182 124.577L221.058 125.983C222.279 119.144 223.137 112.531 223.628 106.147L215.652 105.533ZM213.179 124.598C207.703 156.261 199.651 181.336 189.154 199.999L196.126 203.921C207.229 184.184 215.497 158.139 221.062 125.962L213.179 124.598ZM189.154 199.999C178.681 218.618 165.302 231.923 149.071 240.152L152.689 247.288C170.538 238.237 184.999 223.702 196.126 203.921L189.154 199.999ZM149.091 240.142C132.979 248.198 113.226 252.32 89.68 252.32V260.32C114.134 260.32 135.181 256.042 152.669 247.298L149.091 240.142ZM109.84 123.16C116.268 123.16 122.184 122.131 127.526 119.994L124.554 112.566C120.296 114.269 115.412 115.16 109.84 115.16V123.16ZM127.464 120.018C132.884 117.953 137.623 115.207 141.62 111.743L136.38 105.697C133.177 108.473 129.276 110.767 124.616 112.542L127.464 120.018ZM141.746 111.628C146.495 107.144 150.069 101.849 152.445 95.7776L144.995 92.8624C143.051 97.8312 140.145 102.136 136.254 105.812L141.746 111.628ZM152.412 95.8585C155.044 89.5418 156.32 82.5276 156.32 74.88H148.32C148.32 81.6324 147.196 87.5782 145.028 92.7815L152.412 95.8585ZM156.32 74.88C156.32 68.6381 155.151 63.1141 152.566 58.519L145.594 62.441C147.329 65.5259 148.32 69.6019 148.32 74.88H156.32ZM152.566 58.519C149.918 53.8104 145.825 50.3734 140.552 48.1534L137.448 55.5265C141.296 57.1466 143.922 59.4696 145.594 62.441L152.566 58.519ZM140.789 48.2623C135.757 45.7464 129.699 44.6 122.8 44.6V52.6C128.861 52.6 133.603 53.6136 137.211 55.4177L140.789 48.2623ZM122.8 44.6C116.933 44.6 111.48 45.3653 106.475 46.9457L108.885 54.5743C113 53.2747 117.627 52.6 122.8 52.6V44.6ZM106.475 46.9457C101.511 48.5135 97.1096 50.764 93.3287 53.7347L98.2713 60.0253C101.21 57.716 104.729 55.8865 108.885 54.5743L106.475 46.9457ZM93.3758 53.6983C87.7781 57.9632 83.5217 63.4314 80.6187 70.029L87.9413 73.2509C90.3183 67.8485 93.7419 63.4768 98.2242 60.0617L93.3758 53.6983ZM80.6187 70.029C77.7203 76.6163 76.32 84.0195 76.32 92.16H84.32C84.32 84.9405 85.5597 78.6637 87.9413 73.2509L80.6187 70.029ZM76.32 92.16C76.32 98.4138 77.4931 104.009 80.0249 108.792L87.0952 105.048C85.3069 101.671 84.32 97.4262 84.32 92.16H76.32ZM80.168 109.04C82.9843 113.546 86.9185 117.031 91.8512 119.498L95.4289 112.342C91.7215 110.489 88.9357 107.974 86.952 104.8L80.168 109.04ZM91.8512 119.498C96.883 122.014 102.941 123.16 109.84 123.16V115.16C103.779 115.16 99.037 114.146 95.4289 112.342L91.8512 119.498Z" fill="url(#paint0_linear_121_408)" mask="url(#path-1-outside-1_121_408)"/>
<defs>
<linearGradient id="paint0_linear_121_408" x1="-14" y1="132" x2="227" y2="132" gradientUnits="userSpaceOnUse">
<stop stop-color="#6A11CB"/>
<stop offset="1" stop-color="#2575FC"/>
</linearGradient>
</defs>
</svg>
