<svg width="198" height="249" viewBox="0 0 198 249" fill="none" xmlns="http://www.w3.org/2000/svg">
<mask id="path-1-outside-1_121_400" maskUnits="userSpaceOnUse" x="-4" y="-4" width="207" height="257" fill="black">
<rect fill="white" x="-4" y="-4" width="207" height="257"/>
<path d="M0.88 249L10.6 193.56H69.28L89.08 81.6H30.4L37.96 39.84C46.36 39.36 55.48 37.92 65.32 35.52C75.16 33.12 85.12 30.12 95.2 26.52C105.52 22.92 115.36 18.96 124.72 14.64C134.32 10.08 143.08 5.51999 151 0.959996H175.12L140.92 193.56H197.44L187.72 249H0.88Z"/>
</mask>
<path d="M0.88 249L-3.0599 248.309L-3.88231 253H0.88V249ZM10.6 193.56V189.56H7.24029L6.6601 192.869L10.6 193.56ZM69.28 193.56V197.56H72.6347L73.2189 194.257L69.28 193.56ZM89.08 81.6L93.0189 82.2966L93.8495 77.6H89.08V81.6ZM30.4 81.6L26.464 80.8874L25.6108 85.6H30.4V81.6ZM37.96 39.84L37.7318 35.8465L34.5854 36.0263L34.024 39.1274L37.96 39.84ZM65.32 35.52L64.3722 31.6339V31.6339L65.32 35.52ZM95.2 26.52L93.8825 22.7432L93.8686 22.7481L93.8547 22.753L95.2 26.52ZM124.72 14.64L126.396 18.2718L126.416 18.2626L126.436 18.2531L124.72 14.64ZM151 0.959999V-3.04H149.931L149.004 -2.50649L151 0.959999ZM175.12 0.959999L179.058 1.65934L179.893 -3.04H175.12V0.959999ZM140.92 193.56L136.982 192.861L136.147 197.56H140.92V193.56ZM197.44 193.56L201.38 194.251L202.202 189.56H197.44V193.56ZM187.72 249V253H191.08L191.66 249.691L187.72 249ZM4.8199 249.691L14.5399 194.251L6.6601 192.869L-3.0599 248.309L4.8199 249.691ZM10.6 197.56H69.28V189.56H10.6V197.56ZM73.2189 194.257L93.0189 82.2966L85.1411 80.9034L65.3411 192.863L73.2189 194.257ZM89.08 77.6H30.4V85.6H89.08V77.6ZM34.336 82.3125L41.896 40.5525L34.024 39.1274L26.464 80.8874L34.336 82.3125ZM38.1882 43.8335C46.8739 43.3372 56.2377 41.8524 66.2678 39.4061L64.3722 31.6339C54.7223 33.9875 45.8461 35.3828 37.7318 35.8465L38.1882 43.8335ZM66.2678 39.4061C76.2496 36.9715 86.3423 33.9309 96.5453 30.287L93.8547 22.753C83.8977 26.3091 74.0704 29.2685 64.3722 31.6339L66.2678 39.4061ZM96.5175 30.2968C106.952 26.6568 116.912 22.649 126.396 18.2718L123.044 11.0082C113.808 15.271 104.088 19.1832 93.8825 22.7432L96.5175 30.2968ZM126.436 18.2531C136.116 13.655 144.971 9.04665 152.996 4.42648L149.004 -2.50649C141.189 1.99335 132.524 6.50499 123.004 11.0269L126.436 18.2531ZM151 4.96H175.12V-3.04H151V4.96ZM171.182 0.260658L136.982 192.861L144.858 194.259L179.058 1.65934L171.182 0.260658ZM140.92 197.56H197.44V189.56H140.92V197.56ZM193.5 192.869L183.78 248.309L191.66 249.691L201.38 194.251L193.5 192.869ZM187.72 245H0.88V253H187.72V245Z" fill="url(#paint0_linear_121_400)" mask="url(#path-1-outside-1_121_400)"/>
<defs>
<linearGradient id="paint0_linear_121_400" x1="-11" y1="129" x2="230" y2="129" gradientUnits="userSpaceOnUse">
<stop stop-color="#6A11CB"/>
<stop offset="1" stop-color="#2575FC"/>
</linearGradient>
</defs>
</svg>
